<?xml version="1.0" encoding="utf-8" standalone="no"?>
<!DOCTYPE svg PUBLIC "-//W3C//DTD SVG 1.1//EN"
  "http://www.w3.org/Graphics/SVG/1.1/DTD/svg11.dtd">
<svg xmlns:xlink="http://www.w3.org/1999/xlink" width="1252.514063pt" height="418.157812pt" viewBox="0 0 1252.514063 418.157812" xmlns="http://www.w3.org/2000/svg" version="1.1">
 <metadata>
  <rdf:RDF xmlns:dc="http://purl.org/dc/elements/1.1/" xmlns:cc="http://creativecommons.org/ns#" xmlns:rdf="http://www.w3.org/1999/02/22-rdf-syntax-ns#">
   <cc:Work>
    <dc:type rdf:resource="http://purl.org/dc/dcmitype/StillImage"/>
    <dc:date>2023-12-11T14:33:40.874115</dc:date>
    <dc:format>image/svg+xml</dc:format>
    <dc:creator>
     <cc:Agent>
      <dc:title>Matplotlib v3.8.2, https://matplotlib.org/</dc:title>
     </cc:Agent>
    </dc:creator>
   </cc:Work>
  </rdf:RDF>
 </metadata>
 <defs>
  <style type="text/css">*{stroke-linejoin: round; stroke-linecap: butt}</style>
 </defs>
 <g id="figure_1">
  <g id="patch_1">
   <path d="M 0 418.157812 
L 1252.514063 418.157812 
L 1252.514063 0 
L 0 0 
z
" style="fill: #ffffff"/>
  </g>
  <g id="axes_1">
   <g id="patch_2">
    <path d="M 71.048063 368.436 
L 589.518063 368.436 
L 589.518063 66.624 
L 71.048063 66.624 
z
" style="fill: #eaeaf2"/>
   </g>
   <g id="matplotlib.axis_1">
    <g id="xtick_1">
     <g id="line2d_1">
      <path d="M 94.553481 368.436 
L 94.553481 66.624 
" clip-path="url(#p853cd87e4e)" style="fill: none; stroke: #ffffff; stroke-width: 0.8; stroke-linecap: round"/>
     </g>
     <g id="text_1">
      <!-- 0.4 -->
      <g style="fill: #262626" transform="translate(85.379481 386.184312) scale(0.132 -0.132)">
       <defs>
        <path id="ArialMT-30" d="M 266 2259 
Q 266 3072 433 3567 
Q 600 4063 929 4331 
Q 1259 4600 1759 4600 
Q 2128 4600 2406 4451 
Q 2684 4303 2865 4023 
Q 3047 3744 3150 3342 
Q 3253 2941 3253 2259 
Q 3253 1453 3087 958 
Q 2922 463 2592 192 
Q 2263 -78 1759 -78 
Q 1097 -78 719 397 
Q 266 969 266 2259 
z
M 844 2259 
Q 844 1131 1108 757 
Q 1372 384 1759 384 
Q 2147 384 2411 759 
Q 2675 1134 2675 2259 
Q 2675 3391 2411 3762 
Q 2147 4134 1753 4134 
Q 1366 4134 1134 3806 
Q 844 3388 844 2259 
z
" transform="scale(0.015625)"/>
        <path id="ArialMT-2e" d="M 581 0 
L 581 641 
L 1222 641 
L 1222 0 
L 581 0 
z
" transform="scale(0.015625)"/>
        <path id="ArialMT-34" d="M 2069 0 
L 2069 1097 
L 81 1097 
L 81 1613 
L 2172 4581 
L 2631 4581 
L 2631 1613 
L 3250 1613 
L 3250 1097 
L 2631 1097 
L 2631 0 
L 2069 0 
z
M 2069 1613 
L 2069 3678 
L 634 1613 
L 2069 1613 
z
" transform="scale(0.015625)"/>
       </defs>
       <use xlink:href="#ArialMT-30"/>
       <use xlink:href="#ArialMT-2e" x="55.615234"/>
       <use xlink:href="#ArialMT-34" x="83.398438"/>
      </g>
     </g>
    </g>
    <g id="xtick_2">
     <g id="line2d_2">
      <path d="M 184.024764 368.436 
L 184.024764 66.624 
" clip-path="url(#p853cd87e4e)" style="fill: none; stroke: #ffffff; stroke-width: 0.8; stroke-linecap: round"/>
     </g>
     <g id="text_2">
      <!-- 0.5 -->
      <g style="fill: #262626" transform="translate(174.850764 386.184312) scale(0.132 -0.132)">
       <defs>
        <path id="ArialMT-35" d="M 266 1200 
L 856 1250 
Q 922 819 1161 601 
Q 1400 384 1738 384 
Q 2144 384 2425 690 
Q 2706 997 2706 1503 
Q 2706 1984 2436 2262 
Q 2166 2541 1728 2541 
Q 1456 2541 1237 2417 
Q 1019 2294 894 2097 
L 366 2166 
L 809 4519 
L 3088 4519 
L 3088 3981 
L 1259 3981 
L 1013 2750 
Q 1425 3038 1878 3038 
Q 2478 3038 2890 2622 
Q 3303 2206 3303 1553 
Q 3303 931 2941 478 
Q 2500 -78 1738 -78 
Q 1113 -78 717 272 
Q 322 622 266 1200 
z
" transform="scale(0.015625)"/>
       </defs>
       <use xlink:href="#ArialMT-30"/>
       <use xlink:href="#ArialMT-2e" x="55.615234"/>
       <use xlink:href="#ArialMT-35" x="83.398438"/>
      </g>
     </g>
    </g>
    <g id="xtick_3">
     <g id="line2d_3">
      <path d="M 273.496048 368.436 
L 273.496048 66.624 
" clip-path="url(#p853cd87e4e)" style="fill: none; stroke: #ffffff; stroke-width: 0.8; stroke-linecap: round"/>
     </g>
     <g id="text_3">
      <!-- 0.6 -->
      <g style="fill: #262626" transform="translate(264.322048 386.184312) scale(0.132 -0.132)">
       <defs>
        <path id="ArialMT-36" d="M 3184 3459 
L 2625 3416 
Q 2550 3747 2413 3897 
Q 2184 4138 1850 4138 
Q 1581 4138 1378 3988 
Q 1113 3794 959 3422 
Q 806 3050 800 2363 
Q 1003 2672 1297 2822 
Q 1591 2972 1913 2972 
Q 2475 2972 2870 2558 
Q 3266 2144 3266 1488 
Q 3266 1056 3080 686 
Q 2894 316 2569 119 
Q 2244 -78 1831 -78 
Q 1128 -78 684 439 
Q 241 956 241 2144 
Q 241 3472 731 4075 
Q 1159 4600 1884 4600 
Q 2425 4600 2770 4297 
Q 3116 3994 3184 3459 
z
M 888 1484 
Q 888 1194 1011 928 
Q 1134 663 1356 523 
Q 1578 384 1822 384 
Q 2178 384 2434 671 
Q 2691 959 2691 1453 
Q 2691 1928 2437 2201 
Q 2184 2475 1800 2475 
Q 1419 2475 1153 2201 
Q 888 1928 888 1484 
z
" transform="scale(0.015625)"/>
       </defs>
       <use xlink:href="#ArialMT-30"/>
       <use xlink:href="#ArialMT-2e" x="55.615234"/>
       <use xlink:href="#ArialMT-36" x="83.398438"/>
      </g>
     </g>
    </g>
    <g id="xtick_4">
     <g id="line2d_4">
      <path d="M 362.967331 368.436 
L 362.967331 66.624 
" clip-path="url(#p853cd87e4e)" style="fill: none; stroke: #ffffff; stroke-width: 0.8; stroke-linecap: round"/>
     </g>
     <g id="text_4">
      <!-- 0.7 -->
      <g style="fill: #262626" transform="translate(353.793331 386.184312) scale(0.132 -0.132)">
       <defs>
        <path id="ArialMT-37" d="M 303 3981 
L 303 4522 
L 3269 4522 
L 3269 4084 
Q 2831 3619 2401 2847 
Q 1972 2075 1738 1259 
Q 1569 684 1522 0 
L 944 0 
Q 953 541 1156 1306 
Q 1359 2072 1739 2783 
Q 2119 3494 2547 3981 
L 303 3981 
z
" transform="scale(0.015625)"/>
       </defs>
       <use xlink:href="#ArialMT-30"/>
       <use xlink:href="#ArialMT-2e" x="55.615234"/>
       <use xlink:href="#ArialMT-37" x="83.398438"/>
      </g>
     </g>
    </g>
    <g id="xtick_5">
     <g id="line2d_5">
      <path d="M 452.438614 368.436 
L 452.438614 66.624 
" clip-path="url(#p853cd87e4e)" style="fill: none; stroke: #ffffff; stroke-width: 0.8; stroke-linecap: round"/>
     </g>
     <g id="text_5">
      <!-- 0.8 -->
      <g style="fill: #262626" transform="translate(443.264614 386.184312) scale(0.132 -0.132)">
       <defs>
        <path id="ArialMT-38" d="M 1131 2484 
Q 781 2613 612 2850 
Q 444 3088 444 3419 
Q 444 3919 803 4259 
Q 1163 4600 1759 4600 
Q 2359 4600 2725 4251 
Q 3091 3903 3091 3403 
Q 3091 3084 2923 2848 
Q 2756 2613 2416 2484 
Q 2838 2347 3058 2040 
Q 3278 1734 3278 1309 
Q 3278 722 2862 322 
Q 2447 -78 1769 -78 
Q 1091 -78 675 323 
Q 259 725 259 1325 
Q 259 1772 486 2073 
Q 713 2375 1131 2484 
z
M 1019 3438 
Q 1019 3113 1228 2906 
Q 1438 2700 1772 2700 
Q 2097 2700 2305 2904 
Q 2513 3109 2513 3406 
Q 2513 3716 2298 3927 
Q 2084 4138 1766 4138 
Q 1444 4138 1231 3931 
Q 1019 3725 1019 3438 
z
M 838 1322 
Q 838 1081 952 856 
Q 1066 631 1291 507 
Q 1516 384 1775 384 
Q 2178 384 2440 643 
Q 2703 903 2703 1303 
Q 2703 1709 2433 1975 
Q 2163 2241 1756 2241 
Q 1359 2241 1098 1978 
Q 838 1716 838 1322 
z
" transform="scale(0.015625)"/>
       </defs>
       <use xlink:href="#ArialMT-30"/>
       <use xlink:href="#ArialMT-2e" x="55.615234"/>
       <use xlink:href="#ArialMT-38" x="83.398438"/>
      </g>
     </g>
    </g>
    <g id="xtick_6">
     <g id="line2d_6">
      <path d="M 541.909897 368.436 
L 541.909897 66.624 
" clip-path="url(#p853cd87e4e)" style="fill: none; stroke: #ffffff; stroke-width: 0.8; stroke-linecap: round"/>
     </g>
     <g id="text_6">
      <!-- 0.9 -->
      <g style="fill: #262626" transform="translate(532.735897 386.184312) scale(0.132 -0.132)">
       <defs>
        <path id="ArialMT-39" d="M 350 1059 
L 891 1109 
Q 959 728 1153 556 
Q 1347 384 1650 384 
Q 1909 384 2104 503 
Q 2300 622 2425 820 
Q 2550 1019 2634 1356 
Q 2719 1694 2719 2044 
Q 2719 2081 2716 2156 
Q 2547 1888 2255 1720 
Q 1963 1553 1622 1553 
Q 1053 1553 659 1965 
Q 266 2378 266 3053 
Q 266 3750 677 4175 
Q 1088 4600 1706 4600 
Q 2153 4600 2523 4359 
Q 2894 4119 3086 3673 
Q 3278 3228 3278 2384 
Q 3278 1506 3087 986 
Q 2897 466 2520 194 
Q 2144 -78 1638 -78 
Q 1100 -78 759 220 
Q 419 519 350 1059 
z
M 2653 3081 
Q 2653 3566 2395 3850 
Q 2138 4134 1775 4134 
Q 1400 4134 1122 3828 
Q 844 3522 844 3034 
Q 844 2597 1108 2323 
Q 1372 2050 1759 2050 
Q 2150 2050 2401 2323 
Q 2653 2597 2653 3081 
z
" transform="scale(0.015625)"/>
       </defs>
       <use xlink:href="#ArialMT-30"/>
       <use xlink:href="#ArialMT-2e" x="55.615234"/>
       <use xlink:href="#ArialMT-39" x="83.398438"/>
      </g>
     </g>
    </g>
    <g id="text_7">
     <!-- Probability Threshold ($\pi_\alpha^{(k)}$) -->
     <g style="fill: #262626" transform="translate(240.508063 406.607812) scale(0.15 -0.15)">
      <defs>
       <path id="ArialMT-50" d="M 494 0 
L 494 4581 
L 2222 4581 
Q 2678 4581 2919 4538 
Q 3256 4481 3484 4323 
Q 3713 4166 3852 3881 
Q 3991 3597 3991 3256 
Q 3991 2672 3619 2267 
Q 3247 1863 2275 1863 
L 1100 1863 
L 1100 0 
L 494 0 
z
M 1100 2403 
L 2284 2403 
Q 2872 2403 3119 2622 
Q 3366 2841 3366 3238 
Q 3366 3525 3220 3729 
Q 3075 3934 2838 4000 
Q 2684 4041 2272 4041 
L 1100 4041 
L 1100 2403 
z
" transform="scale(0.015625)"/>
       <path id="ArialMT-72" d="M 416 0 
L 416 3319 
L 922 3319 
L 922 2816 
Q 1116 3169 1280 3281 
Q 1444 3394 1641 3394 
Q 1925 3394 2219 3213 
L 2025 2691 
Q 1819 2813 1613 2813 
Q 1428 2813 1281 2702 
Q 1134 2591 1072 2394 
Q 978 2094 978 1738 
L 978 0 
L 416 0 
z
" transform="scale(0.015625)"/>
       <path id="ArialMT-6f" d="M 213 1659 
Q 213 2581 725 3025 
Q 1153 3394 1769 3394 
Q 2453 3394 2887 2945 
Q 3322 2497 3322 1706 
Q 3322 1066 3130 698 
Q 2938 331 2570 128 
Q 2203 -75 1769 -75 
Q 1072 -75 642 372 
Q 213 819 213 1659 
z
M 791 1659 
Q 791 1022 1069 705 
Q 1347 388 1769 388 
Q 2188 388 2466 706 
Q 2744 1025 2744 1678 
Q 2744 2294 2464 2611 
Q 2184 2928 1769 2928 
Q 1347 2928 1069 2612 
Q 791 2297 791 1659 
z
" transform="scale(0.015625)"/>
       <path id="ArialMT-62" d="M 941 0 
L 419 0 
L 419 4581 
L 981 4581 
L 981 2947 
Q 1338 3394 1891 3394 
Q 2197 3394 2470 3270 
Q 2744 3147 2920 2923 
Q 3097 2700 3197 2384 
Q 3297 2069 3297 1709 
Q 3297 856 2875 390 
Q 2453 -75 1863 -75 
Q 1275 -75 941 416 
L 941 0 
z
M 934 1684 
Q 934 1088 1097 822 
Q 1363 388 1816 388 
Q 2184 388 2453 708 
Q 2722 1028 2722 1663 
Q 2722 2313 2464 2622 
Q 2206 2931 1841 2931 
Q 1472 2931 1203 2611 
Q 934 2291 934 1684 
z
" transform="scale(0.015625)"/>
       <path id="ArialMT-61" d="M 2588 409 
Q 2275 144 1986 34 
Q 1697 -75 1366 -75 
Q 819 -75 525 192 
Q 231 459 231 875 
Q 231 1119 342 1320 
Q 453 1522 633 1644 
Q 813 1766 1038 1828 
Q 1203 1872 1538 1913 
Q 2219 1994 2541 2106 
Q 2544 2222 2544 2253 
Q 2544 2597 2384 2738 
Q 2169 2928 1744 2928 
Q 1347 2928 1158 2789 
Q 969 2650 878 2297 
L 328 2372 
Q 403 2725 575 2942 
Q 747 3159 1072 3276 
Q 1397 3394 1825 3394 
Q 2250 3394 2515 3294 
Q 2781 3194 2906 3042 
Q 3031 2891 3081 2659 
Q 3109 2516 3109 2141 
L 3109 1391 
Q 3109 606 3145 398 
Q 3181 191 3288 0 
L 2700 0 
Q 2613 175 2588 409 
z
M 2541 1666 
Q 2234 1541 1622 1453 
Q 1275 1403 1131 1340 
Q 988 1278 909 1158 
Q 831 1038 831 891 
Q 831 666 1001 516 
Q 1172 366 1500 366 
Q 1825 366 2078 508 
Q 2331 650 2450 897 
Q 2541 1088 2541 1459 
L 2541 1666 
z
" transform="scale(0.015625)"/>
       <path id="ArialMT-69" d="M 425 3934 
L 425 4581 
L 988 4581 
L 988 3934 
L 425 3934 
z
M 425 0 
L 425 3319 
L 988 3319 
L 988 0 
L 425 0 
z
" transform="scale(0.015625)"/>
       <path id="ArialMT-6c" d="M 409 0 
L 409 4581 
L 972 4581 
L 972 0 
L 409 0 
z
" transform="scale(0.015625)"/>
       <path id="ArialMT-74" d="M 1650 503 
L 1731 6 
Q 1494 -44 1306 -44 
Q 1000 -44 831 53 
Q 663 150 594 308 
Q 525 466 525 972 
L 525 2881 
L 113 2881 
L 113 3319 
L 525 3319 
L 525 4141 
L 1084 4478 
L 1084 3319 
L 1650 3319 
L 1650 2881 
L 1084 2881 
L 1084 941 
Q 1084 700 1114 631 
Q 1144 563 1211 522 
Q 1278 481 1403 481 
Q 1497 481 1650 503 
z
" transform="scale(0.015625)"/>
       <path id="ArialMT-79" d="M 397 -1278 
L 334 -750 
Q 519 -800 656 -800 
Q 844 -800 956 -737 
Q 1069 -675 1141 -563 
Q 1194 -478 1313 -144 
Q 1328 -97 1363 -6 
L 103 3319 
L 709 3319 
L 1400 1397 
Q 1534 1031 1641 628 
Q 1738 1016 1872 1384 
L 2581 3319 
L 3144 3319 
L 1881 -56 
Q 1678 -603 1566 -809 
Q 1416 -1088 1222 -1217 
Q 1028 -1347 759 -1347 
Q 597 -1347 397 -1278 
z
" transform="scale(0.015625)"/>
       <path id="ArialMT-20" transform="scale(0.015625)"/>
       <path id="ArialMT-54" d="M 1659 0 
L 1659 4041 
L 150 4041 
L 150 4581 
L 3781 4581 
L 3781 4041 
L 2266 4041 
L 2266 0 
L 1659 0 
z
" transform="scale(0.015625)"/>
       <path id="ArialMT-68" d="M 422 0 
L 422 4581 
L 984 4581 
L 984 2938 
Q 1378 3394 1978 3394 
Q 2347 3394 2619 3248 
Q 2891 3103 3008 2847 
Q 3125 2591 3125 2103 
L 3125 0 
L 2563 0 
L 2563 2103 
Q 2563 2525 2380 2717 
Q 2197 2909 1863 2909 
Q 1613 2909 1392 2779 
Q 1172 2650 1078 2428 
Q 984 2206 984 1816 
L 984 0 
L 422 0 
z
" transform="scale(0.015625)"/>
       <path id="ArialMT-65" d="M 2694 1069 
L 3275 997 
Q 3138 488 2766 206 
Q 2394 -75 1816 -75 
Q 1088 -75 661 373 
Q 234 822 234 1631 
Q 234 2469 665 2931 
Q 1097 3394 1784 3394 
Q 2450 3394 2872 2941 
Q 3294 2488 3294 1666 
Q 3294 1616 3291 1516 
L 816 1516 
Q 847 969 1125 678 
Q 1403 388 1819 388 
Q 2128 388 2347 550 
Q 2566 713 2694 1069 
z
M 847 1978 
L 2700 1978 
Q 2663 2397 2488 2606 
Q 2219 2931 1791 2931 
Q 1403 2931 1139 2672 
Q 875 2413 847 1978 
z
" transform="scale(0.015625)"/>
       <path id="ArialMT-73" d="M 197 991 
L 753 1078 
Q 800 744 1014 566 
Q 1228 388 1613 388 
Q 2000 388 2187 545 
Q 2375 703 2375 916 
Q 2375 1106 2209 1216 
Q 2094 1291 1634 1406 
Q 1016 1563 777 1677 
Q 538 1791 414 1992 
Q 291 2194 291 2438 
Q 291 2659 392 2848 
Q 494 3038 669 3163 
Q 800 3259 1026 3326 
Q 1253 3394 1513 3394 
Q 1903 3394 2198 3281 
Q 2494 3169 2634 2976 
Q 2775 2784 2828 2463 
L 2278 2388 
Q 2241 2644 2061 2787 
Q 1881 2931 1553 2931 
Q 1166 2931 1000 2803 
Q 834 2675 834 2503 
Q 834 2394 903 2306 
Q 972 2216 1119 2156 
Q 1203 2125 1616 2013 
Q 2213 1853 2448 1751 
Q 2684 1650 2818 1456 
Q 2953 1263 2953 975 
Q 2953 694 2789 445 
Q 2625 197 2315 61 
Q 2006 -75 1616 -75 
Q 969 -75 630 194 
Q 291 463 197 991 
z
" transform="scale(0.015625)"/>
       <path id="ArialMT-64" d="M 2575 0 
L 2575 419 
Q 2259 -75 1647 -75 
Q 1250 -75 917 144 
Q 584 363 401 755 
Q 219 1147 219 1656 
Q 219 2153 384 2558 
Q 550 2963 881 3178 
Q 1213 3394 1622 3394 
Q 1922 3394 2156 3267 
Q 2391 3141 2538 2938 
L 2538 4581 
L 3097 4581 
L 3097 0 
L 2575 0 
z
M 797 1656 
Q 797 1019 1065 703 
Q 1334 388 1700 388 
Q 2069 388 2326 689 
Q 2584 991 2584 1609 
Q 2584 2291 2321 2609 
Q 2059 2928 1675 2928 
Q 1300 2928 1048 2622 
Q 797 2316 797 1656 
z
" transform="scale(0.015625)"/>
       <path id="ArialMT-28" d="M 1497 -1347 
Q 1031 -759 709 28 
Q 388 816 388 1659 
Q 388 2403 628 3084 
Q 909 3875 1497 4659 
L 1900 4659 
Q 1522 4009 1400 3731 
Q 1209 3300 1100 2831 
Q 966 2247 966 1656 
Q 966 153 1900 -1347 
L 1497 -1347 
z
" transform="scale(0.015625)"/>
       <path id="DejaVuSans-Oblique-3c0" d="M 584 3500 
L 3938 3500 
L 3825 2925 
L 3384 2925 
L 2966 775 
Q 2922 550 2981 450 
Q 3038 353 3209 353 
Q 3256 353 3325 363 
Q 3397 369 3419 372 
L 3338 -44 
Q 3222 -84 3103 -103 
Q 2981 -122 2866 -122 
Q 2491 -122 2388 81 
Q 2284 288 2391 838 
L 2797 2925 
L 1506 2925 
L 938 0 
L 350 0 
L 919 2925 
L 472 2925 
L 584 3500 
z
" transform="scale(0.015625)"/>
       <path id="DejaVuSans-28" d="M 1984 4856 
Q 1566 4138 1362 3434 
Q 1159 2731 1159 2009 
Q 1159 1288 1364 580 
Q 1569 -128 1984 -844 
L 1484 -844 
Q 1016 -109 783 600 
Q 550 1309 550 2009 
Q 550 2706 781 3412 
Q 1013 4119 1484 4856 
L 1984 4856 
z
" transform="scale(0.015625)"/>
       <path id="DejaVuSans-Oblique-6b" d="M 1172 4863 
L 1747 4863 
L 1197 2028 
L 3169 3500 
L 3916 3500 
L 1716 1825 
L 3322 0 
L 2625 0 
L 1131 1709 
L 800 0 
L 225 0 
L 1172 4863 
z
" transform="scale(0.015625)"/>
       <path id="DejaVuSans-29" d="M 513 4856 
L 1013 4856 
Q 1481 4119 1714 3412 
Q 1947 2706 1947 2009 
Q 1947 1309 1714 600 
Q 1481 -109 1013 -844 
L 513 -844 
Q 928 -128 1133 580 
Q 1338 1288 1338 2009 
Q 1338 2731 1133 3434 
Q 928 4138 513 4856 
z
" transform="scale(0.015625)"/>
       <path id="DejaVuSans-Oblique-3b1" d="M 2619 1628 
L 2622 2350 
Q 2625 3088 2069 3091 
Q 1653 3094 1394 2747 
Q 1069 2319 959 1747 
Q 825 1059 994 731 
Q 1169 397 1547 397 
Q 1966 397 2319 1063 
L 2619 1628 
z
M 2166 3578 
Q 3141 3594 3128 2584 
Q 3128 2584 3616 3500 
L 4128 3500 
L 3119 1603 
L 3109 919 
Q 3109 766 3194 638 
Q 3291 488 3391 488 
L 3669 488 
L 3575 0 
L 3228 0 
Q 2934 0 2722 263 
Q 2622 394 2619 669 
Q 2416 334 2066 50 
Q 1900 -81 1453 -78 
Q 722 -72 456 397 
Q 184 884 353 1747 
Q 534 2675 1009 3097 
Q 1544 3569 2166 3578 
z
" transform="scale(0.015625)"/>
       <path id="ArialMT-29" d="M 791 -1347 
L 388 -1347 
Q 1322 153 1322 1656 
Q 1322 2244 1188 2822 
Q 1081 3291 891 3722 
Q 769 4003 388 4659 
L 791 4659 
Q 1378 3875 1659 3084 
Q 1900 2403 1900 1659 
Q 1900 816 1576 28 
Q 1253 -759 791 -1347 
z
" transform="scale(0.015625)"/>
      </defs>
      <use xlink:href="#ArialMT-50" transform="translate(0 0.529687)"/>
      <use xlink:href="#ArialMT-72" transform="translate(66.699219 0.529687)"/>
      <use xlink:href="#ArialMT-6f" transform="translate(100 0.529687)"/>
      <use xlink:href="#ArialMT-62" transform="translate(155.615234 0.529687)"/>
      <use xlink:href="#ArialMT-61" transform="translate(211.230469 0.529687)"/>
      <use xlink:href="#ArialMT-62" transform="translate(266.845703 0.529687)"/>
      <use xlink:href="#ArialMT-69" transform="translate(322.460938 0.529687)"/>
      <use xlink:href="#ArialMT-6c" transform="translate(344.677734 0.529687)"/>
      <use xlink:href="#ArialMT-69" transform="translate(366.894531 0.529687)"/>
      <use xlink:href="#ArialMT-74" transform="translate(389.111328 0.529687)"/>
      <use xlink:href="#ArialMT-79" transform="translate(416.894531 0.529687)"/>
      <use xlink:href="#ArialMT-20" transform="translate(466.894531 0.529687)"/>
      <use xlink:href="#ArialMT-54" transform="translate(494.677734 0.529687)"/>
      <use xlink:href="#ArialMT-68" transform="translate(555.761719 0.529687)"/>
      <use xlink:href="#ArialMT-72" transform="translate(611.376953 0.529687)"/>
      <use xlink:href="#ArialMT-65" transform="translate(644.677734 0.529687)"/>
      <use xlink:href="#ArialMT-73" transform="translate(700.292969 0.529687)"/>
      <use xlink:href="#ArialMT-68" transform="translate(750.292969 0.529687)"/>
      <use xlink:href="#ArialMT-6f" transform="translate(805.908203 0.529687)"/>
      <use xlink:href="#ArialMT-6c" transform="translate(861.523438 0.529687)"/>
      <use xlink:href="#ArialMT-64" transform="translate(883.740234 0.529687)"/>
      <use xlink:href="#ArialMT-20" transform="translate(939.355469 0.529687)"/>
      <use xlink:href="#ArialMT-28" transform="translate(967.138672 0.529687)"/>
      <use xlink:href="#DejaVuSans-Oblique-3c0" transform="translate(1000.439453 0.529687)"/>
      <use xlink:href="#DejaVuSans-28" transform="translate(1065.110677 38.810938) scale(0.7)"/>
      <use xlink:href="#DejaVuSans-Oblique-6b" transform="translate(1092.420247 38.810938) scale(0.7)"/>
      <use xlink:href="#DejaVuSans-29" transform="translate(1132.957357 38.810938) scale(0.7)"/>
      <use xlink:href="#DejaVuSans-Oblique-3b1" transform="translate(1060.644531 -26.814063) scale(0.7)"/>
      <use xlink:href="#ArialMT-29" transform="translate(1163.001302 0.529687)"/>
     </g>
    </g>
   </g>
   <g id="matplotlib.axis_2">
    <g id="ytick_1">
     <g id="line2d_7">
      <path d="M 71.048063 360.265724 
L 589.518063 360.265724 
" clip-path="url(#p853cd87e4e)" style="fill: none; stroke: #ffffff; stroke-width: 0.8; stroke-linecap: round"/>
     </g>
     <g id="text_8">
      <!-- −0.25 -->
      <g style="fill: #262626" transform="translate(29.35 364.98988) scale(0.132 -0.132)">
       <defs>
        <path id="ArialMT-2212" d="M 3381 1997 
L 356 1997 
L 356 2522 
L 3381 2522 
L 3381 1997 
z
" transform="scale(0.015625)"/>
        <path id="ArialMT-32" d="M 3222 541 
L 3222 0 
L 194 0 
Q 188 203 259 391 
Q 375 700 629 1000 
Q 884 1300 1366 1694 
Q 2113 2306 2375 2664 
Q 2638 3022 2638 3341 
Q 2638 3675 2398 3904 
Q 2159 4134 1775 4134 
Q 1369 4134 1125 3890 
Q 881 3647 878 3216 
L 300 3275 
Q 359 3922 746 4261 
Q 1134 4600 1788 4600 
Q 2447 4600 2831 4234 
Q 3216 3869 3216 3328 
Q 3216 3053 3103 2787 
Q 2991 2522 2730 2228 
Q 2469 1934 1863 1422 
Q 1356 997 1212 845 
Q 1069 694 975 541 
L 3222 541 
z
" transform="scale(0.015625)"/>
       </defs>
       <use xlink:href="#ArialMT-2212"/>
       <use xlink:href="#ArialMT-30" x="58.398438"/>
       <use xlink:href="#ArialMT-2e" x="114.013672"/>
       <use xlink:href="#ArialMT-32" x="141.796875"/>
       <use xlink:href="#ArialMT-35" x="197.412109"/>
      </g>
     </g>
    </g>
    <g id="ytick_2">
     <g id="line2d_8">
      <path d="M 71.048063 320.221065 
L 589.518063 320.221065 
" clip-path="url(#p853cd87e4e)" style="fill: none; stroke: #ffffff; stroke-width: 0.8; stroke-linecap: round"/>
     </g>
     <g id="text_9">
      <!-- 0.00 -->
      <g style="fill: #262626" transform="translate(37.059625 324.945221) scale(0.132 -0.132)">
       <use xlink:href="#ArialMT-30"/>
       <use xlink:href="#ArialMT-2e" x="55.615234"/>
       <use xlink:href="#ArialMT-30" x="83.398438"/>
       <use xlink:href="#ArialMT-30" x="139.013672"/>
      </g>
     </g>
    </g>
    <g id="ytick_3">
     <g id="line2d_9">
      <path d="M 71.048063 280.176407 
L 589.518063 280.176407 
" clip-path="url(#p853cd87e4e)" style="fill: none; stroke: #ffffff; stroke-width: 0.8; stroke-linecap: round"/>
     </g>
     <g id="text_10">
      <!-- 0.25 -->
      <g style="fill: #262626" transform="translate(37.059625 284.900563) scale(0.132 -0.132)">
       <use xlink:href="#ArialMT-30"/>
       <use xlink:href="#ArialMT-2e" x="55.615234"/>
       <use xlink:href="#ArialMT-32" x="83.398438"/>
       <use xlink:href="#ArialMT-35" x="139.013672"/>
      </g>
     </g>
    </g>
    <g id="ytick_4">
     <g id="line2d_10">
      <path d="M 71.048063 240.131748 
L 589.518063 240.131748 
" clip-path="url(#p853cd87e4e)" style="fill: none; stroke: #ffffff; stroke-width: 0.8; stroke-linecap: round"/>
     </g>
     <g id="text_11">
      <!-- 0.50 -->
      <g style="fill: #262626" transform="translate(37.059625 244.855904) scale(0.132 -0.132)">
       <use xlink:href="#ArialMT-30"/>
       <use xlink:href="#ArialMT-2e" x="55.615234"/>
       <use xlink:href="#ArialMT-35" x="83.398438"/>
       <use xlink:href="#ArialMT-30" x="139.013672"/>
      </g>
     </g>
    </g>
    <g id="ytick_5">
     <g id="line2d_11">
      <path d="M 71.048063 200.08709 
L 589.518063 200.08709 
" clip-path="url(#p853cd87e4e)" style="fill: none; stroke: #ffffff; stroke-width: 0.8; stroke-linecap: round"/>
     </g>
     <g id="text_12">
      <!-- 0.75 -->
      <g style="fill: #262626" transform="translate(37.059625 204.811246) scale(0.132 -0.132)">
       <use xlink:href="#ArialMT-30"/>
       <use xlink:href="#ArialMT-2e" x="55.615234"/>
       <use xlink:href="#ArialMT-37" x="83.398438"/>
       <use xlink:href="#ArialMT-35" x="139.013672"/>
      </g>
     </g>
    </g>
    <g id="ytick_6">
     <g id="line2d_12">
      <path d="M 71.048063 160.042431 
L 589.518063 160.042431 
" clip-path="url(#p853cd87e4e)" style="fill: none; stroke: #ffffff; stroke-width: 0.8; stroke-linecap: round"/>
     </g>
     <g id="text_13">
      <!-- 1.00 -->
      <g style="fill: #262626" transform="translate(37.059625 164.766588) scale(0.132 -0.132)">
       <defs>
        <path id="ArialMT-31" d="M 2384 0 
L 1822 0 
L 1822 3584 
Q 1619 3391 1289 3197 
Q 959 3003 697 2906 
L 697 3450 
Q 1169 3672 1522 3987 
Q 1875 4303 2022 4600 
L 2384 4600 
L 2384 0 
z
" transform="scale(0.015625)"/>
       </defs>
       <use xlink:href="#ArialMT-31"/>
       <use xlink:href="#ArialMT-2e" x="55.615234"/>
       <use xlink:href="#ArialMT-30" x="83.398438"/>
       <use xlink:href="#ArialMT-30" x="139.013672"/>
      </g>
     </g>
    </g>
    <g id="ytick_7">
     <g id="line2d_13">
      <path d="M 71.048063 119.997773 
L 589.518063 119.997773 
" clip-path="url(#p853cd87e4e)" style="fill: none; stroke: #ffffff; stroke-width: 0.8; stroke-linecap: round"/>
     </g>
     <g id="text_14">
      <!-- 1.25 -->
      <g style="fill: #262626" transform="translate(37.059625 124.721929) scale(0.132 -0.132)">
       <use xlink:href="#ArialMT-31"/>
       <use xlink:href="#ArialMT-2e" x="55.615234"/>
       <use xlink:href="#ArialMT-32" x="83.398438"/>
       <use xlink:href="#ArialMT-35" x="139.013672"/>
      </g>
     </g>
    </g>
    <g id="ytick_8">
     <g id="line2d_14">
      <path d="M 71.048063 79.953114 
L 589.518063 79.953114 
" clip-path="url(#p853cd87e4e)" style="fill: none; stroke: #ffffff; stroke-width: 0.8; stroke-linecap: round"/>
     </g>
     <g id="text_15">
      <!-- 1.50 -->
      <g style="fill: #262626" transform="translate(37.059625 84.677271) scale(0.132 -0.132)">
       <use xlink:href="#ArialMT-31"/>
       <use xlink:href="#ArialMT-2e" x="55.615234"/>
       <use xlink:href="#ArialMT-35" x="83.398438"/>
       <use xlink:href="#ArialMT-30" x="139.013672"/>
      </g>
     </g>
    </g>
    <g id="text_16">
     <!-- Estimated Weight ($\omega_\alpha^{(k)}$) -->
     <g style="fill: #262626" transform="translate(21 297.405) rotate(-90) scale(0.15 -0.15)">
      <defs>
       <path id="ArialMT-45" d="M 506 0 
L 506 4581 
L 3819 4581 
L 3819 4041 
L 1113 4041 
L 1113 2638 
L 3647 2638 
L 3647 2100 
L 1113 2100 
L 1113 541 
L 3925 541 
L 3925 0 
L 506 0 
z
" transform="scale(0.015625)"/>
       <path id="ArialMT-6d" d="M 422 0 
L 422 3319 
L 925 3319 
L 925 2853 
Q 1081 3097 1340 3245 
Q 1600 3394 1931 3394 
Q 2300 3394 2536 3241 
Q 2772 3088 2869 2813 
Q 3263 3394 3894 3394 
Q 4388 3394 4653 3120 
Q 4919 2847 4919 2278 
L 4919 0 
L 4359 0 
L 4359 2091 
Q 4359 2428 4304 2576 
Q 4250 2725 4106 2815 
Q 3963 2906 3769 2906 
Q 3419 2906 3187 2673 
Q 2956 2441 2956 1928 
L 2956 0 
L 2394 0 
L 2394 2156 
Q 2394 2531 2256 2718 
Q 2119 2906 1806 2906 
Q 1569 2906 1367 2781 
Q 1166 2656 1075 2415 
Q 984 2175 984 1722 
L 984 0 
L 422 0 
z
" transform="scale(0.015625)"/>
       <path id="ArialMT-57" d="M 1294 0 
L 78 4581 
L 700 4581 
L 1397 1578 
Q 1509 1106 1591 641 
Q 1766 1375 1797 1488 
L 2669 4581 
L 3400 4581 
L 4056 2263 
Q 4303 1400 4413 641 
Q 4500 1075 4641 1638 
L 5359 4581 
L 5969 4581 
L 4713 0 
L 4128 0 
L 3163 3491 
Q 3041 3928 3019 4028 
Q 2947 3713 2884 3491 
L 1913 0 
L 1294 0 
z
" transform="scale(0.015625)"/>
       <path id="ArialMT-67" d="M 319 -275 
L 866 -356 
Q 900 -609 1056 -725 
Q 1266 -881 1628 -881 
Q 2019 -881 2231 -725 
Q 2444 -569 2519 -288 
Q 2563 -116 2559 434 
Q 2191 0 1641 0 
Q 956 0 581 494 
Q 206 988 206 1678 
Q 206 2153 378 2554 
Q 550 2956 876 3175 
Q 1203 3394 1644 3394 
Q 2231 3394 2613 2919 
L 2613 3319 
L 3131 3319 
L 3131 450 
Q 3131 -325 2973 -648 
Q 2816 -972 2473 -1159 
Q 2131 -1347 1631 -1347 
Q 1038 -1347 672 -1080 
Q 306 -813 319 -275 
z
M 784 1719 
Q 784 1066 1043 766 
Q 1303 466 1694 466 
Q 2081 466 2343 764 
Q 2606 1063 2606 1700 
Q 2606 2309 2336 2618 
Q 2066 2928 1684 2928 
Q 1309 2928 1046 2623 
Q 784 2319 784 1719 
z
" transform="scale(0.015625)"/>
       <path id="DejaVuSans-Oblique-3c9" d="M 1369 -91 
Q 72 -91 434 1766 
Q 575 2500 1256 3500 
L 1875 3500 
Q 1231 2500 1088 1750 
Q 819 397 1519 397 
Q 2166 397 2478 2078 
L 3009 2078 
Q 2669 388 3316 397 
Q 4013 403 4275 1750 
Q 4419 2500 4169 3500 
L 4788 3500 
Q 5075 2500 4934 1766 
Q 4578 -94 3278 -91 
Q 2428 -88 2503 844 
Q 2194 -91 1369 -91 
z
" transform="scale(0.015625)"/>
      </defs>
      <use xlink:href="#ArialMT-45" transform="translate(0 0.529687)"/>
      <use xlink:href="#ArialMT-73" transform="translate(66.699219 0.529687)"/>
      <use xlink:href="#ArialMT-74" transform="translate(116.699219 0.529687)"/>
      <use xlink:href="#ArialMT-69" transform="translate(144.482422 0.529687)"/>
      <use xlink:href="#ArialMT-6d" transform="translate(166.699219 0.529687)"/>
      <use xlink:href="#ArialMT-61" transform="translate(250 0.529687)"/>
      <use xlink:href="#ArialMT-74" transform="translate(305.615234 0.529687)"/>
      <use xlink:href="#ArialMT-65" transform="translate(333.398438 0.529687)"/>
      <use xlink:href="#ArialMT-64" transform="translate(389.013672 0.529687)"/>
      <use xlink:href="#ArialMT-20" transform="translate(444.628906 0.529687)"/>
      <use xlink:href="#ArialMT-57" transform="translate(472.412109 0.529687)"/>
      <use xlink:href="#ArialMT-65" transform="translate(566.796875 0.529687)"/>
      <use xlink:href="#ArialMT-69" transform="translate(622.412109 0.529687)"/>
      <use xlink:href="#ArialMT-67" transform="translate(644.628906 0.529687)"/>
      <use xlink:href="#ArialMT-68" transform="translate(700.244141 0.529687)"/>
      <use xlink:href="#ArialMT-74" transform="translate(755.859375 0.529687)"/>
      <use xlink:href="#ArialMT-20" transform="translate(783.642578 0.529687)"/>
      <use xlink:href="#ArialMT-28" transform="translate(811.425781 0.529687)"/>
      <use xlink:href="#DejaVuSans-Oblique-3c9" transform="translate(844.726562 0.529687)"/>
      <use xlink:href="#DejaVuSans-28" transform="translate(932.932943 38.810938) scale(0.7)"/>
      <use xlink:href="#DejaVuSans-Oblique-6b" transform="translate(960.242513 38.810938) scale(0.7)"/>
      <use xlink:href="#DejaVuSans-29" transform="translate(1000.779622 38.810938) scale(0.7)"/>
      <use xlink:href="#DejaVuSans-Oblique-3b1" transform="translate(928.466797 -26.814063) scale(0.7)"/>
      <use xlink:href="#ArialMT-29" transform="translate(1030.823568 0.529687)"/>
     </g>
    </g>
   </g>
   <g id="PathCollection_1">
    <defs>
     <path id="ma507b62dc5" d="M 0 2.4 
C 0.636487 2.4 1.246992 2.147121 1.697056 1.697056 
C 2.147121 1.246992 2.4 0.636487 2.4 0 
C 2.4 -0.636487 2.147121 -1.246992 1.697056 -1.697056 
C 1.246992 -2.147121 0.636487 -2.4 0 -2.4 
C -0.636487 -2.4 -1.246992 -2.147121 -1.697056 -1.697056 
C -2.147121 -1.246992 -2.4 -0.636487 -2.4 0 
C -2.4 0.636487 -2.147121 1.246992 -1.697056 1.697056 
C -1.246992 2.147121 -0.636487 2.4 0 2.4 
z
" style="stroke: #0173b2; stroke-opacity: 0.8"/>
    </defs>
    <g clip-path="url(#p853cd87e4e)">
     <use xlink:href="#ma507b62dc5" x="94.614881" y="287.162298" style="fill: #0173b2; fill-opacity: 0.8; stroke: #0173b2; stroke-opacity: 0.8"/>
     <use xlink:href="#ma507b62dc5" x="109.2559" y="297.15588" style="fill: #0173b2; fill-opacity: 0.8; stroke: #0173b2; stroke-opacity: 0.8"/>
     <use xlink:href="#ma507b62dc5" x="144.123397" y="269.658006" style="fill: #0173b2; fill-opacity: 0.8; stroke: #0173b2; stroke-opacity: 0.8"/>
     <use xlink:href="#ma507b62dc5" x="169.917078" y="244.338208" style="fill: #0173b2; fill-opacity: 0.8; stroke: #0173b2; stroke-opacity: 0.8"/>
     <use xlink:href="#ma507b62dc5" x="173.336108" y="239.31646" style="fill: #0173b2; fill-opacity: 0.8; stroke: #0173b2; stroke-opacity: 0.8"/>
     <use xlink:href="#ma507b62dc5" x="194.543122" y="191.779519" style="fill: #0173b2; fill-opacity: 0.8; stroke: #0173b2; stroke-opacity: 0.8"/>
     <use xlink:href="#ma507b62dc5" x="200.899848" y="233.869547" style="fill: #0173b2; fill-opacity: 0.8; stroke: #0173b2; stroke-opacity: 0.8"/>
     <use xlink:href="#ma507b62dc5" x="204.309112" y="192.394607" style="fill: #0173b2; fill-opacity: 0.8; stroke: #0173b2; stroke-opacity: 0.8"/>
     <use xlink:href="#ma507b62dc5" x="256.853981" y="122.227191" style="fill: #0173b2; fill-opacity: 0.8; stroke: #0173b2; stroke-opacity: 0.8"/>
     <use xlink:href="#ma507b62dc5" x="280.060051" y="135.46517" style="fill: #0173b2; fill-opacity: 0.8; stroke: #0173b2; stroke-opacity: 0.8"/>
     <use xlink:href="#ma507b62dc5" x="307.549252" y="113.652232" style="fill: #0173b2; fill-opacity: 0.8; stroke: #0173b2; stroke-opacity: 0.8"/>
     <use xlink:href="#ma507b62dc5" x="318.422445" y="98.946683" style="fill: #0173b2; fill-opacity: 0.8; stroke: #0173b2; stroke-opacity: 0.8"/>
     <use xlink:href="#ma507b62dc5" x="318.574258" y="107.532697" style="fill: #0173b2; fill-opacity: 0.8; stroke: #0173b2; stroke-opacity: 0.8"/>
     <use xlink:href="#ma507b62dc5" x="319.588708" y="117.503162" style="fill: #0173b2; fill-opacity: 0.8; stroke: #0173b2; stroke-opacity: 0.8"/>
     <use xlink:href="#ma507b62dc5" x="383.805229" y="95.317973" style="fill: #0173b2; fill-opacity: 0.8; stroke: #0173b2; stroke-opacity: 0.8"/>
     <use xlink:href="#ma507b62dc5" x="394.473656" y="99.441158" style="fill: #0173b2; fill-opacity: 0.8; stroke: #0173b2; stroke-opacity: 0.8"/>
     <use xlink:href="#ma507b62dc5" x="454.479012" y="92.646939" style="fill: #0173b2; fill-opacity: 0.8; stroke: #0173b2; stroke-opacity: 0.8"/>
     <use xlink:href="#ma507b62dc5" x="462.398289" y="96.040082" style="fill: #0173b2; fill-opacity: 0.8; stroke: #0173b2; stroke-opacity: 0.8"/>
     <use xlink:href="#ma507b62dc5" x="481.243622" y="86.058089" style="fill: #0173b2; fill-opacity: 0.8; stroke: #0173b2; stroke-opacity: 0.8"/>
     <use xlink:href="#ma507b62dc5" x="565.951244" y="80.342727" style="fill: #0173b2; fill-opacity: 0.8; stroke: #0173b2; stroke-opacity: 0.8"/>
    </g>
   </g>
   <g id="PathCollection_2">
    <defs>
     <path id="m078cc21604" d="M 0 2.4 
C 0.636487 2.4 1.246992 2.147121 1.697056 1.697056 
C 2.147121 1.246992 2.4 0.636487 2.4 0 
C 2.4 -0.636487 2.147121 -1.246992 1.697056 -1.697056 
C 1.246992 -2.147121 0.636487 -2.4 0 -2.4 
C -0.636487 -2.4 -1.246992 -2.147121 -1.697056 -1.697056 
C -2.147121 -1.246992 -2.4 -0.636487 -2.4 0 
C -2.4 0.636487 -2.147121 1.246992 -1.697056 1.697056 
C -1.246992 2.147121 -0.636487 2.4 0 2.4 
z
" style="stroke: #de8f05; stroke-opacity: 0.8"/>
    </defs>
    <g clip-path="url(#p853cd87e4e)">
     <use xlink:href="#m078cc21604" x="94.614881" y="165.552711" style="fill: #de8f05; fill-opacity: 0.8; stroke: #de8f05; stroke-opacity: 0.8"/>
     <use xlink:href="#m078cc21604" x="109.2559" y="170.184828" style="fill: #de8f05; fill-opacity: 0.8; stroke: #de8f05; stroke-opacity: 0.8"/>
     <use xlink:href="#m078cc21604" x="144.123397" y="173.296743" style="fill: #de8f05; fill-opacity: 0.8; stroke: #de8f05; stroke-opacity: 0.8"/>
     <use xlink:href="#m078cc21604" x="169.917078" y="189.13043" style="fill: #de8f05; fill-opacity: 0.8; stroke: #de8f05; stroke-opacity: 0.8"/>
     <use xlink:href="#m078cc21604" x="173.336108" y="184.415907" style="fill: #de8f05; fill-opacity: 0.8; stroke: #de8f05; stroke-opacity: 0.8"/>
     <use xlink:href="#m078cc21604" x="194.543122" y="175.710635" style="fill: #de8f05; fill-opacity: 0.8; stroke: #de8f05; stroke-opacity: 0.8"/>
     <use xlink:href="#m078cc21604" x="200.899848" y="176.934848" style="fill: #de8f05; fill-opacity: 0.8; stroke: #de8f05; stroke-opacity: 0.8"/>
     <use xlink:href="#m078cc21604" x="204.309112" y="186.433315" style="fill: #de8f05; fill-opacity: 0.8; stroke: #de8f05; stroke-opacity: 0.8"/>
     <use xlink:href="#m078cc21604" x="256.853981" y="158.229979" style="fill: #de8f05; fill-opacity: 0.8; stroke: #de8f05; stroke-opacity: 0.8"/>
     <use xlink:href="#m078cc21604" x="280.060051" y="161.169305" style="fill: #de8f05; fill-opacity: 0.8; stroke: #de8f05; stroke-opacity: 0.8"/>
     <use xlink:href="#m078cc21604" x="307.549252" y="157.779247" style="fill: #de8f05; fill-opacity: 0.8; stroke: #de8f05; stroke-opacity: 0.8"/>
     <use xlink:href="#m078cc21604" x="318.422445" y="147.123273" style="fill: #de8f05; fill-opacity: 0.8; stroke: #de8f05; stroke-opacity: 0.8"/>
     <use xlink:href="#m078cc21604" x="318.574258" y="151.369536" style="fill: #de8f05; fill-opacity: 0.8; stroke: #de8f05; stroke-opacity: 0.8"/>
     <use xlink:href="#m078cc21604" x="319.588708" y="159.553855" style="fill: #de8f05; fill-opacity: 0.8; stroke: #de8f05; stroke-opacity: 0.8"/>
     <use xlink:href="#m078cc21604" x="383.805229" y="142.863252" style="fill: #de8f05; fill-opacity: 0.8; stroke: #de8f05; stroke-opacity: 0.8"/>
     <use xlink:href="#m078cc21604" x="394.473656" y="145.044985" style="fill: #de8f05; fill-opacity: 0.8; stroke: #de8f05; stroke-opacity: 0.8"/>
     <use xlink:href="#m078cc21604" x="454.479012" y="141.109154" style="fill: #de8f05; fill-opacity: 0.8; stroke: #de8f05; stroke-opacity: 0.8"/>
     <use xlink:href="#m078cc21604" x="462.398289" y="142.710265" style="fill: #de8f05; fill-opacity: 0.8; stroke: #de8f05; stroke-opacity: 0.8"/>
     <use xlink:href="#m078cc21604" x="481.243622" y="138.758533" style="fill: #de8f05; fill-opacity: 0.8; stroke: #de8f05; stroke-opacity: 0.8"/>
     <use xlink:href="#m078cc21604" x="565.951244" y="133.477822" style="fill: #de8f05; fill-opacity: 0.8; stroke: #de8f05; stroke-opacity: 0.8"/>
    </g>
   </g>
   <g id="PathCollection_3">
    <defs>
     <path id="m35376c360b" d="M 0 2.4 
C 0.636487 2.4 1.246992 2.147121 1.697056 1.697056 
C 2.147121 1.246992 2.4 0.636487 2.4 0 
C 2.4 -0.636487 2.147121 -1.246992 1.697056 -1.697056 
C 1.246992 -2.147121 0.636487 -2.4 0 -2.4 
C -0.636487 -2.4 -1.246992 -2.147121 -1.697056 -1.697056 
C -2.147121 -1.246992 -2.4 -0.636487 -2.4 0 
C -2.4 0.636487 -2.147121 1.246992 -1.697056 1.697056 
C -1.246992 2.147121 -0.636487 2.4 0 2.4 
z
" style="stroke: #029e73; stroke-opacity: 0.8"/>
    </defs>
    <g clip-path="url(#p853cd87e4e)">
     <use xlink:href="#m35376c360b" x="94.614881" y="160.145737" style="fill: #029e73; fill-opacity: 0.8; stroke: #029e73; stroke-opacity: 0.8"/>
     <use xlink:href="#m35376c360b" x="109.2559" y="160.221711" style="fill: #029e73; fill-opacity: 0.8; stroke: #029e73; stroke-opacity: 0.8"/>
     <use xlink:href="#m35376c360b" x="144.123397" y="160.081126" style="fill: #029e73; fill-opacity: 0.8; stroke: #029e73; stroke-opacity: 0.8"/>
     <use xlink:href="#m35376c360b" x="169.917078" y="160.062303" style="fill: #029e73; fill-opacity: 0.8; stroke: #029e73; stroke-opacity: 0.8"/>
     <use xlink:href="#m35376c360b" x="173.336108" y="160.055761" style="fill: #029e73; fill-opacity: 0.8; stroke: #029e73; stroke-opacity: 0.8"/>
     <use xlink:href="#m35376c360b" x="194.543122" y="160.170927" style="fill: #029e73; fill-opacity: 0.8; stroke: #029e73; stroke-opacity: 0.8"/>
     <use xlink:href="#m35376c360b" x="200.899848" y="160.019507" style="fill: #029e73; fill-opacity: 0.8; stroke: #029e73; stroke-opacity: 0.8"/>
     <use xlink:href="#m35376c360b" x="204.309112" y="160.082593" style="fill: #029e73; fill-opacity: 0.8; stroke: #029e73; stroke-opacity: 0.8"/>
     <use xlink:href="#m35376c360b" x="256.853981" y="160.049681" style="fill: #029e73; fill-opacity: 0.8; stroke: #029e73; stroke-opacity: 0.8"/>
     <use xlink:href="#m35376c360b" x="280.060051" y="160.007918" style="fill: #029e73; fill-opacity: 0.8; stroke: #029e73; stroke-opacity: 0.8"/>
     <use xlink:href="#m35376c360b" x="307.549252" y="160.023936" style="fill: #029e73; fill-opacity: 0.8; stroke: #029e73; stroke-opacity: 0.8"/>
     <use xlink:href="#m35376c360b" x="318.422445" y="159.9996" style="fill: #029e73; fill-opacity: 0.8; stroke: #029e73; stroke-opacity: 0.8"/>
     <use xlink:href="#m35376c360b" x="318.574258" y="159.997329" style="fill: #029e73; fill-opacity: 0.8; stroke: #029e73; stroke-opacity: 0.8"/>
     <use xlink:href="#m35376c360b" x="319.588708" y="159.995208" style="fill: #029e73; fill-opacity: 0.8; stroke: #029e73; stroke-opacity: 0.8"/>
     <use xlink:href="#m35376c360b" x="383.805229" y="160.007199" style="fill: #029e73; fill-opacity: 0.8; stroke: #029e73; stroke-opacity: 0.8"/>
     <use xlink:href="#m35376c360b" x="394.473656" y="159.982594" style="fill: #029e73; fill-opacity: 0.8; stroke: #029e73; stroke-opacity: 0.8"/>
     <use xlink:href="#m35376c360b" x="454.479012" y="159.986691" style="fill: #029e73; fill-opacity: 0.8; stroke: #029e73; stroke-opacity: 0.8"/>
     <use xlink:href="#m35376c360b" x="462.398289" y="159.989401" style="fill: #029e73; fill-opacity: 0.8; stroke: #029e73; stroke-opacity: 0.8"/>
     <use xlink:href="#m35376c360b" x="481.243622" y="159.987414" style="fill: #029e73; fill-opacity: 0.8; stroke: #029e73; stroke-opacity: 0.8"/>
     <use xlink:href="#m35376c360b" x="565.951244" y="159.981992" style="fill: #029e73; fill-opacity: 0.8; stroke: #029e73; stroke-opacity: 0.8"/>
    </g>
   </g>
   <g id="line2d_15">
    <path d="M 94.614881 314.48983 
L 99.375854 308.276402 
L 104.136827 302.157535 
L 108.897801 296.132807 
L 113.658774 290.201796 
L 118.419748 284.364079 
L 123.180721 278.619234 
L 127.941694 272.966839 
L 132.702668 267.40647 
L 137.463641 261.937707 
L 142.224614 256.560126 
L 146.985588 251.273305 
L 151.746561 246.076821 
L 156.507534 240.970253 
L 161.268508 235.953178 
L 166.029481 231.025174 
L 170.790455 226.185817 
L 175.551428 221.434686 
L 180.312401 216.771359 
L 185.073375 212.195413 
L 189.834348 207.706425 
L 194.595321 203.303974 
L 199.356295 198.987636 
L 204.117268 194.75699 
L 208.878242 190.611613 
L 213.639215 186.551084 
L 218.400188 182.574978 
L 223.161162 178.682874 
L 227.922135 174.87435 
L 232.683108 171.148984 
L 237.444082 167.506352 
L 242.205055 163.946033 
L 246.966029 160.467604 
L 251.727002 157.070642 
L 256.487975 153.754727 
L 261.248949 150.519434 
L 266.009922 147.364341 
L 270.770895 144.289028 
L 275.531869 141.293069 
L 280.292842 138.376045 
L 285.053815 135.537532 
L 289.814789 132.777107 
L 294.575762 130.094349 
L 299.336736 127.488835 
L 304.097709 124.960142 
L 308.858682 122.507849 
L 313.619656 120.131532 
L 318.380629 117.83077 
L 323.141602 115.605141 
L 327.902576 113.454221 
L 332.663549 111.377588 
L 337.424523 109.374821 
L 342.185496 107.445496 
L 346.946469 105.589191 
L 351.707443 103.805484 
L 356.468416 102.093953 
L 361.229389 100.454175 
L 365.990363 98.885728 
L 370.751336 97.388189 
L 375.51231 95.961136 
L 380.273283 94.604147 
L 385.034256 93.316799 
L 389.79523 92.098669 
L 394.556203 90.949337 
L 399.317176 89.868378 
L 404.07815 88.855372 
L 408.839123 87.909894 
L 413.600096 87.031524 
L 418.36107 86.219838 
L 423.122043 85.474415 
L 427.883017 84.794831 
L 432.64399 84.180665 
L 437.404963 83.631494 
L 442.165937 83.146896 
L 446.92691 82.726449 
L 451.687883 82.369729 
L 456.448857 82.076315 
L 461.20983 81.845784 
L 465.970804 81.677714 
L 470.731777 81.571682 
L 475.49275 81.527267 
L 480.253724 81.544045 
L 485.014697 81.621595 
L 489.77567 81.759494 
L 494.536644 81.957319 
L 499.297617 82.214649 
L 504.058591 82.531061 
L 508.819564 82.906132 
L 513.580537 83.33944 
L 518.341511 83.830563 
L 523.102484 84.379078 
L 527.863457 84.984563 
L 532.624431 85.646596 
L 537.385404 86.364755 
L 542.146377 87.138616 
L 546.907351 87.967757 
L 551.668324 88.851757 
L 556.429298 89.790192 
L 561.190271 90.782641 
L 565.951244 91.828681 
" clip-path="url(#p853cd87e4e)" style="fill: none; stroke: #0173b2; stroke-width: 1.8; stroke-linecap: round"/>
   </g>
   <g id="line2d_16">
    <path d="M 94.614881 171.48515 
L 99.375854 172.292572 
L 104.136827 173.030488 
L 108.897801 173.700334 
L 113.658774 174.303548 
L 118.419748 174.841564 
L 123.180721 175.31582 
L 127.941694 175.727751 
L 132.702668 176.078794 
L 137.463641 176.370385 
L 142.224614 176.60396 
L 146.985588 176.780956 
L 151.746561 176.902809 
L 156.507534 176.970954 
L 161.268508 176.98683 
L 166.029481 176.95187 
L 170.790455 176.867513 
L 175.551428 176.735193 
L 180.312401 176.556348 
L 185.073375 176.332414 
L 189.834348 176.064826 
L 194.595321 175.755022 
L 199.356295 175.404437 
L 204.117268 175.014507 
L 208.878242 174.586669 
L 213.639215 174.12236 
L 218.400188 173.623015 
L 223.161162 173.09007 
L 227.922135 172.524963 
L 232.683108 171.929128 
L 237.444082 171.304003 
L 242.205055 170.651024 
L 246.966029 169.971626 
L 251.727002 169.267247 
L 256.487975 168.539322 
L 261.248949 167.789287 
L 266.009922 167.01858 
L 270.770895 166.228636 
L 275.531869 165.420891 
L 280.292842 164.596782 
L 285.053815 163.757745 
L 289.814789 162.905216 
L 294.575762 162.040632 
L 299.336736 161.165428 
L 304.097709 160.281042 
L 308.858682 159.388908 
L 313.619656 158.490464 
L 318.380629 157.587146 
L 323.141602 156.680389 
L 327.902576 155.771631 
L 332.663549 154.862308 
L 337.424523 153.953855 
L 342.185496 153.047709 
L 346.946469 152.145307 
L 351.707443 151.248083 
L 356.468416 150.357476 
L 361.229389 149.474921 
L 365.990363 148.601854 
L 370.751336 147.739712 
L 375.51231 146.88993 
L 380.273283 146.053945 
L 385.034256 145.233194 
L 389.79523 144.429112 
L 394.556203 143.643136 
L 399.317176 142.876702 
L 404.07815 142.131247 
L 408.839123 141.408206 
L 413.600096 140.709016 
L 418.36107 140.035113 
L 423.122043 139.387933 
L 427.883017 138.768913 
L 432.64399 138.179488 
L 437.404963 137.621096 
L 442.165937 137.095172 
L 446.92691 136.603153 
L 451.687883 136.146475 
L 456.448857 135.726574 
L 461.20983 135.344886 
L 465.970804 135.002847 
L 470.731777 134.701895 
L 475.49275 134.443465 
L 480.253724 134.228993 
L 485.014697 134.059916 
L 489.77567 133.93767 
L 494.536644 133.863691 
L 499.297617 133.839415 
L 504.058591 133.866279 
L 508.819564 133.945719 
L 513.580537 134.079171 
L 518.341511 134.268071 
L 523.102484 134.513857 
L 527.863457 134.817963 
L 532.624431 135.181826 
L 537.385404 135.606883 
L 542.146377 136.094569 
L 546.907351 136.646322 
L 551.668324 137.263576 
L 556.429298 137.94777 
L 561.190271 138.700338 
L 565.951244 139.522716 
" clip-path="url(#p853cd87e4e)" style="fill: none; stroke: #de8f05; stroke-width: 1.8; stroke-linecap: round"/>
   </g>
   <g id="line2d_17">
    <path d="M 94.614881 160.176233 
L 99.375854 160.169932 
L 104.136827 160.163773 
L 108.897801 160.157755 
L 113.658774 160.151877 
L 118.419748 160.146137 
L 123.180721 160.140532 
L 127.941694 160.135062 
L 132.702668 160.129725 
L 137.463641 160.124519 
L 142.224614 160.119442 
L 146.985588 160.114494 
L 151.746561 160.109671 
L 156.507534 160.104972 
L 161.268508 160.100397 
L 166.029481 160.095942 
L 170.790455 160.091607 
L 175.551428 160.08739 
L 180.312401 160.083288 
L 185.073375 160.079301 
L 189.834348 160.075427 
L 194.595321 160.071664 
L 199.356295 160.06801 
L 204.117268 160.064464 
L 208.878242 160.061024 
L 213.639215 160.057689 
L 218.400188 160.054456 
L 223.161162 160.051324 
L 227.922135 160.048291 
L 232.683108 160.045357 
L 237.444082 160.042518 
L 242.205055 160.039773 
L 246.966029 160.037122 
L 251.727002 160.034561 
L 256.487975 160.03209 
L 261.248949 160.029706 
L 266.009922 160.027409 
L 270.770895 160.025195 
L 275.531869 160.023065 
L 280.292842 160.021015 
L 285.053815 160.019045 
L 289.814789 160.017152 
L 294.575762 160.015336 
L 299.336736 160.013594 
L 304.097709 160.011924 
L 308.858682 160.010326 
L 313.619656 160.008796 
L 318.380629 160.007335 
L 323.141602 160.005939 
L 327.902576 160.004608 
L 332.663549 160.003339 
L 337.424523 160.002131 
L 342.185496 160.000983 
L 346.946469 159.999892 
L 351.707443 159.998857 
L 356.468416 159.997877 
L 361.229389 159.996949 
L 365.990363 159.996072 
L 370.751336 159.995245 
L 375.51231 159.994465 
L 380.273283 159.993731 
L 385.034256 159.993041 
L 389.79523 159.992394 
L 394.556203 159.991787 
L 399.317176 159.99122 
L 404.07815 159.990691 
L 408.839123 159.990198 
L 413.600096 159.989738 
L 418.36107 159.989312 
L 423.122043 159.988916 
L 427.883017 159.98855 
L 432.64399 159.988211 
L 437.404963 159.987898 
L 442.165937 159.987609 
L 446.92691 159.987343 
L 451.687883 159.987098 
L 456.448857 159.986872 
L 461.20983 159.986664 
L 465.970804 159.986471 
L 470.731777 159.986293 
L 475.49275 159.986127 
L 480.253724 159.985972 
L 485.014697 159.985827 
L 489.77567 159.985689 
L 494.536644 159.985556 
L 499.297617 159.985428 
L 504.058591 159.985303 
L 508.819564 159.985178 
L 513.580537 159.985053 
L 518.341511 159.984925 
L 523.102484 159.984793 
L 527.863457 159.984655 
L 532.624431 159.98451 
L 537.385404 159.984356 
L 542.146377 159.984191 
L 546.907351 159.984013 
L 551.668324 159.983821 
L 556.429298 159.983613 
L 561.190271 159.983388 
L 565.951244 159.983144 
" clip-path="url(#p853cd87e4e)" style="fill: none; stroke: #029e73; stroke-width: 1.8; stroke-linecap: round"/>
   </g>
   <g id="patch_3">
    <path d="M 71.048063 368.436 
L 71.048063 66.624 
" style="fill: none; stroke: #ffffff; stroke-linejoin: miter; stroke-linecap: square"/>
   </g>
   <g id="patch_4">
    <path d="M 71.048063 368.436 
L 589.518063 368.436 
" style="fill: none; stroke: #ffffff; stroke-linejoin: miter; stroke-linecap: square"/>
   </g>
   <g id="text_17">
    <!-- kr-vs-kp -->
    <g style="fill: #262626" transform="translate(302.272813 60.624) scale(0.144 -0.144)">
     <defs>
      <path id="Arial-BoldMT-6b" d="M 428 0 
L 428 4581 
L 1306 4581 
L 1306 2150 
L 2334 3319 
L 3416 3319 
L 2281 2106 
L 3497 0 
L 2550 0 
L 1716 1491 
L 1306 1063 
L 1306 0 
L 428 0 
z
" transform="scale(0.015625)"/>
      <path id="Arial-BoldMT-72" d="M 1300 0 
L 422 0 
L 422 3319 
L 1238 3319 
L 1238 2847 
Q 1447 3181 1614 3287 
Q 1781 3394 1994 3394 
Q 2294 3394 2572 3228 
L 2300 2463 
Q 2078 2606 1888 2606 
Q 1703 2606 1575 2504 
Q 1447 2403 1373 2137 
Q 1300 1872 1300 1025 
L 1300 0 
z
" transform="scale(0.015625)"/>
      <path id="Arial-BoldMT-2d" d="M 359 1222 
L 359 2100 
L 2084 2100 
L 2084 1222 
L 359 1222 
z
" transform="scale(0.015625)"/>
      <path id="Arial-BoldMT-76" d="M 1372 0 
L 34 3319 
L 956 3319 
L 1581 1625 
L 1763 1059 
Q 1834 1275 1853 1344 
Q 1897 1484 1947 1625 
L 2578 3319 
L 3481 3319 
L 2163 0 
L 1372 0 
z
" transform="scale(0.015625)"/>
      <path id="Arial-BoldMT-73" d="M 150 947 
L 1031 1081 
Q 1088 825 1259 692 
Q 1431 559 1741 559 
Q 2081 559 2253 684 
Q 2369 772 2369 919 
Q 2369 1019 2306 1084 
Q 2241 1147 2013 1200 
Q 950 1434 666 1628 
Q 272 1897 272 2375 
Q 272 2806 612 3100 
Q 953 3394 1669 3394 
Q 2350 3394 2681 3172 
Q 3013 2950 3138 2516 
L 2309 2363 
Q 2256 2556 2107 2659 
Q 1959 2763 1684 2763 
Q 1338 2763 1188 2666 
Q 1088 2597 1088 2488 
Q 1088 2394 1175 2328 
Q 1294 2241 1995 2081 
Q 2697 1922 2975 1691 
Q 3250 1456 3250 1038 
Q 3250 581 2869 253 
Q 2488 -75 1741 -75 
Q 1063 -75 667 200 
Q 272 475 150 947 
z
" transform="scale(0.015625)"/>
      <path id="Arial-BoldMT-70" d="M 434 3319 
L 1253 3319 
L 1253 2831 
Q 1413 3081 1684 3237 
Q 1956 3394 2288 3394 
Q 2866 3394 3269 2941 
Q 3672 2488 3672 1678 
Q 3672 847 3265 386 
Q 2859 -75 2281 -75 
Q 2006 -75 1782 34 
Q 1559 144 1313 409 
L 1313 -1263 
L 434 -1263 
L 434 3319 
z
M 1303 1716 
Q 1303 1156 1525 889 
Q 1747 622 2066 622 
Q 2372 622 2575 867 
Q 2778 1113 2778 1672 
Q 2778 2194 2568 2447 
Q 2359 2700 2050 2700 
Q 1728 2700 1515 2451 
Q 1303 2203 1303 1716 
z
" transform="scale(0.015625)"/>
     </defs>
     <use xlink:href="#Arial-BoldMT-6b"/>
     <use xlink:href="#Arial-BoldMT-72" x="55.615234"/>
     <use xlink:href="#Arial-BoldMT-2d" x="94.53125"/>
     <use xlink:href="#Arial-BoldMT-76" x="127.832031"/>
     <use xlink:href="#Arial-BoldMT-73" x="183.447266"/>
     <use xlink:href="#Arial-BoldMT-2d" x="239.0625"/>
     <use xlink:href="#Arial-BoldMT-6b" x="272.363281"/>
     <use xlink:href="#Arial-BoldMT-70" x="327.978516"/>
    </g>
   </g>
  </g>
  <g id="axes_2">
   <g id="patch_5">
    <path d="M 605.070062 368.436 
L 1123.540063 368.436 
L 1123.540063 66.624 
L 605.070062 66.624 
z
" style="fill: #eaeaf2"/>
   </g>
   <g id="matplotlib.axis_3">
    <g id="xtick_7">
     <g id="line2d_18">
      <path d="M 628.575481 368.436 
L 628.575481 66.624 
" clip-path="url(#p0062ed02fa)" style="fill: none; stroke: #ffffff; stroke-width: 0.8; stroke-linecap: round"/>
     </g>
     <g id="text_18">
      <!-- 0.4 -->
      <g style="fill: #262626" transform="translate(619.401481 386.184312) scale(0.132 -0.132)">
       <use xlink:href="#ArialMT-30"/>
       <use xlink:href="#ArialMT-2e" x="55.615234"/>
       <use xlink:href="#ArialMT-34" x="83.398438"/>
      </g>
     </g>
    </g>
    <g id="xtick_8">
     <g id="line2d_19">
      <path d="M 718.046764 368.436 
L 718.046764 66.624 
" clip-path="url(#p0062ed02fa)" style="fill: none; stroke: #ffffff; stroke-width: 0.8; stroke-linecap: round"/>
     </g>
     <g id="text_19">
      <!-- 0.5 -->
      <g style="fill: #262626" transform="translate(708.872764 386.184312) scale(0.132 -0.132)">
       <use xlink:href="#ArialMT-30"/>
       <use xlink:href="#ArialMT-2e" x="55.615234"/>
       <use xlink:href="#ArialMT-35" x="83.398438"/>
      </g>
     </g>
    </g>
    <g id="xtick_9">
     <g id="line2d_20">
      <path d="M 807.518048 368.436 
L 807.518048 66.624 
" clip-path="url(#p0062ed02fa)" style="fill: none; stroke: #ffffff; stroke-width: 0.8; stroke-linecap: round"/>
     </g>
     <g id="text_20">
      <!-- 0.6 -->
      <g style="fill: #262626" transform="translate(798.344048 386.184312) scale(0.132 -0.132)">
       <use xlink:href="#ArialMT-30"/>
       <use xlink:href="#ArialMT-2e" x="55.615234"/>
       <use xlink:href="#ArialMT-36" x="83.398438"/>
      </g>
     </g>
    </g>
    <g id="xtick_10">
     <g id="line2d_21">
      <path d="M 896.989331 368.436 
L 896.989331 66.624 
" clip-path="url(#p0062ed02fa)" style="fill: none; stroke: #ffffff; stroke-width: 0.8; stroke-linecap: round"/>
     </g>
     <g id="text_21">
      <!-- 0.7 -->
      <g style="fill: #262626" transform="translate(887.815331 386.184312) scale(0.132 -0.132)">
       <use xlink:href="#ArialMT-30"/>
       <use xlink:href="#ArialMT-2e" x="55.615234"/>
       <use xlink:href="#ArialMT-37" x="83.398438"/>
      </g>
     </g>
    </g>
    <g id="xtick_11">
     <g id="line2d_22">
      <path d="M 986.460614 368.436 
L 986.460614 66.624 
" clip-path="url(#p0062ed02fa)" style="fill: none; stroke: #ffffff; stroke-width: 0.8; stroke-linecap: round"/>
     </g>
     <g id="text_22">
      <!-- 0.8 -->
      <g style="fill: #262626" transform="translate(977.286614 386.184312) scale(0.132 -0.132)">
       <use xlink:href="#ArialMT-30"/>
       <use xlink:href="#ArialMT-2e" x="55.615234"/>
       <use xlink:href="#ArialMT-38" x="83.398438"/>
      </g>
     </g>
    </g>
    <g id="xtick_12">
     <g id="line2d_23">
      <path d="M 1075.931897 368.436 
L 1075.931897 66.624 
" clip-path="url(#p0062ed02fa)" style="fill: none; stroke: #ffffff; stroke-width: 0.8; stroke-linecap: round"/>
     </g>
     <g id="text_23">
      <!-- 0.9 -->
      <g style="fill: #262626" transform="translate(1066.757897 386.184312) scale(0.132 -0.132)">
       <use xlink:href="#ArialMT-30"/>
       <use xlink:href="#ArialMT-2e" x="55.615234"/>
       <use xlink:href="#ArialMT-39" x="83.398438"/>
      </g>
     </g>
    </g>
    <g id="text_24">
     <!-- Probability Threshold ($\pi_\alpha^{(k)}$) -->
     <g style="fill: #262626" transform="translate(774.530063 406.607812) scale(0.15 -0.15)">
      <use xlink:href="#ArialMT-50" transform="translate(0 0.529687)"/>
      <use xlink:href="#ArialMT-72" transform="translate(66.699219 0.529687)"/>
      <use xlink:href="#ArialMT-6f" transform="translate(100 0.529687)"/>
      <use xlink:href="#ArialMT-62" transform="translate(155.615234 0.529687)"/>
      <use xlink:href="#ArialMT-61" transform="translate(211.230469 0.529687)"/>
      <use xlink:href="#ArialMT-62" transform="translate(266.845703 0.529687)"/>
      <use xlink:href="#ArialMT-69" transform="translate(322.460938 0.529687)"/>
      <use xlink:href="#ArialMT-6c" transform="translate(344.677734 0.529687)"/>
      <use xlink:href="#ArialMT-69" transform="translate(366.894531 0.529687)"/>
      <use xlink:href="#ArialMT-74" transform="translate(389.111328 0.529687)"/>
      <use xlink:href="#ArialMT-79" transform="translate(416.894531 0.529687)"/>
      <use xlink:href="#ArialMT-20" transform="translate(466.894531 0.529687)"/>
      <use xlink:href="#ArialMT-54" transform="translate(494.677734 0.529687)"/>
      <use xlink:href="#ArialMT-68" transform="translate(555.761719 0.529687)"/>
      <use xlink:href="#ArialMT-72" transform="translate(611.376953 0.529687)"/>
      <use xlink:href="#ArialMT-65" transform="translate(644.677734 0.529687)"/>
      <use xlink:href="#ArialMT-73" transform="translate(700.292969 0.529687)"/>
      <use xlink:href="#ArialMT-68" transform="translate(750.292969 0.529687)"/>
      <use xlink:href="#ArialMT-6f" transform="translate(805.908203 0.529687)"/>
      <use xlink:href="#ArialMT-6c" transform="translate(861.523438 0.529687)"/>
      <use xlink:href="#ArialMT-64" transform="translate(883.740234 0.529687)"/>
      <use xlink:href="#ArialMT-20" transform="translate(939.355469 0.529687)"/>
      <use xlink:href="#ArialMT-28" transform="translate(967.138672 0.529687)"/>
      <use xlink:href="#DejaVuSans-Oblique-3c0" transform="translate(1000.439453 0.529687)"/>
      <use xlink:href="#DejaVuSans-28" transform="translate(1065.110677 38.810938) scale(0.7)"/>
      <use xlink:href="#DejaVuSans-Oblique-6b" transform="translate(1092.420247 38.810938) scale(0.7)"/>
      <use xlink:href="#DejaVuSans-29" transform="translate(1132.957357 38.810938) scale(0.7)"/>
      <use xlink:href="#DejaVuSans-Oblique-3b1" transform="translate(1060.644531 -26.814063) scale(0.7)"/>
      <use xlink:href="#ArialMT-29" transform="translate(1163.001302 0.529687)"/>
     </g>
    </g>
   </g>
   <g id="matplotlib.axis_4">
    <g id="ytick_9">
     <g id="line2d_24">
      <path d="M 605.070062 360.265724 
L 1123.540063 360.265724 
" clip-path="url(#p0062ed02fa)" style="fill: none; stroke: #ffffff; stroke-width: 0.8; stroke-linecap: round"/>
     </g>
    </g>
    <g id="ytick_10">
     <g id="line2d_25">
      <path d="M 605.070062 320.221065 
L 1123.540063 320.221065 
" clip-path="url(#p0062ed02fa)" style="fill: none; stroke: #ffffff; stroke-width: 0.8; stroke-linecap: round"/>
     </g>
    </g>
    <g id="ytick_11">
     <g id="line2d_26">
      <path d="M 605.070062 280.176407 
L 1123.540063 280.176407 
" clip-path="url(#p0062ed02fa)" style="fill: none; stroke: #ffffff; stroke-width: 0.8; stroke-linecap: round"/>
     </g>
    </g>
    <g id="ytick_12">
     <g id="line2d_27">
      <path d="M 605.070062 240.131748 
L 1123.540063 240.131748 
" clip-path="url(#p0062ed02fa)" style="fill: none; stroke: #ffffff; stroke-width: 0.8; stroke-linecap: round"/>
     </g>
    </g>
    <g id="ytick_13">
     <g id="line2d_28">
      <path d="M 605.070062 200.08709 
L 1123.540063 200.08709 
" clip-path="url(#p0062ed02fa)" style="fill: none; stroke: #ffffff; stroke-width: 0.8; stroke-linecap: round"/>
     </g>
    </g>
    <g id="ytick_14">
     <g id="line2d_29">
      <path d="M 605.070062 160.042431 
L 1123.540063 160.042431 
" clip-path="url(#p0062ed02fa)" style="fill: none; stroke: #ffffff; stroke-width: 0.8; stroke-linecap: round"/>
     </g>
    </g>
    <g id="ytick_15">
     <g id="line2d_30">
      <path d="M 605.070062 119.997773 
L 1123.540063 119.997773 
" clip-path="url(#p0062ed02fa)" style="fill: none; stroke: #ffffff; stroke-width: 0.8; stroke-linecap: round"/>
     </g>
    </g>
    <g id="ytick_16">
     <g id="line2d_31">
      <path d="M 605.070062 79.953114 
L 1123.540063 79.953114 
" clip-path="url(#p0062ed02fa)" style="fill: none; stroke: #ffffff; stroke-width: 0.8; stroke-linecap: round"/>
     </g>
    </g>
   </g>
   <g id="PathCollection_4">
    <g clip-path="url(#p0062ed02fa)">
     <use xlink:href="#ma507b62dc5" x="628.636881" y="319.434443" style="fill: #0173b2; fill-opacity: 0.8; stroke: #0173b2; stroke-opacity: 0.8"/>
     <use xlink:href="#ma507b62dc5" x="643.2779" y="312.53483" style="fill: #0173b2; fill-opacity: 0.8; stroke: #0173b2; stroke-opacity: 0.8"/>
     <use xlink:href="#ma507b62dc5" x="678.145397" y="303.075945" style="fill: #0173b2; fill-opacity: 0.8; stroke: #0173b2; stroke-opacity: 0.8"/>
     <use xlink:href="#ma507b62dc5" x="703.939078" y="275.872251" style="fill: #0173b2; fill-opacity: 0.8; stroke: #0173b2; stroke-opacity: 0.8"/>
     <use xlink:href="#ma507b62dc5" x="707.358108" y="283.781392" style="fill: #0173b2; fill-opacity: 0.8; stroke: #0173b2; stroke-opacity: 0.8"/>
     <use xlink:href="#ma507b62dc5" x="728.565122" y="201.003892" style="fill: #0173b2; fill-opacity: 0.8; stroke: #0173b2; stroke-opacity: 0.8"/>
     <use xlink:href="#ma507b62dc5" x="734.921848" y="166.614141" style="fill: #0173b2; fill-opacity: 0.8; stroke: #0173b2; stroke-opacity: 0.8"/>
     <use xlink:href="#ma507b62dc5" x="738.331112" y="166.719304" style="fill: #0173b2; fill-opacity: 0.8; stroke: #0173b2; stroke-opacity: 0.8"/>
     <use xlink:href="#ma507b62dc5" x="790.875981" y="111.141936" style="fill: #0173b2; fill-opacity: 0.8; stroke: #0173b2; stroke-opacity: 0.8"/>
     <use xlink:href="#ma507b62dc5" x="814.082051" y="100.840193" style="fill: #0173b2; fill-opacity: 0.8; stroke: #0173b2; stroke-opacity: 0.8"/>
     <use xlink:href="#ma507b62dc5" x="841.571252" y="96.729333" style="fill: #0173b2; fill-opacity: 0.8; stroke: #0173b2; stroke-opacity: 0.8"/>
     <use xlink:href="#ma507b62dc5" x="852.444445" y="101.858214" style="fill: #0173b2; fill-opacity: 0.8; stroke: #0173b2; stroke-opacity: 0.8"/>
     <use xlink:href="#ma507b62dc5" x="852.596258" y="98.358669" style="fill: #0173b2; fill-opacity: 0.8; stroke: #0173b2; stroke-opacity: 0.8"/>
     <use xlink:href="#ma507b62dc5" x="853.610708" y="98.033701" style="fill: #0173b2; fill-opacity: 0.8; stroke: #0173b2; stroke-opacity: 0.8"/>
     <use xlink:href="#ma507b62dc5" x="917.827229" y="94.996803" style="fill: #0173b2; fill-opacity: 0.8; stroke: #0173b2; stroke-opacity: 0.8"/>
     <use xlink:href="#ma507b62dc5" x="928.495656" y="95.371458" style="fill: #0173b2; fill-opacity: 0.8; stroke: #0173b2; stroke-opacity: 0.8"/>
     <use xlink:href="#ma507b62dc5" x="988.501012" y="93.587448" style="fill: #0173b2; fill-opacity: 0.8; stroke: #0173b2; stroke-opacity: 0.8"/>
     <use xlink:href="#ma507b62dc5" x="996.420289" y="94.497475" style="fill: #0173b2; fill-opacity: 0.8; stroke: #0173b2; stroke-opacity: 0.8"/>
     <use xlink:href="#ma507b62dc5" x="1015.265622" y="92.639895" style="fill: #0173b2; fill-opacity: 0.8; stroke: #0173b2; stroke-opacity: 0.8"/>
     <use xlink:href="#ma507b62dc5" x="1099.973244" y="93.757305" style="fill: #0173b2; fill-opacity: 0.8; stroke: #0173b2; stroke-opacity: 0.8"/>
    </g>
   </g>
   <g id="PathCollection_5">
    <g clip-path="url(#p0062ed02fa)">
     <use xlink:href="#m078cc21604" x="628.636881" y="149.159177" style="fill: #de8f05; fill-opacity: 0.8; stroke: #de8f05; stroke-opacity: 0.8"/>
     <use xlink:href="#m078cc21604" x="643.2779" y="153.464888" style="fill: #de8f05; fill-opacity: 0.8; stroke: #de8f05; stroke-opacity: 0.8"/>
     <use xlink:href="#m078cc21604" x="678.145397" y="180.47005" style="fill: #de8f05; fill-opacity: 0.8; stroke: #de8f05; stroke-opacity: 0.8"/>
     <use xlink:href="#m078cc21604" x="703.939078" y="204.528803" style="fill: #de8f05; fill-opacity: 0.8; stroke: #de8f05; stroke-opacity: 0.8"/>
     <use xlink:href="#m078cc21604" x="707.358108" y="190.67033" style="fill: #de8f05; fill-opacity: 0.8; stroke: #de8f05; stroke-opacity: 0.8"/>
     <use xlink:href="#m078cc21604" x="728.565122" y="200.223053" style="fill: #de8f05; fill-opacity: 0.8; stroke: #de8f05; stroke-opacity: 0.8"/>
     <use xlink:href="#m078cc21604" x="734.921848" y="185.726742" style="fill: #de8f05; fill-opacity: 0.8; stroke: #de8f05; stroke-opacity: 0.8"/>
     <use xlink:href="#m078cc21604" x="738.331112" y="179.695289" style="fill: #de8f05; fill-opacity: 0.8; stroke: #de8f05; stroke-opacity: 0.8"/>
     <use xlink:href="#m078cc21604" x="790.875981" y="152.657482" style="fill: #de8f05; fill-opacity: 0.8; stroke: #de8f05; stroke-opacity: 0.8"/>
     <use xlink:href="#m078cc21604" x="814.082051" y="148.577171" style="fill: #de8f05; fill-opacity: 0.8; stroke: #de8f05; stroke-opacity: 0.8"/>
     <use xlink:href="#m078cc21604" x="841.571252" y="146.376489" style="fill: #de8f05; fill-opacity: 0.8; stroke: #de8f05; stroke-opacity: 0.8"/>
     <use xlink:href="#m078cc21604" x="852.444445" y="149.819069" style="fill: #de8f05; fill-opacity: 0.8; stroke: #de8f05; stroke-opacity: 0.8"/>
     <use xlink:href="#m078cc21604" x="852.596258" y="146.842043" style="fill: #de8f05; fill-opacity: 0.8; stroke: #de8f05; stroke-opacity: 0.8"/>
     <use xlink:href="#m078cc21604" x="853.610708" y="146.809545" style="fill: #de8f05; fill-opacity: 0.8; stroke: #de8f05; stroke-opacity: 0.8"/>
     <use xlink:href="#m078cc21604" x="917.827229" y="144.559197" style="fill: #de8f05; fill-opacity: 0.8; stroke: #de8f05; stroke-opacity: 0.8"/>
     <use xlink:href="#m078cc21604" x="928.495656" y="145.270238" style="fill: #de8f05; fill-opacity: 0.8; stroke: #de8f05; stroke-opacity: 0.8"/>
     <use xlink:href="#m078cc21604" x="988.501012" y="143.980125" style="fill: #de8f05; fill-opacity: 0.8; stroke: #de8f05; stroke-opacity: 0.8"/>
     <use xlink:href="#m078cc21604" x="996.420289" y="144.637486" style="fill: #de8f05; fill-opacity: 0.8; stroke: #de8f05; stroke-opacity: 0.8"/>
     <use xlink:href="#m078cc21604" x="1015.265622" y="143.296432" style="fill: #de8f05; fill-opacity: 0.8; stroke: #de8f05; stroke-opacity: 0.8"/>
     <use xlink:href="#m078cc21604" x="1099.973244" y="144.085019" style="fill: #de8f05; fill-opacity: 0.8; stroke: #de8f05; stroke-opacity: 0.8"/>
    </g>
   </g>
   <g id="PathCollection_6">
    <g clip-path="url(#p0062ed02fa)">
     <use xlink:href="#m35376c360b" x="628.636881" y="160.120425" style="fill: #029e73; fill-opacity: 0.8; stroke: #029e73; stroke-opacity: 0.8"/>
     <use xlink:href="#m35376c360b" x="643.2779" y="160.055966" style="fill: #029e73; fill-opacity: 0.8; stroke: #029e73; stroke-opacity: 0.8"/>
     <use xlink:href="#m35376c360b" x="678.145397" y="160.078124" style="fill: #029e73; fill-opacity: 0.8; stroke: #029e73; stroke-opacity: 0.8"/>
     <use xlink:href="#m35376c360b" x="703.939078" y="160.06816" style="fill: #029e73; fill-opacity: 0.8; stroke: #029e73; stroke-opacity: 0.8"/>
     <use xlink:href="#m35376c360b" x="707.358108" y="160.076548" style="fill: #029e73; fill-opacity: 0.8; stroke: #029e73; stroke-opacity: 0.8"/>
     <use xlink:href="#m35376c360b" x="728.565122" y="160.036496" style="fill: #029e73; fill-opacity: 0.8; stroke: #029e73; stroke-opacity: 0.8"/>
     <use xlink:href="#m35376c360b" x="734.921848" y="160.098059" style="fill: #029e73; fill-opacity: 0.8; stroke: #029e73; stroke-opacity: 0.8"/>
     <use xlink:href="#m35376c360b" x="738.331112" y="160.026177" style="fill: #029e73; fill-opacity: 0.8; stroke: #029e73; stroke-opacity: 0.8"/>
     <use xlink:href="#m35376c360b" x="790.875981" y="160.081285" style="fill: #029e73; fill-opacity: 0.8; stroke: #029e73; stroke-opacity: 0.8"/>
     <use xlink:href="#m35376c360b" x="814.082051" y="160.025835" style="fill: #029e73; fill-opacity: 0.8; stroke: #029e73; stroke-opacity: 0.8"/>
     <use xlink:href="#m35376c360b" x="841.571252" y="160.012799" style="fill: #029e73; fill-opacity: 0.8; stroke: #029e73; stroke-opacity: 0.8"/>
     <use xlink:href="#m35376c360b" x="852.444445" y="160.01329" style="fill: #029e73; fill-opacity: 0.8; stroke: #029e73; stroke-opacity: 0.8"/>
     <use xlink:href="#m35376c360b" x="852.596258" y="160.044584" style="fill: #029e73; fill-opacity: 0.8; stroke: #029e73; stroke-opacity: 0.8"/>
     <use xlink:href="#m35376c360b" x="853.610708" y="160.019811" style="fill: #029e73; fill-opacity: 0.8; stroke: #029e73; stroke-opacity: 0.8"/>
     <use xlink:href="#m35376c360b" x="917.827229" y="160.013561" style="fill: #029e73; fill-opacity: 0.8; stroke: #029e73; stroke-opacity: 0.8"/>
     <use xlink:href="#m35376c360b" x="928.495656" y="160.043975" style="fill: #029e73; fill-opacity: 0.8; stroke: #029e73; stroke-opacity: 0.8"/>
     <use xlink:href="#m35376c360b" x="988.501012" y="160.008489" style="fill: #029e73; fill-opacity: 0.8; stroke: #029e73; stroke-opacity: 0.8"/>
     <use xlink:href="#m35376c360b" x="996.420289" y="160.010297" style="fill: #029e73; fill-opacity: 0.8; stroke: #029e73; stroke-opacity: 0.8"/>
     <use xlink:href="#m35376c360b" x="1015.265622" y="160.00827" style="fill: #029e73; fill-opacity: 0.8; stroke: #029e73; stroke-opacity: 0.8"/>
     <use xlink:href="#m35376c360b" x="1099.973244" y="160.006473" style="fill: #029e73; fill-opacity: 0.8; stroke: #029e73; stroke-opacity: 0.8"/>
    </g>
   </g>
   <g id="line2d_32">
    <path d="M 628.636881 354.717273 
L 633.397854 345.482817 
L 638.158827 336.445246 
L 642.919801 327.602714 
L 647.680774 318.953373 
L 652.441748 310.495375 
L 657.202721 302.226873 
L 661.963694 294.146019 
L 666.724668 286.250966 
L 671.485641 278.539867 
L 676.246614 271.010873 
L 681.007588 263.662138 
L 685.768561 256.491814 
L 690.529534 249.498053 
L 695.290508 242.679009 
L 700.051481 236.032833 
L 704.812455 229.557677 
L 709.573428 223.251696 
L 714.334401 217.113041 
L 719.095375 211.139864 
L 723.856348 205.330318 
L 728.617321 199.682556 
L 733.378295 194.19473 
L 738.139268 188.864993 
L 742.900242 183.691497 
L 747.661215 178.672394 
L 752.422188 173.805838 
L 757.183162 169.089981 
L 761.944135 164.522975 
L 766.705108 160.102973 
L 771.466082 155.828127 
L 776.227055 151.69659 
L 780.988029 147.706514 
L 785.749002 143.856052 
L 790.509975 140.143356 
L 795.270949 136.56658 
L 800.031922 133.123875 
L 804.792895 129.813393 
L 809.553869 126.633289 
L 814.314842 123.581713 
L 819.075815 120.656819 
L 823.836789 117.856758 
L 828.597762 115.179685 
L 833.358736 112.62375 
L 838.119709 110.187107 
L 842.880682 107.867908 
L 847.641656 105.664305 
L 852.402629 103.574452 
L 857.163602 101.596501 
L 861.924576 99.728603 
L 866.685549 97.968913 
L 871.446523 96.315581 
L 876.207496 94.766761 
L 880.968469 93.320606 
L 885.729443 91.975267 
L 890.490416 90.728898 
L 895.251389 89.57965 
L 900.012363 88.525677 
L 904.773336 87.56513 
L 909.53431 86.696163 
L 914.295283 85.916928 
L 919.056256 85.225577 
L 923.81723 84.620264 
L 928.578203 84.099139 
L 933.339176 83.660357 
L 938.10015 83.302069 
L 942.861123 83.022428 
L 947.622096 82.819586 
L 952.38307 82.691697 
L 957.144043 82.636912 
L 961.905017 82.653384 
L 966.66599 82.739266 
L 971.426963 82.89271 
L 976.187937 83.111869 
L 980.94891 83.394895 
L 985.709883 83.73994 
L 990.470857 84.145158 
L 995.23183 84.6087 
L 999.992804 85.12872 
L 1004.753777 85.703369 
L 1009.51475 86.330801 
L 1014.275724 87.009167 
L 1019.036697 87.736621 
L 1023.79767 88.511314 
L 1028.558644 89.3314 
L 1033.319617 90.195031 
L 1038.080591 91.100359 
L 1042.841564 92.045537 
L 1047.602537 93.028718 
L 1052.363511 94.048053 
L 1057.124484 95.101696 
L 1061.885457 96.187799 
L 1066.646431 97.304515 
L 1071.407404 98.449995 
L 1076.168377 99.622393 
L 1080.929351 100.819861 
L 1085.690324 102.040552 
L 1090.451298 103.282617 
L 1095.212271 104.544211 
L 1099.973244 105.823484 
" clip-path="url(#p0062ed02fa)" style="fill: none; stroke: #0173b2; stroke-width: 1.8; stroke-linecap: round"/>
   </g>
   <g id="line2d_33">
    <path d="M 628.636881 162.52161 
L 633.397854 164.381976 
L 638.158827 166.115211 
L 642.919801 167.724035 
L 647.680774 169.211171 
L 652.441748 170.579339 
L 657.202721 171.831261 
L 661.963694 172.969659 
L 666.724668 173.997253 
L 671.485641 174.916766 
L 676.246614 175.730918 
L 681.007588 176.442431 
L 685.768561 177.054027 
L 690.529534 177.568427 
L 695.290508 177.988352 
L 700.051481 178.316523 
L 704.812455 178.555663 
L 709.573428 178.708492 
L 714.334401 178.777732 
L 719.095375 178.766105 
L 723.856348 178.676331 
L 728.617321 178.511132 
L 733.378295 178.27323 
L 738.139268 177.965346 
L 742.900242 177.590202 
L 747.661215 177.150518 
L 752.422188 176.649016 
L 757.183162 176.088418 
L 761.944135 175.471445 
L 766.705108 174.800818 
L 771.466082 174.07926 
L 776.227055 173.30949 
L 780.988029 172.494232 
L 785.749002 171.636205 
L 790.509975 170.738132 
L 795.270949 169.802734 
L 800.031922 168.832732 
L 804.792895 167.830848 
L 809.553869 166.799803 
L 814.314842 165.742318 
L 819.075815 164.661116 
L 823.836789 163.558917 
L 828.597762 162.438443 
L 833.358736 161.302415 
L 838.119709 160.153554 
L 842.880682 158.994583 
L 847.641656 157.828222 
L 852.402629 156.657193 
L 857.163602 155.484217 
L 861.924576 154.312016 
L 866.685549 153.143311 
L 871.446523 151.980823 
L 876.207496 150.827274 
L 880.968469 149.685386 
L 885.729443 148.55788 
L 890.490416 147.447476 
L 895.251389 146.356897 
L 900.012363 145.288864 
L 904.773336 144.246099 
L 909.53431 143.231322 
L 914.295283 142.247255 
L 919.056256 141.296621 
L 923.81723 140.382139 
L 928.578203 139.506531 
L 933.339176 138.67252 
L 938.10015 137.882825 
L 942.861123 137.140169 
L 947.622096 136.447274 
L 952.38307 135.80686 
L 957.144043 135.221649 
L 961.905017 134.694362 
L 966.66599 134.22772 
L 971.426963 133.824446 
L 976.187937 133.487261 
L 980.94891 133.218885 
L 985.709883 133.022041 
L 990.470857 132.89945 
L 995.23183 132.853833 
L 999.992804 132.887911 
L 1004.753777 133.004407 
L 1009.51475 133.20604 
L 1014.275724 133.495534 
L 1019.036697 133.875609 
L 1023.79767 134.348987 
L 1028.558644 134.918388 
L 1033.319617 135.586536 
L 1038.080591 136.35615 
L 1042.841564 137.229952 
L 1047.602537 138.210664 
L 1052.363511 139.301008 
L 1057.124484 140.503703 
L 1061.885457 141.821473 
L 1066.646431 143.257038 
L 1071.407404 144.81312 
L 1076.168377 146.49244 
L 1080.929351 148.29772 
L 1085.690324 150.23168 
L 1090.451298 152.297044 
L 1095.212271 154.49653 
L 1099.973244 156.832863 
" clip-path="url(#p0062ed02fa)" style="fill: none; stroke: #de8f05; stroke-width: 1.8; stroke-linecap: round"/>
   </g>
   <g id="line2d_34">
    <path d="M 628.636881 160.095842 
L 633.397854 160.093813 
L 638.158827 160.091816 
L 642.919801 160.089848 
L 647.680774 160.087912 
L 652.441748 160.086005 
L 657.202721 160.084129 
L 661.963694 160.082282 
L 666.724668 160.080465 
L 671.485641 160.078677 
L 676.246614 160.076918 
L 681.007588 160.075187 
L 685.768561 160.073485 
L 690.529534 160.071812 
L 695.290508 160.070166 
L 700.051481 160.068548 
L 704.812455 160.066958 
L 709.573428 160.065394 
L 714.334401 160.063858 
L 719.095375 160.062348 
L 723.856348 160.060865 
L 728.617321 160.059408 
L 733.378295 160.057977 
L 738.139268 160.056572 
L 742.900242 160.055192 
L 747.661215 160.053837 
L 752.422188 160.052507 
L 757.183162 160.051202 
L 761.944135 160.049921 
L 766.705108 160.048665 
L 771.466082 160.047432 
L 776.227055 160.046223 
L 780.988029 160.045038 
L 785.749002 160.043876 
L 790.509975 160.042736 
L 795.270949 160.041619 
L 800.031922 160.040525 
L 804.792895 160.039453 
L 809.553869 160.038403 
L 814.314842 160.037374 
L 819.075815 160.036367 
L 823.836789 160.035381 
L 828.597762 160.034416 
L 833.358736 160.033471 
L 838.119709 160.032547 
L 842.880682 160.031644 
L 847.641656 160.03076 
L 852.402629 160.029895 
L 857.163602 160.02905 
L 861.924576 160.028224 
L 866.685549 160.027417 
L 871.446523 160.026629 
L 876.207496 160.025859 
L 880.968469 160.025107 
L 885.729443 160.024373 
L 890.490416 160.023657 
L 895.251389 160.022958 
L 900.012363 160.022276 
L 904.773336 160.021611 
L 909.53431 160.020963 
L 914.295283 160.020331 
L 919.056256 160.019715 
L 923.81723 160.019115 
L 928.578203 160.01853 
L 933.339176 160.017961 
L 938.10015 160.017407 
L 942.861123 160.016868 
L 947.622096 160.016344 
L 952.38307 160.015833 
L 957.144043 160.015337 
L 961.905017 160.014855 
L 966.66599 160.014386 
L 971.426963 160.013931 
L 976.187937 160.013489 
L 980.94891 160.013059 
L 985.709883 160.012643 
L 990.470857 160.012238 
L 995.23183 160.011846 
L 999.992804 160.011465 
L 1004.753777 160.011096 
L 1009.51475 160.010738 
L 1014.275724 160.010392 
L 1019.036697 160.010056 
L 1023.79767 160.009731 
L 1028.558644 160.009416 
L 1033.319617 160.009111 
L 1038.080591 160.008815 
L 1042.841564 160.00853 
L 1047.602537 160.008254 
L 1052.363511 160.007986 
L 1057.124484 160.007728 
L 1061.885457 160.007478 
L 1066.646431 160.007237 
L 1071.407404 160.007003 
L 1076.168377 160.006777 
L 1080.929351 160.006559 
L 1085.690324 160.006348 
L 1090.451298 160.006144 
L 1095.212271 160.005947 
L 1099.973244 160.005756 
" clip-path="url(#p0062ed02fa)" style="fill: none; stroke: #029e73; stroke-width: 1.8; stroke-linecap: round"/>
   </g>
   <g id="patch_6">
    <path d="M 605.070062 368.436 
L 605.070062 66.624 
" style="fill: none; stroke: #ffffff; stroke-linejoin: miter; stroke-linecap: square"/>
   </g>
   <g id="patch_7">
    <path d="M 605.070062 368.436 
L 1123.540063 368.436 
" style="fill: none; stroke: #ffffff; stroke-linejoin: miter; stroke-linecap: square"/>
   </g>
   <g id="text_25">
    <!-- mushroom -->
    <g style="fill: #262626" transform="translate(827.103563 60.624) scale(0.144 -0.144)">
     <defs>
      <path id="Arial-BoldMT-6d" d="M 394 3319 
L 1203 3319 
L 1203 2866 
Q 1638 3394 2238 3394 
Q 2556 3394 2790 3262 
Q 3025 3131 3175 2866 
Q 3394 3131 3647 3262 
Q 3900 3394 4188 3394 
Q 4553 3394 4806 3245 
Q 5059 3097 5184 2809 
Q 5275 2597 5275 2122 
L 5275 0 
L 4397 0 
L 4397 1897 
Q 4397 2391 4306 2534 
Q 4184 2722 3931 2722 
Q 3747 2722 3584 2609 
Q 3422 2497 3350 2280 
Q 3278 2063 3278 1594 
L 3278 0 
L 2400 0 
L 2400 1819 
Q 2400 2303 2353 2443 
Q 2306 2584 2207 2653 
Q 2109 2722 1941 2722 
Q 1738 2722 1575 2612 
Q 1413 2503 1342 2297 
Q 1272 2091 1272 1613 
L 1272 0 
L 394 0 
L 394 3319 
z
" transform="scale(0.015625)"/>
      <path id="Arial-BoldMT-75" d="M 2644 0 
L 2644 497 
Q 2463 231 2167 78 
Q 1872 -75 1544 -75 
Q 1209 -75 943 72 
Q 678 219 559 484 
Q 441 750 441 1219 
L 441 3319 
L 1319 3319 
L 1319 1794 
Q 1319 1094 1367 936 
Q 1416 778 1544 686 
Q 1672 594 1869 594 
Q 2094 594 2272 717 
Q 2450 841 2515 1023 
Q 2581 1206 2581 1919 
L 2581 3319 
L 3459 3319 
L 3459 0 
L 2644 0 
z
" transform="scale(0.015625)"/>
      <path id="Arial-BoldMT-68" d="M 1334 4581 
L 1334 2897 
Q 1759 3394 2350 3394 
Q 2653 3394 2897 3281 
Q 3141 3169 3264 2994 
Q 3388 2819 3433 2606 
Q 3478 2394 3478 1947 
L 3478 0 
L 2600 0 
L 2600 1753 
Q 2600 2275 2550 2415 
Q 2500 2556 2373 2639 
Q 2247 2722 2056 2722 
Q 1838 2722 1666 2615 
Q 1494 2509 1414 2295 
Q 1334 2081 1334 1663 
L 1334 0 
L 456 0 
L 456 4581 
L 1334 4581 
z
" transform="scale(0.015625)"/>
      <path id="Arial-BoldMT-6f" d="M 256 1706 
Q 256 2144 472 2553 
Q 688 2963 1083 3178 
Q 1478 3394 1966 3394 
Q 2719 3394 3200 2905 
Q 3681 2416 3681 1669 
Q 3681 916 3195 420 
Q 2709 -75 1972 -75 
Q 1516 -75 1102 131 
Q 688 338 472 736 
Q 256 1134 256 1706 
z
M 1156 1659 
Q 1156 1166 1390 903 
Q 1625 641 1969 641 
Q 2313 641 2545 903 
Q 2778 1166 2778 1666 
Q 2778 2153 2545 2415 
Q 2313 2678 1969 2678 
Q 1625 2678 1390 2415 
Q 1156 2153 1156 1659 
z
" transform="scale(0.015625)"/>
     </defs>
     <use xlink:href="#Arial-BoldMT-6d"/>
     <use xlink:href="#Arial-BoldMT-75" x="88.916016"/>
     <use xlink:href="#Arial-BoldMT-73" x="150"/>
     <use xlink:href="#Arial-BoldMT-68" x="205.615234"/>
     <use xlink:href="#Arial-BoldMT-72" x="266.699219"/>
     <use xlink:href="#Arial-BoldMT-6f" x="305.615234"/>
     <use xlink:href="#Arial-BoldMT-6f" x="366.699219"/>
     <use xlink:href="#Arial-BoldMT-6d" x="427.783203"/>
    </g>
   </g>
  </g>
  <g id="text_26">
   <!-- Estimated Weight vs. Probability Threshold -->
   <g style="fill: #262626" transform="translate(604.163906 22.947187) scale(0.22 -0.22)">
    <defs>
     <path id="Arial-BoldMT-45" d="M 466 0 
L 466 4581 
L 3863 4581 
L 3863 3806 
L 1391 3806 
L 1391 2791 
L 3691 2791 
L 3691 2019 
L 1391 2019 
L 1391 772 
L 3950 772 
L 3950 0 
L 466 0 
z
" transform="scale(0.015625)"/>
     <path id="Arial-BoldMT-74" d="M 1981 3319 
L 1981 2619 
L 1381 2619 
L 1381 1281 
Q 1381 875 1398 808 
Q 1416 741 1477 697 
Q 1538 653 1625 653 
Q 1747 653 1978 738 
L 2053 56 
Q 1747 -75 1359 -75 
Q 1122 -75 931 4 
Q 741 84 652 211 
Q 563 338 528 553 
Q 500 706 500 1172 
L 500 2619 
L 97 2619 
L 97 3319 
L 500 3319 
L 500 3978 
L 1381 4491 
L 1381 3319 
L 1981 3319 
z
" transform="scale(0.015625)"/>
     <path id="Arial-BoldMT-69" d="M 459 3769 
L 459 4581 
L 1338 4581 
L 1338 3769 
L 459 3769 
z
M 459 0 
L 459 3319 
L 1338 3319 
L 1338 0 
L 459 0 
z
" transform="scale(0.015625)"/>
     <path id="Arial-BoldMT-61" d="M 1116 2306 
L 319 2450 
Q 453 2931 781 3162 
Q 1109 3394 1756 3394 
Q 2344 3394 2631 3255 
Q 2919 3116 3036 2902 
Q 3153 2688 3153 2116 
L 3144 1091 
Q 3144 653 3186 445 
Q 3228 238 3344 0 
L 2475 0 
Q 2441 88 2391 259 
Q 2369 338 2359 363 
Q 2134 144 1878 34 
Q 1622 -75 1331 -75 
Q 819 -75 523 203 
Q 228 481 228 906 
Q 228 1188 362 1408 
Q 497 1628 739 1745 
Q 981 1863 1438 1950 
Q 2053 2066 2291 2166 
L 2291 2253 
Q 2291 2506 2166 2614 
Q 2041 2722 1694 2722 
Q 1459 2722 1328 2630 
Q 1197 2538 1116 2306 
z
M 2291 1594 
Q 2122 1538 1756 1459 
Q 1391 1381 1278 1306 
Q 1106 1184 1106 997 
Q 1106 813 1243 678 
Q 1381 544 1594 544 
Q 1831 544 2047 700 
Q 2206 819 2256 991 
Q 2291 1103 2291 1419 
L 2291 1594 
z
" transform="scale(0.015625)"/>
     <path id="Arial-BoldMT-65" d="M 2381 1056 
L 3256 909 
Q 3088 428 2723 176 
Q 2359 -75 1813 -75 
Q 947 -75 531 491 
Q 203 944 203 1634 
Q 203 2459 634 2926 
Q 1066 3394 1725 3394 
Q 2466 3394 2894 2905 
Q 3322 2416 3303 1406 
L 1103 1406 
Q 1113 1016 1316 798 
Q 1519 581 1822 581 
Q 2028 581 2168 693 
Q 2309 806 2381 1056 
z
M 2431 1944 
Q 2422 2325 2234 2523 
Q 2047 2722 1778 2722 
Q 1491 2722 1303 2513 
Q 1116 2303 1119 1944 
L 2431 1944 
z
" transform="scale(0.015625)"/>
     <path id="Arial-BoldMT-64" d="M 3503 0 
L 2688 0 
L 2688 488 
Q 2484 203 2207 64 
Q 1931 -75 1650 -75 
Q 1078 -75 670 386 
Q 263 847 263 1672 
Q 263 2516 659 2955 
Q 1056 3394 1663 3394 
Q 2219 3394 2625 2931 
L 2625 4581 
L 3503 4581 
L 3503 0 
z
M 1159 1731 
Q 1159 1200 1306 963 
Q 1519 619 1900 619 
Q 2203 619 2415 876 
Q 2628 1134 2628 1647 
Q 2628 2219 2422 2470 
Q 2216 2722 1894 2722 
Q 1581 2722 1370 2473 
Q 1159 2225 1159 1731 
z
" transform="scale(0.015625)"/>
     <path id="Arial-BoldMT-20" transform="scale(0.015625)"/>
     <path id="Arial-BoldMT-57" d="M 1116 0 
L 22 4581 
L 969 4581 
L 1659 1434 
L 2497 4581 
L 3597 4581 
L 4400 1381 
L 5103 4581 
L 6034 4581 
L 4922 0 
L 3941 0 
L 3028 3425 
L 2119 0 
L 1116 0 
z
" transform="scale(0.015625)"/>
     <path id="Arial-BoldMT-67" d="M 378 -219 
L 1381 -341 
Q 1406 -516 1497 -581 
Q 1622 -675 1891 -675 
Q 2234 -675 2406 -572 
Q 2522 -503 2581 -350 
Q 2622 -241 2622 53 
L 2622 538 
Q 2228 0 1628 0 
Q 959 0 569 566 
Q 263 1013 263 1678 
Q 263 2513 664 2953 
Q 1066 3394 1663 3394 
Q 2278 3394 2678 2853 
L 2678 3319 
L 3500 3319 
L 3500 341 
Q 3500 -247 3403 -537 
Q 3306 -828 3131 -993 
Q 2956 -1159 2664 -1253 
Q 2372 -1347 1925 -1347 
Q 1081 -1347 728 -1058 
Q 375 -769 375 -325 
Q 375 -281 378 -219 
z
M 1163 1728 
Q 1163 1200 1367 954 
Q 1572 709 1872 709 
Q 2194 709 2416 961 
Q 2638 1213 2638 1706 
Q 2638 2222 2425 2472 
Q 2213 2722 1888 2722 
Q 1572 2722 1367 2476 
Q 1163 2231 1163 1728 
z
" transform="scale(0.015625)"/>
     <path id="Arial-BoldMT-2e" d="M 459 0 
L 459 878 
L 1338 878 
L 1338 0 
L 459 0 
z
" transform="scale(0.015625)"/>
     <path id="Arial-BoldMT-50" d="M 466 0 
L 466 4581 
L 1950 4581 
Q 2794 4581 3050 4513 
Q 3444 4409 3709 4064 
Q 3975 3719 3975 3172 
Q 3975 2750 3822 2462 
Q 3669 2175 3433 2011 
Q 3197 1847 2953 1794 
Q 2622 1728 1994 1728 
L 1391 1728 
L 1391 0 
L 466 0 
z
M 1391 3806 
L 1391 2506 
L 1897 2506 
Q 2444 2506 2628 2578 
Q 2813 2650 2917 2803 
Q 3022 2956 3022 3159 
Q 3022 3409 2875 3571 
Q 2728 3734 2503 3775 
Q 2338 3806 1838 3806 
L 1391 3806 
z
" transform="scale(0.015625)"/>
     <path id="Arial-BoldMT-62" d="M 422 0 
L 422 4581 
L 1300 4581 
L 1300 2931 
Q 1706 3394 2263 3394 
Q 2869 3394 3266 2955 
Q 3663 2516 3663 1694 
Q 3663 844 3258 384 
Q 2853 -75 2275 -75 
Q 1991 -75 1714 67 
Q 1438 209 1238 488 
L 1238 0 
L 422 0 
z
M 1294 1731 
Q 1294 1216 1456 969 
Q 1684 619 2063 619 
Q 2353 619 2558 867 
Q 2763 1116 2763 1650 
Q 2763 2219 2556 2470 
Q 2350 2722 2028 2722 
Q 1713 2722 1503 2476 
Q 1294 2231 1294 1731 
z
" transform="scale(0.015625)"/>
     <path id="Arial-BoldMT-6c" d="M 459 0 
L 459 4581 
L 1338 4581 
L 1338 0 
L 459 0 
z
" transform="scale(0.015625)"/>
     <path id="Arial-BoldMT-79" d="M 44 3319 
L 978 3319 
L 1772 963 
L 2547 3319 
L 3456 3319 
L 2284 125 
L 2075 -453 
Q 1959 -744 1854 -897 
Q 1750 -1050 1614 -1145 
Q 1478 -1241 1279 -1294 
Q 1081 -1347 831 -1347 
Q 578 -1347 334 -1294 
L 256 -606 
Q 463 -647 628 -647 
Q 934 -647 1081 -467 
Q 1228 -288 1306 -9 
L 44 3319 
z
" transform="scale(0.015625)"/>
     <path id="Arial-BoldMT-54" d="M 1497 0 
L 1497 3806 
L 138 3806 
L 138 4581 
L 3778 4581 
L 3778 3806 
L 2422 3806 
L 2422 0 
L 1497 0 
z
" transform="scale(0.015625)"/>
    </defs>
    <use xlink:href="#Arial-BoldMT-45"/>
    <use xlink:href="#Arial-BoldMT-73" x="66.699219"/>
    <use xlink:href="#Arial-BoldMT-74" x="122.314453"/>
    <use xlink:href="#Arial-BoldMT-69" x="155.615234"/>
    <use xlink:href="#Arial-BoldMT-6d" x="183.398438"/>
    <use xlink:href="#Arial-BoldMT-61" x="272.314453"/>
    <use xlink:href="#Arial-BoldMT-74" x="327.929688"/>
    <use xlink:href="#Arial-BoldMT-65" x="361.230469"/>
    <use xlink:href="#Arial-BoldMT-64" x="416.845703"/>
    <use xlink:href="#Arial-BoldMT-20" x="477.929688"/>
    <use xlink:href="#Arial-BoldMT-57" x="505.712891"/>
    <use xlink:href="#Arial-BoldMT-65" x="598.347656"/>
    <use xlink:href="#Arial-BoldMT-69" x="653.962891"/>
    <use xlink:href="#Arial-BoldMT-67" x="681.746094"/>
    <use xlink:href="#Arial-BoldMT-68" x="742.830078"/>
    <use xlink:href="#Arial-BoldMT-74" x="803.914062"/>
    <use xlink:href="#Arial-BoldMT-20" x="837.214844"/>
    <use xlink:href="#Arial-BoldMT-76" x="864.998047"/>
    <use xlink:href="#Arial-BoldMT-73" x="920.613281"/>
    <use xlink:href="#Arial-BoldMT-2e" x="976.228516"/>
    <use xlink:href="#Arial-BoldMT-20" x="1004.011719"/>
    <use xlink:href="#Arial-BoldMT-50" x="1031.794922"/>
    <use xlink:href="#Arial-BoldMT-72" x="1098.494141"/>
    <use xlink:href="#Arial-BoldMT-6f" x="1137.410156"/>
    <use xlink:href="#Arial-BoldMT-62" x="1198.494141"/>
    <use xlink:href="#Arial-BoldMT-61" x="1259.578125"/>
    <use xlink:href="#Arial-BoldMT-62" x="1315.193359"/>
    <use xlink:href="#Arial-BoldMT-69" x="1376.277344"/>
    <use xlink:href="#Arial-BoldMT-6c" x="1404.060547"/>
    <use xlink:href="#Arial-BoldMT-69" x="1431.84375"/>
    <use xlink:href="#Arial-BoldMT-74" x="1459.626953"/>
    <use xlink:href="#Arial-BoldMT-79" x="1492.927734"/>
    <use xlink:href="#Arial-BoldMT-20" x="1548.542969"/>
    <use xlink:href="#Arial-BoldMT-54" x="1576.326172"/>
    <use xlink:href="#Arial-BoldMT-68" x="1637.410156"/>
    <use xlink:href="#Arial-BoldMT-72" x="1698.494141"/>
    <use xlink:href="#Arial-BoldMT-65" x="1737.410156"/>
    <use xlink:href="#Arial-BoldMT-73" x="1793.025391"/>
    <use xlink:href="#Arial-BoldMT-68" x="1848.640625"/>
    <use xlink:href="#Arial-BoldMT-6f" x="1909.724609"/>
    <use xlink:href="#Arial-BoldMT-6c" x="1970.808594"/>
    <use xlink:href="#Arial-BoldMT-64" x="1998.591797"/>
   </g>
  </g>
  <g id="legend_1">
   <g id="patch_8">
    <path d="M 991.35225 380.76 
L 1242.674063 380.76 
Q 1245.314063 380.76 1245.314063 378.12 
L 1245.314063 303.655312 
Q 1245.314063 301.015312 1242.674063 301.015312 
L 991.35225 301.015312 
Q 988.71225 301.015312 988.71225 303.655312 
L 988.71225 378.12 
Q 988.71225 380.76 991.35225 380.76 
z
" style="fill: #eaeaf2; opacity: 0.8; stroke: #cccccc; stroke-width: 0.8; stroke-linejoin: miter"/>
   </g>
   <g id="text_27">
    <!-- Method -->
    <g style="fill: #262626" transform="translate(1093.000031 316.602562) scale(0.144 -0.144)">
     <defs>
      <path id="ArialMT-4d" d="M 475 0 
L 475 4581 
L 1388 4581 
L 2472 1338 
Q 2622 884 2691 659 
Q 2769 909 2934 1394 
L 4031 4581 
L 4847 4581 
L 4847 0 
L 4263 0 
L 4263 3834 
L 2931 0 
L 2384 0 
L 1059 3900 
L 1059 0 
L 475 0 
z
" transform="scale(0.015625)"/>
     </defs>
     <use xlink:href="#ArialMT-4d"/>
     <use xlink:href="#ArialMT-65" x="83.300781"/>
     <use xlink:href="#ArialMT-74" x="138.916016"/>
     <use xlink:href="#ArialMT-68" x="166.699219"/>
     <use xlink:href="#ArialMT-6f" x="222.314453"/>
     <use xlink:href="#ArialMT-64" x="277.929688"/>
    </g>
   </g>
   <g id="PathCollection_7">
    <g>
     <use xlink:href="#ma507b62dc5" x="1007.19225" y="332.047875" style="fill: #0173b2; fill-opacity: 0.8; stroke: #0173b2; stroke-opacity: 0.8"/>
    </g>
   </g>
   <g id="text_28">
    <!-- Crowd-Certain -->
    <g style="fill: #262626" transform="translate(1030.95225 335.512875) scale(0.132 -0.132)">
     <defs>
      <path id="ArialMT-43" d="M 3763 1606 
L 4369 1453 
Q 4178 706 3683 314 
Q 3188 -78 2472 -78 
Q 1731 -78 1267 223 
Q 803 525 561 1097 
Q 319 1669 319 2325 
Q 319 3041 592 3573 
Q 866 4106 1370 4382 
Q 1875 4659 2481 4659 
Q 3169 4659 3637 4309 
Q 4106 3959 4291 3325 
L 3694 3184 
Q 3534 3684 3231 3912 
Q 2928 4141 2469 4141 
Q 1941 4141 1586 3887 
Q 1231 3634 1087 3207 
Q 944 2781 944 2328 
Q 944 1744 1114 1308 
Q 1284 872 1643 656 
Q 2003 441 2422 441 
Q 2931 441 3284 734 
Q 3638 1028 3763 1606 
z
" transform="scale(0.015625)"/>
      <path id="ArialMT-77" d="M 1034 0 
L 19 3319 
L 600 3319 
L 1128 1403 
L 1325 691 
Q 1338 744 1497 1375 
L 2025 3319 
L 2603 3319 
L 3100 1394 
L 3266 759 
L 3456 1400 
L 4025 3319 
L 4572 3319 
L 3534 0 
L 2950 0 
L 2422 1988 
L 2294 2553 
L 1622 0 
L 1034 0 
z
" transform="scale(0.015625)"/>
      <path id="ArialMT-2d" d="M 203 1375 
L 203 1941 
L 1931 1941 
L 1931 1375 
L 203 1375 
z
" transform="scale(0.015625)"/>
      <path id="ArialMT-6e" d="M 422 0 
L 422 3319 
L 928 3319 
L 928 2847 
Q 1294 3394 1984 3394 
Q 2284 3394 2536 3286 
Q 2788 3178 2913 3003 
Q 3038 2828 3088 2588 
Q 3119 2431 3119 2041 
L 3119 0 
L 2556 0 
L 2556 2019 
Q 2556 2363 2490 2533 
Q 2425 2703 2258 2804 
Q 2091 2906 1866 2906 
Q 1506 2906 1245 2678 
Q 984 2450 984 1813 
L 984 0 
L 422 0 
z
" transform="scale(0.015625)"/>
     </defs>
     <use xlink:href="#ArialMT-43"/>
     <use xlink:href="#ArialMT-72" x="72.216797"/>
     <use xlink:href="#ArialMT-6f" x="105.517578"/>
     <use xlink:href="#ArialMT-77" x="161.132812"/>
     <use xlink:href="#ArialMT-64" x="233.349609"/>
     <use xlink:href="#ArialMT-2d" x="288.964844"/>
     <use xlink:href="#ArialMT-43" x="322.265625"/>
     <use xlink:href="#ArialMT-65" x="394.482422"/>
     <use xlink:href="#ArialMT-72" x="450.097656"/>
     <use xlink:href="#ArialMT-74" x="483.398438"/>
     <use xlink:href="#ArialMT-61" x="511.181641"/>
     <use xlink:href="#ArialMT-69" x="566.796875"/>
     <use xlink:href="#ArialMT-6e" x="589.013672"/>
    </g>
   </g>
   <g id="PathCollection_8">
    <g>
     <use xlink:href="#m078cc21604" x="1007.19225" y="350.719687" style="fill: #de8f05; fill-opacity: 0.8; stroke: #de8f05; stroke-opacity: 0.8"/>
    </g>
   </g>
   <g id="text_29">
    <!-- Crowd-Certain Without Penalization -->
    <g style="fill: #262626" transform="translate(1030.95225 354.184687) scale(0.132 -0.132)">
     <defs>
      <path id="ArialMT-75" d="M 2597 0 
L 2597 488 
Q 2209 -75 1544 -75 
Q 1250 -75 995 37 
Q 741 150 617 320 
Q 494 491 444 738 
Q 409 903 409 1263 
L 409 3319 
L 972 3319 
L 972 1478 
Q 972 1038 1006 884 
Q 1059 663 1231 536 
Q 1403 409 1656 409 
Q 1909 409 2131 539 
Q 2353 669 2445 892 
Q 2538 1116 2538 1541 
L 2538 3319 
L 3100 3319 
L 3100 0 
L 2597 0 
z
" transform="scale(0.015625)"/>
      <path id="ArialMT-7a" d="M 125 0 
L 125 456 
L 2238 2881 
Q 1878 2863 1603 2863 
L 250 2863 
L 250 3319 
L 2963 3319 
L 2963 2947 
L 1166 841 
L 819 456 
Q 1197 484 1528 484 
L 3063 484 
L 3063 0 
L 125 0 
z
" transform="scale(0.015625)"/>
     </defs>
     <use xlink:href="#ArialMT-43"/>
     <use xlink:href="#ArialMT-72" x="72.216797"/>
     <use xlink:href="#ArialMT-6f" x="105.517578"/>
     <use xlink:href="#ArialMT-77" x="161.132812"/>
     <use xlink:href="#ArialMT-64" x="233.349609"/>
     <use xlink:href="#ArialMT-2d" x="288.964844"/>
     <use xlink:href="#ArialMT-43" x="322.265625"/>
     <use xlink:href="#ArialMT-65" x="394.482422"/>
     <use xlink:href="#ArialMT-72" x="450.097656"/>
     <use xlink:href="#ArialMT-74" x="483.398438"/>
     <use xlink:href="#ArialMT-61" x="511.181641"/>
     <use xlink:href="#ArialMT-69" x="566.796875"/>
     <use xlink:href="#ArialMT-6e" x="589.013672"/>
     <use xlink:href="#ArialMT-20" x="644.628906"/>
     <use xlink:href="#ArialMT-57" x="672.412109"/>
     <use xlink:href="#ArialMT-69" x="766.796875"/>
     <use xlink:href="#ArialMT-74" x="789.013672"/>
     <use xlink:href="#ArialMT-68" x="816.796875"/>
     <use xlink:href="#ArialMT-6f" x="872.412109"/>
     <use xlink:href="#ArialMT-75" x="928.027344"/>
     <use xlink:href="#ArialMT-74" x="983.642578"/>
     <use xlink:href="#ArialMT-20" x="1011.425781"/>
     <use xlink:href="#ArialMT-50" x="1039.208984"/>
     <use xlink:href="#ArialMT-65" x="1105.908203"/>
     <use xlink:href="#ArialMT-6e" x="1161.523438"/>
     <use xlink:href="#ArialMT-61" x="1217.138672"/>
     <use xlink:href="#ArialMT-6c" x="1272.753906"/>
     <use xlink:href="#ArialMT-69" x="1294.970703"/>
     <use xlink:href="#ArialMT-7a" x="1317.1875"/>
     <use xlink:href="#ArialMT-61" x="1367.1875"/>
     <use xlink:href="#ArialMT-74" x="1422.802734"/>
     <use xlink:href="#ArialMT-69" x="1450.585938"/>
     <use xlink:href="#ArialMT-6f" x="1472.802734"/>
     <use xlink:href="#ArialMT-6e" x="1528.417969"/>
    </g>
   </g>
   <g id="PathCollection_9">
    <g>
     <use xlink:href="#m35376c360b" x="1007.19225" y="369.3915" style="fill: #029e73; fill-opacity: 0.8; stroke: #029e73; stroke-opacity: 0.8"/>
    </g>
   </g>
   <g id="text_30">
    <!-- Tao -->
    <g style="fill: #262626" transform="translate(1030.95225 372.8565) scale(0.132 -0.132)">
     <use xlink:href="#ArialMT-54"/>
     <use xlink:href="#ArialMT-61" x="49.958984"/>
     <use xlink:href="#ArialMT-6f" x="105.574219"/>
    </g>
   </g>
  </g>
 </g>
 <defs>
  <clipPath id="p853cd87e4e">
   <rect x="71.048063" y="66.624" width="518.47" height="301.812"/>
  </clipPath>
  <clipPath id="p0062ed02fa">
   <rect x="605.070062" y="66.624" width="518.47" height="301.812"/>
  </clipPath>
 </defs>
</svg>
