<?xml version="1.0" encoding="utf-8" standalone="no"?>
<!DOCTYPE svg PUBLIC "-//W3C//DTD SVG 1.1//EN"
  "http://www.w3.org/Graphics/SVG/1.1/DTD/svg11.dtd">
<svg xmlns:xlink="http://www.w3.org/1999/xlink" width="1252.727813pt" height="418.861125pt" viewBox="0 0 1252.727813 418.861125" xmlns="http://www.w3.org/2000/svg" version="1.1">
 <metadata>
  <rdf:RDF xmlns:dc="http://purl.org/dc/elements/1.1/" xmlns:cc="http://creativecommons.org/ns#" xmlns:rdf="http://www.w3.org/1999/02/22-rdf-syntax-ns#">
   <cc:Work>
    <dc:type rdf:resource="http://purl.org/dc/dcmitype/StillImage"/>
    <dc:date>2023-12-14T17:07:18.590529</dc:date>
    <dc:format>image/svg+xml</dc:format>
    <dc:creator>
     <cc:Agent>
      <dc:title>Matplotlib v3.8.1, https://matplotlib.org/</dc:title>
     </cc:Agent>
    </dc:creator>
   </cc:Work>
  </rdf:RDF>
 </metadata>
 <defs>
  <style type="text/css">*{stroke-linejoin: round; stroke-linecap: butt}</style>
 </defs>
 <g id="figure_1">
  <g id="patch_1">
   <path d="M 0 418.861125 
L 1252.727813 418.861125 
L 1252.727813 0 
L 0 0 
z
" style="fill: #ffffff"/>
  </g>
  <g id="axes_1">
   <g id="patch_2">
    <path d="M 78.101813 368.436 
L 594.291812 368.436 
L 594.291812 67.344 
L 78.101813 67.344 
z
" style="fill: #eaeaf2"/>
   </g>
   <g id="matplotlib.axis_1">
    <g id="xtick_1">
     <g id="line2d_1">
      <path d="M 101.503865 368.436 
L 101.503865 67.344 
" clip-path="url(#ped05ce57e3)" style="fill: none; stroke: #ffffff; stroke-width: 0.8; stroke-linecap: round"/>
     </g>
     <g id="text_1">
      <!-- 0.4 -->
      <g style="fill: #262626" transform="translate(91.007802 386.765937) scale(0.132 -0.132)">
       <defs>
        <path id="DejaVuSans-30" d="M 2034 4250 
Q 1547 4250 1301 3770 
Q 1056 3291 1056 2328 
Q 1056 1369 1301 889 
Q 1547 409 2034 409 
Q 2525 409 2770 889 
Q 3016 1369 3016 2328 
Q 3016 3291 2770 3770 
Q 2525 4250 2034 4250 
z
M 2034 4750 
Q 2819 4750 3233 4129 
Q 3647 3509 3647 2328 
Q 3647 1150 3233 529 
Q 2819 -91 2034 -91 
Q 1250 -91 836 529 
Q 422 1150 422 2328 
Q 422 3509 836 4129 
Q 1250 4750 2034 4750 
z
" transform="scale(0.015625)"/>
        <path id="DejaVuSans-2e" d="M 684 794 
L 1344 794 
L 1344 0 
L 684 0 
L 684 794 
z
" transform="scale(0.015625)"/>
        <path id="DejaVuSans-34" d="M 2419 4116 
L 825 1625 
L 2419 1625 
L 2419 4116 
z
M 2253 4666 
L 3047 4666 
L 3047 1625 
L 3713 1625 
L 3713 1100 
L 3047 1100 
L 3047 0 
L 2419 0 
L 2419 1100 
L 313 1100 
L 313 1709 
L 2253 4666 
z
" transform="scale(0.015625)"/>
       </defs>
       <use xlink:href="#DejaVuSans-30"/>
       <use xlink:href="#DejaVuSans-2e" x="63.623047"/>
       <use xlink:href="#DejaVuSans-34" x="95.410156"/>
      </g>
     </g>
    </g>
    <g id="xtick_2">
     <g id="line2d_2">
      <path d="M 190.581693 368.436 
L 190.581693 67.344 
" clip-path="url(#ped05ce57e3)" style="fill: none; stroke: #ffffff; stroke-width: 0.8; stroke-linecap: round"/>
     </g>
     <g id="text_2">
      <!-- 0.5 -->
      <g style="fill: #262626" transform="translate(180.085631 386.765937) scale(0.132 -0.132)">
       <defs>
        <path id="DejaVuSans-35" d="M 691 4666 
L 3169 4666 
L 3169 4134 
L 1269 4134 
L 1269 2991 
Q 1406 3038 1543 3061 
Q 1681 3084 1819 3084 
Q 2600 3084 3056 2656 
Q 3513 2228 3513 1497 
Q 3513 744 3044 326 
Q 2575 -91 1722 -91 
Q 1428 -91 1123 -41 
Q 819 9 494 109 
L 494 744 
Q 775 591 1075 516 
Q 1375 441 1709 441 
Q 2250 441 2565 725 
Q 2881 1009 2881 1497 
Q 2881 1984 2565 2268 
Q 2250 2553 1709 2553 
Q 1456 2553 1204 2497 
Q 953 2441 691 2322 
L 691 4666 
z
" transform="scale(0.015625)"/>
       </defs>
       <use xlink:href="#DejaVuSans-30"/>
       <use xlink:href="#DejaVuSans-2e" x="63.623047"/>
       <use xlink:href="#DejaVuSans-35" x="95.410156"/>
      </g>
     </g>
    </g>
    <g id="xtick_3">
     <g id="line2d_3">
      <path d="M 279.659522 368.436 
L 279.659522 67.344 
" clip-path="url(#ped05ce57e3)" style="fill: none; stroke: #ffffff; stroke-width: 0.8; stroke-linecap: round"/>
     </g>
     <g id="text_3">
      <!-- 0.6 -->
      <g style="fill: #262626" transform="translate(269.163459 386.765937) scale(0.132 -0.132)">
       <defs>
        <path id="DejaVuSans-36" d="M 2113 2584 
Q 1688 2584 1439 2293 
Q 1191 2003 1191 1497 
Q 1191 994 1439 701 
Q 1688 409 2113 409 
Q 2538 409 2786 701 
Q 3034 994 3034 1497 
Q 3034 2003 2786 2293 
Q 2538 2584 2113 2584 
z
M 3366 4563 
L 3366 3988 
Q 3128 4100 2886 4159 
Q 2644 4219 2406 4219 
Q 1781 4219 1451 3797 
Q 1122 3375 1075 2522 
Q 1259 2794 1537 2939 
Q 1816 3084 2150 3084 
Q 2853 3084 3261 2657 
Q 3669 2231 3669 1497 
Q 3669 778 3244 343 
Q 2819 -91 2113 -91 
Q 1303 -91 875 529 
Q 447 1150 447 2328 
Q 447 3434 972 4092 
Q 1497 4750 2381 4750 
Q 2619 4750 2861 4703 
Q 3103 4656 3366 4563 
z
" transform="scale(0.015625)"/>
       </defs>
       <use xlink:href="#DejaVuSans-30"/>
       <use xlink:href="#DejaVuSans-2e" x="63.623047"/>
       <use xlink:href="#DejaVuSans-36" x="95.410156"/>
      </g>
     </g>
    </g>
    <g id="xtick_4">
     <g id="line2d_4">
      <path d="M 368.73735 368.436 
L 368.73735 67.344 
" clip-path="url(#ped05ce57e3)" style="fill: none; stroke: #ffffff; stroke-width: 0.8; stroke-linecap: round"/>
     </g>
     <g id="text_4">
      <!-- 0.7 -->
      <g style="fill: #262626" transform="translate(358.241287 386.765937) scale(0.132 -0.132)">
       <defs>
        <path id="DejaVuSans-37" d="M 525 4666 
L 3525 4666 
L 3525 4397 
L 1831 0 
L 1172 0 
L 2766 4134 
L 525 4134 
L 525 4666 
z
" transform="scale(0.015625)"/>
       </defs>
       <use xlink:href="#DejaVuSans-30"/>
       <use xlink:href="#DejaVuSans-2e" x="63.623047"/>
       <use xlink:href="#DejaVuSans-37" x="95.410156"/>
      </g>
     </g>
    </g>
    <g id="xtick_5">
     <g id="line2d_5">
      <path d="M 457.815178 368.436 
L 457.815178 67.344 
" clip-path="url(#ped05ce57e3)" style="fill: none; stroke: #ffffff; stroke-width: 0.8; stroke-linecap: round"/>
     </g>
     <g id="text_5">
      <!-- 0.8 -->
      <g style="fill: #262626" transform="translate(447.319116 386.765937) scale(0.132 -0.132)">
       <defs>
        <path id="DejaVuSans-38" d="M 2034 2216 
Q 1584 2216 1326 1975 
Q 1069 1734 1069 1313 
Q 1069 891 1326 650 
Q 1584 409 2034 409 
Q 2484 409 2743 651 
Q 3003 894 3003 1313 
Q 3003 1734 2745 1975 
Q 2488 2216 2034 2216 
z
M 1403 2484 
Q 997 2584 770 2862 
Q 544 3141 544 3541 
Q 544 4100 942 4425 
Q 1341 4750 2034 4750 
Q 2731 4750 3128 4425 
Q 3525 4100 3525 3541 
Q 3525 3141 3298 2862 
Q 3072 2584 2669 2484 
Q 3125 2378 3379 2068 
Q 3634 1759 3634 1313 
Q 3634 634 3220 271 
Q 2806 -91 2034 -91 
Q 1263 -91 848 271 
Q 434 634 434 1313 
Q 434 1759 690 2068 
Q 947 2378 1403 2484 
z
M 1172 3481 
Q 1172 3119 1398 2916 
Q 1625 2713 2034 2713 
Q 2441 2713 2670 2916 
Q 2900 3119 2900 3481 
Q 2900 3844 2670 4047 
Q 2441 4250 2034 4250 
Q 1625 4250 1398 4047 
Q 1172 3844 1172 3481 
z
" transform="scale(0.015625)"/>
       </defs>
       <use xlink:href="#DejaVuSans-30"/>
       <use xlink:href="#DejaVuSans-2e" x="63.623047"/>
       <use xlink:href="#DejaVuSans-38" x="95.410156"/>
      </g>
     </g>
    </g>
    <g id="xtick_6">
     <g id="line2d_6">
      <path d="M 546.893007 368.436 
L 546.893007 67.344 
" clip-path="url(#ped05ce57e3)" style="fill: none; stroke: #ffffff; stroke-width: 0.8; stroke-linecap: round"/>
     </g>
     <g id="text_6">
      <!-- 0.9 -->
      <g style="fill: #262626" transform="translate(536.396944 386.765937) scale(0.132 -0.132)">
       <defs>
        <path id="DejaVuSans-39" d="M 703 97 
L 703 672 
Q 941 559 1184 500 
Q 1428 441 1663 441 
Q 2288 441 2617 861 
Q 2947 1281 2994 2138 
Q 2813 1869 2534 1725 
Q 2256 1581 1919 1581 
Q 1219 1581 811 2004 
Q 403 2428 403 3163 
Q 403 3881 828 4315 
Q 1253 4750 1959 4750 
Q 2769 4750 3195 4129 
Q 3622 3509 3622 2328 
Q 3622 1225 3098 567 
Q 2575 -91 1691 -91 
Q 1453 -91 1209 -44 
Q 966 3 703 97 
z
M 1959 2075 
Q 2384 2075 2632 2365 
Q 2881 2656 2881 3163 
Q 2881 3666 2632 3958 
Q 2384 4250 1959 4250 
Q 1534 4250 1286 3958 
Q 1038 3666 1038 3163 
Q 1038 2656 1286 2365 
Q 1534 2075 1959 2075 
z
" transform="scale(0.015625)"/>
       </defs>
       <use xlink:href="#DejaVuSans-30"/>
       <use xlink:href="#DejaVuSans-2e" x="63.623047"/>
       <use xlink:href="#DejaVuSans-39" x="95.410156"/>
      </g>
     </g>
    </g>
    <g id="text_7">
     <!-- Probability Threshold ($\pi_\alpha^{(k)}$) -->
     <g style="fill: #262626" transform="translate(236.296812 407.311125) scale(0.15 -0.15)">
      <defs>
       <path id="DejaVuSans-50" d="M 1259 4147 
L 1259 2394 
L 2053 2394 
Q 2494 2394 2734 2622 
Q 2975 2850 2975 3272 
Q 2975 3691 2734 3919 
Q 2494 4147 2053 4147 
L 1259 4147 
z
M 628 4666 
L 2053 4666 
Q 2838 4666 3239 4311 
Q 3641 3956 3641 3272 
Q 3641 2581 3239 2228 
Q 2838 1875 2053 1875 
L 1259 1875 
L 1259 0 
L 628 0 
L 628 4666 
z
" transform="scale(0.015625)"/>
       <path id="DejaVuSans-72" d="M 2631 2963 
Q 2534 3019 2420 3045 
Q 2306 3072 2169 3072 
Q 1681 3072 1420 2755 
Q 1159 2438 1159 1844 
L 1159 0 
L 581 0 
L 581 3500 
L 1159 3500 
L 1159 2956 
Q 1341 3275 1631 3429 
Q 1922 3584 2338 3584 
Q 2397 3584 2469 3576 
Q 2541 3569 2628 3553 
L 2631 2963 
z
" transform="scale(0.015625)"/>
       <path id="DejaVuSans-6f" d="M 1959 3097 
Q 1497 3097 1228 2736 
Q 959 2375 959 1747 
Q 959 1119 1226 758 
Q 1494 397 1959 397 
Q 2419 397 2687 759 
Q 2956 1122 2956 1747 
Q 2956 2369 2687 2733 
Q 2419 3097 1959 3097 
z
M 1959 3584 
Q 2709 3584 3137 3096 
Q 3566 2609 3566 1747 
Q 3566 888 3137 398 
Q 2709 -91 1959 -91 
Q 1206 -91 779 398 
Q 353 888 353 1747 
Q 353 2609 779 3096 
Q 1206 3584 1959 3584 
z
" transform="scale(0.015625)"/>
       <path id="DejaVuSans-62" d="M 3116 1747 
Q 3116 2381 2855 2742 
Q 2594 3103 2138 3103 
Q 1681 3103 1420 2742 
Q 1159 2381 1159 1747 
Q 1159 1113 1420 752 
Q 1681 391 2138 391 
Q 2594 391 2855 752 
Q 3116 1113 3116 1747 
z
M 1159 2969 
Q 1341 3281 1617 3432 
Q 1894 3584 2278 3584 
Q 2916 3584 3314 3078 
Q 3713 2572 3713 1747 
Q 3713 922 3314 415 
Q 2916 -91 2278 -91 
Q 1894 -91 1617 61 
Q 1341 213 1159 525 
L 1159 0 
L 581 0 
L 581 4863 
L 1159 4863 
L 1159 2969 
z
" transform="scale(0.015625)"/>
       <path id="DejaVuSans-61" d="M 2194 1759 
Q 1497 1759 1228 1600 
Q 959 1441 959 1056 
Q 959 750 1161 570 
Q 1363 391 1709 391 
Q 2188 391 2477 730 
Q 2766 1069 2766 1631 
L 2766 1759 
L 2194 1759 
z
M 3341 1997 
L 3341 0 
L 2766 0 
L 2766 531 
Q 2569 213 2275 61 
Q 1981 -91 1556 -91 
Q 1019 -91 701 211 
Q 384 513 384 1019 
Q 384 1609 779 1909 
Q 1175 2209 1959 2209 
L 2766 2209 
L 2766 2266 
Q 2766 2663 2505 2880 
Q 2244 3097 1772 3097 
Q 1472 3097 1187 3025 
Q 903 2953 641 2809 
L 641 3341 
Q 956 3463 1253 3523 
Q 1550 3584 1831 3584 
Q 2591 3584 2966 3190 
Q 3341 2797 3341 1997 
z
" transform="scale(0.015625)"/>
       <path id="DejaVuSans-69" d="M 603 3500 
L 1178 3500 
L 1178 0 
L 603 0 
L 603 3500 
z
M 603 4863 
L 1178 4863 
L 1178 4134 
L 603 4134 
L 603 4863 
z
" transform="scale(0.015625)"/>
       <path id="DejaVuSans-6c" d="M 603 4863 
L 1178 4863 
L 1178 0 
L 603 0 
L 603 4863 
z
" transform="scale(0.015625)"/>
       <path id="DejaVuSans-74" d="M 1172 4494 
L 1172 3500 
L 2356 3500 
L 2356 3053 
L 1172 3053 
L 1172 1153 
Q 1172 725 1289 603 
Q 1406 481 1766 481 
L 2356 481 
L 2356 0 
L 1766 0 
Q 1100 0 847 248 
Q 594 497 594 1153 
L 594 3053 
L 172 3053 
L 172 3500 
L 594 3500 
L 594 4494 
L 1172 4494 
z
" transform="scale(0.015625)"/>
       <path id="DejaVuSans-79" d="M 2059 -325 
Q 1816 -950 1584 -1140 
Q 1353 -1331 966 -1331 
L 506 -1331 
L 506 -850 
L 844 -850 
Q 1081 -850 1212 -737 
Q 1344 -625 1503 -206 
L 1606 56 
L 191 3500 
L 800 3500 
L 1894 763 
L 2988 3500 
L 3597 3500 
L 2059 -325 
z
" transform="scale(0.015625)"/>
       <path id="DejaVuSans-20" transform="scale(0.015625)"/>
       <path id="DejaVuSans-54" d="M -19 4666 
L 3928 4666 
L 3928 4134 
L 2272 4134 
L 2272 0 
L 1638 0 
L 1638 4134 
L -19 4134 
L -19 4666 
z
" transform="scale(0.015625)"/>
       <path id="DejaVuSans-68" d="M 3513 2113 
L 3513 0 
L 2938 0 
L 2938 2094 
Q 2938 2591 2744 2837 
Q 2550 3084 2163 3084 
Q 1697 3084 1428 2787 
Q 1159 2491 1159 1978 
L 1159 0 
L 581 0 
L 581 4863 
L 1159 4863 
L 1159 2956 
Q 1366 3272 1645 3428 
Q 1925 3584 2291 3584 
Q 2894 3584 3203 3211 
Q 3513 2838 3513 2113 
z
" transform="scale(0.015625)"/>
       <path id="DejaVuSans-65" d="M 3597 1894 
L 3597 1613 
L 953 1613 
Q 991 1019 1311 708 
Q 1631 397 2203 397 
Q 2534 397 2845 478 
Q 3156 559 3463 722 
L 3463 178 
Q 3153 47 2828 -22 
Q 2503 -91 2169 -91 
Q 1331 -91 842 396 
Q 353 884 353 1716 
Q 353 2575 817 3079 
Q 1281 3584 2069 3584 
Q 2775 3584 3186 3129 
Q 3597 2675 3597 1894 
z
M 3022 2063 
Q 3016 2534 2758 2815 
Q 2500 3097 2075 3097 
Q 1594 3097 1305 2825 
Q 1016 2553 972 2059 
L 3022 2063 
z
" transform="scale(0.015625)"/>
       <path id="DejaVuSans-73" d="M 2834 3397 
L 2834 2853 
Q 2591 2978 2328 3040 
Q 2066 3103 1784 3103 
Q 1356 3103 1142 2972 
Q 928 2841 928 2578 
Q 928 2378 1081 2264 
Q 1234 2150 1697 2047 
L 1894 2003 
Q 2506 1872 2764 1633 
Q 3022 1394 3022 966 
Q 3022 478 2636 193 
Q 2250 -91 1575 -91 
Q 1294 -91 989 -36 
Q 684 19 347 128 
L 347 722 
Q 666 556 975 473 
Q 1284 391 1588 391 
Q 1994 391 2212 530 
Q 2431 669 2431 922 
Q 2431 1156 2273 1281 
Q 2116 1406 1581 1522 
L 1381 1569 
Q 847 1681 609 1914 
Q 372 2147 372 2553 
Q 372 3047 722 3315 
Q 1072 3584 1716 3584 
Q 2034 3584 2315 3537 
Q 2597 3491 2834 3397 
z
" transform="scale(0.015625)"/>
       <path id="DejaVuSans-64" d="M 2906 2969 
L 2906 4863 
L 3481 4863 
L 3481 0 
L 2906 0 
L 2906 525 
Q 2725 213 2448 61 
Q 2172 -91 1784 -91 
Q 1150 -91 751 415 
Q 353 922 353 1747 
Q 353 2572 751 3078 
Q 1150 3584 1784 3584 
Q 2172 3584 2448 3432 
Q 2725 3281 2906 2969 
z
M 947 1747 
Q 947 1113 1208 752 
Q 1469 391 1925 391 
Q 2381 391 2643 752 
Q 2906 1113 2906 1747 
Q 2906 2381 2643 2742 
Q 2381 3103 1925 3103 
Q 1469 3103 1208 2742 
Q 947 2381 947 1747 
z
" transform="scale(0.015625)"/>
       <path id="DejaVuSans-28" d="M 1984 4856 
Q 1566 4138 1362 3434 
Q 1159 2731 1159 2009 
Q 1159 1288 1364 580 
Q 1569 -128 1984 -844 
L 1484 -844 
Q 1016 -109 783 600 
Q 550 1309 550 2009 
Q 550 2706 781 3412 
Q 1013 4119 1484 4856 
L 1984 4856 
z
" transform="scale(0.015625)"/>
       <path id="DejaVuSans-Oblique-3c0" d="M 584 3500 
L 3938 3500 
L 3825 2925 
L 3384 2925 
L 2966 775 
Q 2922 550 2981 450 
Q 3038 353 3209 353 
Q 3256 353 3325 363 
Q 3397 369 3419 372 
L 3338 -44 
Q 3222 -84 3103 -103 
Q 2981 -122 2866 -122 
Q 2491 -122 2388 81 
Q 2284 288 2391 838 
L 2797 2925 
L 1506 2925 
L 938 0 
L 350 0 
L 919 2925 
L 472 2925 
L 584 3500 
z
" transform="scale(0.015625)"/>
       <path id="DejaVuSans-Oblique-6b" d="M 1172 4863 
L 1747 4863 
L 1197 2028 
L 3169 3500 
L 3916 3500 
L 1716 1825 
L 3322 0 
L 2625 0 
L 1131 1709 
L 800 0 
L 225 0 
L 1172 4863 
z
" transform="scale(0.015625)"/>
       <path id="DejaVuSans-29" d="M 513 4856 
L 1013 4856 
Q 1481 4119 1714 3412 
Q 1947 2706 1947 2009 
Q 1947 1309 1714 600 
Q 1481 -109 1013 -844 
L 513 -844 
Q 928 -128 1133 580 
Q 1338 1288 1338 2009 
Q 1338 2731 1133 3434 
Q 928 4138 513 4856 
z
" transform="scale(0.015625)"/>
       <path id="DejaVuSans-Oblique-3b1" d="M 2619 1628 
L 2622 2350 
Q 2625 3088 2069 3091 
Q 1653 3094 1394 2747 
Q 1069 2319 959 1747 
Q 825 1059 994 731 
Q 1169 397 1547 397 
Q 1966 397 2319 1063 
L 2619 1628 
z
M 2166 3578 
Q 3141 3594 3128 2584 
Q 3128 2584 3616 3500 
L 4128 3500 
L 3119 1603 
L 3109 919 
Q 3109 766 3194 638 
Q 3291 488 3391 488 
L 3669 488 
L 3575 0 
L 3228 0 
Q 2934 0 2722 263 
Q 2622 394 2619 669 
Q 2416 334 2066 50 
Q 1900 -81 1453 -78 
Q 722 -72 456 397 
Q 184 884 353 1747 
Q 534 2675 1009 3097 
Q 1544 3569 2166 3578 
z
" transform="scale(0.015625)"/>
      </defs>
      <use xlink:href="#DejaVuSans-50" transform="translate(0 0.529687)"/>
      <use xlink:href="#DejaVuSans-72" transform="translate(60.302734 0.529687)"/>
      <use xlink:href="#DejaVuSans-6f" transform="translate(101.416016 0.529687)"/>
      <use xlink:href="#DejaVuSans-62" transform="translate(162.597656 0.529687)"/>
      <use xlink:href="#DejaVuSans-61" transform="translate(226.074219 0.529687)"/>
      <use xlink:href="#DejaVuSans-62" transform="translate(287.353516 0.529687)"/>
      <use xlink:href="#DejaVuSans-69" transform="translate(350.830078 0.529687)"/>
      <use xlink:href="#DejaVuSans-6c" transform="translate(378.613281 0.529687)"/>
      <use xlink:href="#DejaVuSans-69" transform="translate(406.396484 0.529687)"/>
      <use xlink:href="#DejaVuSans-74" transform="translate(434.179688 0.529687)"/>
      <use xlink:href="#DejaVuSans-79" transform="translate(473.388672 0.529687)"/>
      <use xlink:href="#DejaVuSans-20" transform="translate(532.568359 0.529687)"/>
      <use xlink:href="#DejaVuSans-54" transform="translate(564.355469 0.529687)"/>
      <use xlink:href="#DejaVuSans-68" transform="translate(625.439453 0.529687)"/>
      <use xlink:href="#DejaVuSans-72" transform="translate(688.818359 0.529687)"/>
      <use xlink:href="#DejaVuSans-65" transform="translate(729.931641 0.529687)"/>
      <use xlink:href="#DejaVuSans-73" transform="translate(791.455078 0.529687)"/>
      <use xlink:href="#DejaVuSans-68" transform="translate(843.554688 0.529687)"/>
      <use xlink:href="#DejaVuSans-6f" transform="translate(906.933594 0.529687)"/>
      <use xlink:href="#DejaVuSans-6c" transform="translate(968.115234 0.529687)"/>
      <use xlink:href="#DejaVuSans-64" transform="translate(995.898438 0.529687)"/>
      <use xlink:href="#DejaVuSans-20" transform="translate(1059.375 0.529687)"/>
      <use xlink:href="#DejaVuSans-28" transform="translate(1091.162109 0.529687)"/>
      <use xlink:href="#DejaVuSans-Oblique-3c0" transform="translate(1130.175781 0.529687)"/>
      <use xlink:href="#DejaVuSans-28" transform="translate(1194.847005 38.810938) scale(0.7)"/>
      <use xlink:href="#DejaVuSans-Oblique-6b" transform="translate(1222.156576 38.810938) scale(0.7)"/>
      <use xlink:href="#DejaVuSans-29" transform="translate(1262.693685 38.810938) scale(0.7)"/>
      <use xlink:href="#DejaVuSans-Oblique-3b1" transform="translate(1190.380859 -26.814063) scale(0.7)"/>
      <use xlink:href="#DejaVuSans-29" transform="translate(1292.73763 0.529687)"/>
     </g>
    </g>
   </g>
   <g id="matplotlib.axis_2">
    <g id="ytick_1">
     <g id="line2d_7">
      <path d="M 78.101813 360.217415 
L 594.291812 360.217415 
" clip-path="url(#ped05ce57e3)" style="fill: none; stroke: #ffffff; stroke-width: 0.8; stroke-linecap: round"/>
     </g>
     <g id="text_8">
      <!-- −0.25 -->
      <g style="fill: #262626" transform="translate(29.35 365.232383) scale(0.132 -0.132)">
       <defs>
        <path id="DejaVuSans-2212" d="M 678 2272 
L 4684 2272 
L 4684 1741 
L 678 1741 
L 678 2272 
z
" transform="scale(0.015625)"/>
        <path id="DejaVuSans-32" d="M 1228 531 
L 3431 531 
L 3431 0 
L 469 0 
L 469 531 
Q 828 903 1448 1529 
Q 2069 2156 2228 2338 
Q 2531 2678 2651 2914 
Q 2772 3150 2772 3378 
Q 2772 3750 2511 3984 
Q 2250 4219 1831 4219 
Q 1534 4219 1204 4116 
Q 875 4013 500 3803 
L 500 4441 
Q 881 4594 1212 4672 
Q 1544 4750 1819 4750 
Q 2544 4750 2975 4387 
Q 3406 4025 3406 3419 
Q 3406 3131 3298 2873 
Q 3191 2616 2906 2266 
Q 2828 2175 2409 1742 
Q 1991 1309 1228 531 
z
" transform="scale(0.015625)"/>
       </defs>
       <use xlink:href="#DejaVuSans-2212"/>
       <use xlink:href="#DejaVuSans-30" x="83.789062"/>
       <use xlink:href="#DejaVuSans-2e" x="147.412109"/>
       <use xlink:href="#DejaVuSans-32" x="179.199219"/>
       <use xlink:href="#DejaVuSans-35" x="242.822266"/>
      </g>
     </g>
    </g>
    <g id="ytick_2">
     <g id="line2d_8">
      <path d="M 78.101813 320.285101 
L 594.291812 320.285101 
" clip-path="url(#ped05ce57e3)" style="fill: none; stroke: #ffffff; stroke-width: 0.8; stroke-linecap: round"/>
     </g>
     <g id="text_9">
      <!-- 0.00 -->
      <g style="fill: #262626" transform="translate(40.411188 325.30007) scale(0.132 -0.132)">
       <use xlink:href="#DejaVuSans-30"/>
       <use xlink:href="#DejaVuSans-2e" x="63.623047"/>
       <use xlink:href="#DejaVuSans-30" x="95.410156"/>
       <use xlink:href="#DejaVuSans-30" x="159.033203"/>
      </g>
     </g>
    </g>
    <g id="ytick_3">
     <g id="line2d_9">
      <path d="M 78.101813 280.352788 
L 594.291812 280.352788 
" clip-path="url(#ped05ce57e3)" style="fill: none; stroke: #ffffff; stroke-width: 0.8; stroke-linecap: round"/>
     </g>
     <g id="text_10">
      <!-- 0.25 -->
      <g style="fill: #262626" transform="translate(40.411188 285.367757) scale(0.132 -0.132)">
       <use xlink:href="#DejaVuSans-30"/>
       <use xlink:href="#DejaVuSans-2e" x="63.623047"/>
       <use xlink:href="#DejaVuSans-32" x="95.410156"/>
       <use xlink:href="#DejaVuSans-35" x="159.033203"/>
      </g>
     </g>
    </g>
    <g id="ytick_4">
     <g id="line2d_10">
      <path d="M 78.101813 240.420475 
L 594.291812 240.420475 
" clip-path="url(#ped05ce57e3)" style="fill: none; stroke: #ffffff; stroke-width: 0.8; stroke-linecap: round"/>
     </g>
     <g id="text_11">
      <!-- 0.50 -->
      <g style="fill: #262626" transform="translate(40.411188 245.435444) scale(0.132 -0.132)">
       <use xlink:href="#DejaVuSans-30"/>
       <use xlink:href="#DejaVuSans-2e" x="63.623047"/>
       <use xlink:href="#DejaVuSans-35" x="95.410156"/>
       <use xlink:href="#DejaVuSans-30" x="159.033203"/>
      </g>
     </g>
    </g>
    <g id="ytick_5">
     <g id="line2d_11">
      <path d="M 78.101813 200.488162 
L 594.291812 200.488162 
" clip-path="url(#ped05ce57e3)" style="fill: none; stroke: #ffffff; stroke-width: 0.8; stroke-linecap: round"/>
     </g>
     <g id="text_12">
      <!-- 0.75 -->
      <g style="fill: #262626" transform="translate(40.411188 205.503131) scale(0.132 -0.132)">
       <use xlink:href="#DejaVuSans-30"/>
       <use xlink:href="#DejaVuSans-2e" x="63.623047"/>
       <use xlink:href="#DejaVuSans-37" x="95.410156"/>
       <use xlink:href="#DejaVuSans-35" x="159.033203"/>
      </g>
     </g>
    </g>
    <g id="ytick_6">
     <g id="line2d_12">
      <path d="M 78.101813 160.555849 
L 594.291812 160.555849 
" clip-path="url(#ped05ce57e3)" style="fill: none; stroke: #ffffff; stroke-width: 0.8; stroke-linecap: round"/>
     </g>
     <g id="text_13">
      <!-- 1.00 -->
      <g style="fill: #262626" transform="translate(40.411188 165.570818) scale(0.132 -0.132)">
       <defs>
        <path id="DejaVuSans-31" d="M 794 531 
L 1825 531 
L 1825 4091 
L 703 3866 
L 703 4441 
L 1819 4666 
L 2450 4666 
L 2450 531 
L 3481 531 
L 3481 0 
L 794 0 
L 794 531 
z
" transform="scale(0.015625)"/>
       </defs>
       <use xlink:href="#DejaVuSans-31"/>
       <use xlink:href="#DejaVuSans-2e" x="63.623047"/>
       <use xlink:href="#DejaVuSans-30" x="95.410156"/>
       <use xlink:href="#DejaVuSans-30" x="159.033203"/>
      </g>
     </g>
    </g>
    <g id="ytick_7">
     <g id="line2d_13">
      <path d="M 78.101813 120.623536 
L 594.291812 120.623536 
" clip-path="url(#ped05ce57e3)" style="fill: none; stroke: #ffffff; stroke-width: 0.8; stroke-linecap: round"/>
     </g>
     <g id="text_14">
      <!-- 1.25 -->
      <g style="fill: #262626" transform="translate(40.411188 125.638505) scale(0.132 -0.132)">
       <use xlink:href="#DejaVuSans-31"/>
       <use xlink:href="#DejaVuSans-2e" x="63.623047"/>
       <use xlink:href="#DejaVuSans-32" x="95.410156"/>
       <use xlink:href="#DejaVuSans-35" x="159.033203"/>
      </g>
     </g>
    </g>
    <g id="ytick_8">
     <g id="line2d_14">
      <path d="M 78.101813 80.691223 
L 594.291812 80.691223 
" clip-path="url(#ped05ce57e3)" style="fill: none; stroke: #ffffff; stroke-width: 0.8; stroke-linecap: round"/>
     </g>
     <g id="text_15">
      <!-- 1.50 -->
      <g style="fill: #262626" transform="translate(40.411188 85.706192) scale(0.132 -0.132)">
       <use xlink:href="#DejaVuSans-31"/>
       <use xlink:href="#DejaVuSans-2e" x="63.623047"/>
       <use xlink:href="#DejaVuSans-35" x="95.410156"/>
       <use xlink:href="#DejaVuSans-30" x="159.033203"/>
      </g>
     </g>
    </g>
    <g id="text_16">
     <!-- Estimated Weight ($\omega_\alpha^{(k)}$) -->
     <g style="fill: #262626" transform="translate(21 306.99) rotate(-90) scale(0.15 -0.15)">
      <defs>
       <path id="DejaVuSans-45" d="M 628 4666 
L 3578 4666 
L 3578 4134 
L 1259 4134 
L 1259 2753 
L 3481 2753 
L 3481 2222 
L 1259 2222 
L 1259 531 
L 3634 531 
L 3634 0 
L 628 0 
L 628 4666 
z
" transform="scale(0.015625)"/>
       <path id="DejaVuSans-6d" d="M 3328 2828 
Q 3544 3216 3844 3400 
Q 4144 3584 4550 3584 
Q 5097 3584 5394 3201 
Q 5691 2819 5691 2113 
L 5691 0 
L 5113 0 
L 5113 2094 
Q 5113 2597 4934 2840 
Q 4756 3084 4391 3084 
Q 3944 3084 3684 2787 
Q 3425 2491 3425 1978 
L 3425 0 
L 2847 0 
L 2847 2094 
Q 2847 2600 2669 2842 
Q 2491 3084 2119 3084 
Q 1678 3084 1418 2786 
Q 1159 2488 1159 1978 
L 1159 0 
L 581 0 
L 581 3500 
L 1159 3500 
L 1159 2956 
Q 1356 3278 1631 3431 
Q 1906 3584 2284 3584 
Q 2666 3584 2933 3390 
Q 3200 3197 3328 2828 
z
" transform="scale(0.015625)"/>
       <path id="DejaVuSans-57" d="M 213 4666 
L 850 4666 
L 1831 722 
L 2809 4666 
L 3519 4666 
L 4500 722 
L 5478 4666 
L 6119 4666 
L 4947 0 
L 4153 0 
L 3169 4050 
L 2175 0 
L 1381 0 
L 213 4666 
z
" transform="scale(0.015625)"/>
       <path id="DejaVuSans-67" d="M 2906 1791 
Q 2906 2416 2648 2759 
Q 2391 3103 1925 3103 
Q 1463 3103 1205 2759 
Q 947 2416 947 1791 
Q 947 1169 1205 825 
Q 1463 481 1925 481 
Q 2391 481 2648 825 
Q 2906 1169 2906 1791 
z
M 3481 434 
Q 3481 -459 3084 -895 
Q 2688 -1331 1869 -1331 
Q 1566 -1331 1297 -1286 
Q 1028 -1241 775 -1147 
L 775 -588 
Q 1028 -725 1275 -790 
Q 1522 -856 1778 -856 
Q 2344 -856 2625 -561 
Q 2906 -266 2906 331 
L 2906 616 
Q 2728 306 2450 153 
Q 2172 0 1784 0 
Q 1141 0 747 490 
Q 353 981 353 1791 
Q 353 2603 747 3093 
Q 1141 3584 1784 3584 
Q 2172 3584 2450 3431 
Q 2728 3278 2906 2969 
L 2906 3500 
L 3481 3500 
L 3481 434 
z
" transform="scale(0.015625)"/>
       <path id="DejaVuSans-Oblique-3c9" d="M 1369 -91 
Q 72 -91 434 1766 
Q 575 2500 1256 3500 
L 1875 3500 
Q 1231 2500 1088 1750 
Q 819 397 1519 397 
Q 2166 397 2478 2078 
L 3009 2078 
Q 2669 388 3316 397 
Q 4013 403 4275 1750 
Q 4419 2500 4169 3500 
L 4788 3500 
Q 5075 2500 4934 1766 
Q 4578 -94 3278 -91 
Q 2428 -88 2503 844 
Q 2194 -91 1369 -91 
z
" transform="scale(0.015625)"/>
      </defs>
      <use xlink:href="#DejaVuSans-45" transform="translate(0 0.529687)"/>
      <use xlink:href="#DejaVuSans-73" transform="translate(63.183594 0.529687)"/>
      <use xlink:href="#DejaVuSans-74" transform="translate(115.283203 0.529687)"/>
      <use xlink:href="#DejaVuSans-69" transform="translate(154.492188 0.529687)"/>
      <use xlink:href="#DejaVuSans-6d" transform="translate(182.275391 0.529687)"/>
      <use xlink:href="#DejaVuSans-61" transform="translate(279.6875 0.529687)"/>
      <use xlink:href="#DejaVuSans-74" transform="translate(340.966797 0.529687)"/>
      <use xlink:href="#DejaVuSans-65" transform="translate(380.175781 0.529687)"/>
      <use xlink:href="#DejaVuSans-64" transform="translate(441.699219 0.529687)"/>
      <use xlink:href="#DejaVuSans-20" transform="translate(505.175781 0.529687)"/>
      <use xlink:href="#DejaVuSans-57" transform="translate(536.962891 0.529687)"/>
      <use xlink:href="#DejaVuSans-65" transform="translate(635.839844 0.529687)"/>
      <use xlink:href="#DejaVuSans-69" transform="translate(697.363281 0.529687)"/>
      <use xlink:href="#DejaVuSans-67" transform="translate(725.146484 0.529687)"/>
      <use xlink:href="#DejaVuSans-68" transform="translate(788.623047 0.529687)"/>
      <use xlink:href="#DejaVuSans-74" transform="translate(852.001953 0.529687)"/>
      <use xlink:href="#DejaVuSans-20" transform="translate(891.210938 0.529687)"/>
      <use xlink:href="#DejaVuSans-28" transform="translate(922.998047 0.529687)"/>
      <use xlink:href="#DejaVuSans-Oblique-3c9" transform="translate(962.011719 0.529687)"/>
      <use xlink:href="#DejaVuSans-28" transform="translate(1050.218099 38.810938) scale(0.7)"/>
      <use xlink:href="#DejaVuSans-Oblique-6b" transform="translate(1077.527669 38.810938) scale(0.7)"/>
      <use xlink:href="#DejaVuSans-29" transform="translate(1118.064779 38.810938) scale(0.7)"/>
      <use xlink:href="#DejaVuSans-Oblique-3b1" transform="translate(1045.751953 -26.814063) scale(0.7)"/>
      <use xlink:href="#DejaVuSans-29" transform="translate(1148.108724 0.529687)"/>
     </g>
    </g>
   </g>
   <g id="PathCollection_1">
    <defs>
     <path id="mf4420ede70" d="M 0 2.4 
C 0.636487 2.4 1.246992 2.147121 1.697056 1.697056 
C 2.147121 1.246992 2.4 0.636487 2.4 0 
C 2.4 -0.636487 2.147121 -1.246992 1.697056 -1.697056 
C 1.246992 -2.147121 0.636487 -2.4 0 -2.4 
C -0.636487 -2.4 -1.246992 -2.147121 -1.697056 -1.697056 
C -2.147121 -1.246992 -2.4 -0.636487 -2.4 0 
C -2.4 0.636487 -2.147121 1.246992 -1.697056 1.697056 
C -1.246992 2.147121 -0.636487 2.4 0 2.4 
z
" style="stroke: #0173b2; stroke-opacity: 0.8"/>
    </defs>
    <g clip-path="url(#ped05ce57e3)">
     <use xlink:href="#mf4420ede70" x="101.564994" y="287.312225" style="fill: #0173b2; fill-opacity: 0.8; stroke: #0173b2; stroke-opacity: 0.8"/>
     <use xlink:href="#mf4420ede70" x="116.141629" y="297.279843" style="fill: #0173b2; fill-opacity: 0.8; stroke: #0173b2; stroke-opacity: 0.8"/>
     <use xlink:href="#mf4420ede70" x="150.855794" y="270.517726" style="fill: #0173b2; fill-opacity: 0.8; stroke: #0173b2; stroke-opacity: 0.8"/>
     <use xlink:href="#mf4420ede70" x="176.536047" y="244.599398" style="fill: #0173b2; fill-opacity: 0.8; stroke: #0173b2; stroke-opacity: 0.8"/>
     <use xlink:href="#mf4420ede70" x="179.940041" y="239.590697" style="fill: #0173b2; fill-opacity: 0.8; stroke: #0173b2; stroke-opacity: 0.8"/>
     <use xlink:href="#mf4420ede70" x="201.053796" y="192.177264" style="fill: #0173b2; fill-opacity: 0.8; stroke: #0173b2; stroke-opacity: 0.8"/>
     <use xlink:href="#mf4420ede70" x="207.382567" y="234.157936" style="fill: #0173b2; fill-opacity: 0.8; stroke: #0173b2; stroke-opacity: 0.8"/>
     <use xlink:href="#mf4420ede70" x="210.776839" y="192.790754" style="fill: #0173b2; fill-opacity: 0.8; stroke: #0173b2; stroke-opacity: 0.8"/>
     <use xlink:href="#mf4420ede70" x="263.090639" y="122.805643" style="fill: #0173b2; fill-opacity: 0.8; stroke: #0173b2; stroke-opacity: 0.8"/>
     <use xlink:href="#mf4420ede70" x="286.19466" y="136.009227" style="fill: #0173b2; fill-opacity: 0.8; stroke: #0173b2; stroke-opacity: 0.8"/>
     <use xlink:href="#mf4420ede70" x="313.562975" y="114.252962" style="fill: #0173b2; fill-opacity: 0.8; stroke: #0173b2; stroke-opacity: 0.8"/>
     <use xlink:href="#mf4420ede70" x="324.388352" y="99.58562" style="fill: #0173b2; fill-opacity: 0.8; stroke: #0173b2; stroke-opacity: 0.8"/>
     <use xlink:href="#mf4420ede70" x="324.539498" y="108.149326" style="fill: #0173b2; fill-opacity: 0.8; stroke: #0173b2; stroke-opacity: 0.8"/>
     <use xlink:href="#mf4420ede70" x="325.549487" y="118.093887" style="fill: #0173b2; fill-opacity: 0.8; stroke: #0173b2; stroke-opacity: 0.8"/>
     <use xlink:href="#mf4420ede70" x="389.483612" y="95.966338" style="fill: #0173b2; fill-opacity: 0.8; stroke: #0173b2; stroke-opacity: 0.8"/>
     <use xlink:href="#mf4420ede70" x="400.105125" y="100.07881" style="fill: #0173b2; fill-opacity: 0.8; stroke: #0173b2; stroke-opacity: 0.8"/>
     <use xlink:href="#mf4420ede70" x="459.846604" y="93.302244" style="fill: #0173b2; fill-opacity: 0.8; stroke: #0173b2; stroke-opacity: 0.8"/>
     <use xlink:href="#mf4420ede70" x="467.731055" y="96.686571" style="fill: #0173b2; fill-opacity: 0.8; stroke: #0173b2; stroke-opacity: 0.8"/>
     <use xlink:href="#mf4420ede70" x="486.493515" y="86.730513" style="fill: #0173b2; fill-opacity: 0.8; stroke: #0173b2; stroke-opacity: 0.8"/>
     <use xlink:href="#mf4420ede70" x="570.828631" y="81.03" style="fill: #0173b2; fill-opacity: 0.8; stroke: #0173b2; stroke-opacity: 0.8"/>
    </g>
   </g>
   <g id="PathCollection_2">
    <defs>
     <path id="mc0d015bea0" d="M 0 2.4 
C 0.636487 2.4 1.246992 2.147121 1.697056 1.697056 
C 2.147121 1.246992 2.4 0.636487 2.4 0 
C 2.4 -0.636487 2.147121 -1.246992 1.697056 -1.697056 
C 1.246992 -2.147121 0.636487 -2.4 0 -2.4 
C -0.636487 -2.4 -1.246992 -2.147121 -1.697056 -1.697056 
C -2.147121 -1.246992 -2.4 -0.636487 -2.4 0 
C -2.4 0.636487 -2.147121 1.246992 -1.697056 1.697056 
C -1.246992 2.147121 -0.636487 2.4 0 2.4 
z
" style="stroke: #de8f05; stroke-opacity: 0.8"/>
    </defs>
    <g clip-path="url(#ped05ce57e3)">
     <use xlink:href="#mc0d015bea0" x="101.564994" y="166.063141" style="fill: #de8f05; fill-opacity: 0.8; stroke: #de8f05; stroke-opacity: 0.8"/>
     <use xlink:href="#mc0d015bea0" x="116.141629" y="170.681889" style="fill: #de8f05; fill-opacity: 0.8; stroke: #de8f05; stroke-opacity: 0.8"/>
     <use xlink:href="#mc0d015bea0" x="150.855794" y="173.526517" style="fill: #de8f05; fill-opacity: 0.8; stroke: #de8f05; stroke-opacity: 0.8"/>
     <use xlink:href="#mc0d015bea0" x="176.536047" y="189.572811" style="fill: #de8f05; fill-opacity: 0.8; stroke: #de8f05; stroke-opacity: 0.8"/>
     <use xlink:href="#mc0d015bea0" x="179.940041" y="184.871895" style="fill: #de8f05; fill-opacity: 0.8; stroke: #de8f05; stroke-opacity: 0.8"/>
     <use xlink:href="#mc0d015bea0" x="201.053796" y="176.191748" style="fill: #de8f05; fill-opacity: 0.8; stroke: #de8f05; stroke-opacity: 0.8"/>
     <use xlink:href="#mc0d015bea0" x="207.382567" y="177.412427" style="fill: #de8f05; fill-opacity: 0.8; stroke: #de8f05; stroke-opacity: 0.8"/>
     <use xlink:href="#mc0d015bea0" x="210.776839" y="186.88348" style="fill: #de8f05; fill-opacity: 0.8; stroke: #de8f05; stroke-opacity: 0.8"/>
     <use xlink:href="#mc0d015bea0" x="263.090639" y="158.761544" style="fill: #de8f05; fill-opacity: 0.8; stroke: #de8f05; stroke-opacity: 0.8"/>
     <use xlink:href="#mc0d015bea0" x="286.19466" y="161.692386" style="fill: #de8f05; fill-opacity: 0.8; stroke: #de8f05; stroke-opacity: 0.8"/>
     <use xlink:href="#mc0d015bea0" x="313.562975" y="158.312112" style="fill: #de8f05; fill-opacity: 0.8; stroke: #de8f05; stroke-opacity: 0.8"/>
     <use xlink:href="#mc0d015bea0" x="324.388352" y="147.686892" style="fill: #de8f05; fill-opacity: 0.8; stroke: #de8f05; stroke-opacity: 0.8"/>
     <use xlink:href="#mc0d015bea0" x="324.539498" y="151.9209" style="fill: #de8f05; fill-opacity: 0.8; stroke: #de8f05; stroke-opacity: 0.8"/>
     <use xlink:href="#mc0d015bea0" x="325.549487" y="160.081598" style="fill: #de8f05; fill-opacity: 0.8; stroke: #de8f05; stroke-opacity: 0.8"/>
     <use xlink:href="#mc0d015bea0" x="389.483612" y="143.439167" style="fill: #de8f05; fill-opacity: 0.8; stroke: #de8f05; stroke-opacity: 0.8"/>
     <use xlink:href="#mc0d015bea0" x="400.105125" y="145.614603" style="fill: #de8f05; fill-opacity: 0.8; stroke: #de8f05; stroke-opacity: 0.8"/>
     <use xlink:href="#mc0d015bea0" x="459.846604" y="141.690132" style="fill: #de8f05; fill-opacity: 0.8; stroke: #de8f05; stroke-opacity: 0.8"/>
     <use xlink:href="#mc0d015bea0" x="467.731055" y="143.286621" style="fill: #de8f05; fill-opacity: 0.8; stroke: #de8f05; stroke-opacity: 0.8"/>
     <use xlink:href="#mc0d015bea0" x="486.493515" y="139.346295" style="fill: #de8f05; fill-opacity: 0.8; stroke: #de8f05; stroke-opacity: 0.8"/>
     <use xlink:href="#mc0d015bea0" x="570.828631" y="134.080824" style="fill: #de8f05; fill-opacity: 0.8; stroke: #de8f05; stroke-opacity: 0.8"/>
    </g>
   </g>
   <g id="PathCollection_3">
    <defs>
     <path id="m223fca8129" d="M 0 2.4 
C 0.636487 2.4 1.246992 2.147121 1.697056 1.697056 
C 2.147121 1.246992 2.4 0.636487 2.4 0 
C 2.4 -0.636487 2.147121 -1.246992 1.697056 -1.697056 
C 1.246992 -2.147121 0.636487 -2.4 0 -2.4 
C -0.636487 -2.4 -1.246992 -2.147121 -1.697056 -1.697056 
C -2.147121 -1.246992 -2.4 -0.636487 -2.4 0 
C -2.4 0.636487 -2.147121 1.246992 -1.697056 1.697056 
C -1.246992 2.147121 -0.636487 2.4 0 2.4 
z
" style="stroke: #029e73; stroke-opacity: 0.8"/>
    </defs>
    <g clip-path="url(#ped05ce57e3)">
     <use xlink:href="#m223fca8129" x="101.564994" y="160.658865" style="fill: #029e73; fill-opacity: 0.8; stroke: #029e73; stroke-opacity: 0.8"/>
     <use xlink:href="#m223fca8129" x="116.141629" y="160.734626" style="fill: #029e73; fill-opacity: 0.8; stroke: #029e73; stroke-opacity: 0.8"/>
     <use xlink:href="#m223fca8129" x="150.855794" y="160.594436" style="fill: #029e73; fill-opacity: 0.8; stroke: #029e73; stroke-opacity: 0.8"/>
     <use xlink:href="#m223fca8129" x="176.536047" y="160.575665" style="fill: #029e73; fill-opacity: 0.8; stroke: #029e73; stroke-opacity: 0.8"/>
     <use xlink:href="#m223fca8129" x="179.940041" y="160.569141" style="fill: #029e73; fill-opacity: 0.8; stroke: #029e73; stroke-opacity: 0.8"/>
     <use xlink:href="#m223fca8129" x="201.053796" y="160.683984" style="fill: #029e73; fill-opacity: 0.8; stroke: #029e73; stroke-opacity: 0.8"/>
     <use xlink:href="#m223fca8129" x="207.382567" y="160.532989" style="fill: #029e73; fill-opacity: 0.8; stroke: #029e73; stroke-opacity: 0.8"/>
     <use xlink:href="#m223fca8129" x="210.776839" y="160.595898" style="fill: #029e73; fill-opacity: 0.8; stroke: #029e73; stroke-opacity: 0.8"/>
     <use xlink:href="#m223fca8129" x="263.090639" y="160.563079" style="fill: #029e73; fill-opacity: 0.8; stroke: #029e73; stroke-opacity: 0.8"/>
     <use xlink:href="#m223fca8129" x="286.19466" y="160.521433" style="fill: #029e73; fill-opacity: 0.8; stroke: #029e73; stroke-opacity: 0.8"/>
     <use xlink:href="#m223fca8129" x="313.562975" y="160.537405" style="fill: #029e73; fill-opacity: 0.8; stroke: #029e73; stroke-opacity: 0.8"/>
     <use xlink:href="#m223fca8129" x="324.388352" y="160.513138" style="fill: #029e73; fill-opacity: 0.8; stroke: #029e73; stroke-opacity: 0.8"/>
     <use xlink:href="#m223fca8129" x="324.539498" y="160.510873" style="fill: #029e73; fill-opacity: 0.8; stroke: #029e73; stroke-opacity: 0.8"/>
     <use xlink:href="#m223fca8129" x="325.549487" y="160.508758" style="fill: #029e73; fill-opacity: 0.8; stroke: #029e73; stroke-opacity: 0.8"/>
     <use xlink:href="#m223fca8129" x="389.483612" y="160.520715" style="fill: #029e73; fill-opacity: 0.8; stroke: #029e73; stroke-opacity: 0.8"/>
     <use xlink:href="#m223fca8129" x="400.105125" y="160.49618" style="fill: #029e73; fill-opacity: 0.8; stroke: #029e73; stroke-opacity: 0.8"/>
     <use xlink:href="#m223fca8129" x="459.846604" y="160.500265" style="fill: #029e73; fill-opacity: 0.8; stroke: #029e73; stroke-opacity: 0.8"/>
     <use xlink:href="#m223fca8129" x="467.731055" y="160.502967" style="fill: #029e73; fill-opacity: 0.8; stroke: #029e73; stroke-opacity: 0.8"/>
     <use xlink:href="#m223fca8129" x="486.493515" y="160.500986" style="fill: #029e73; fill-opacity: 0.8; stroke: #029e73; stroke-opacity: 0.8"/>
     <use xlink:href="#m223fca8129" x="570.828631" y="160.495579" style="fill: #029e73; fill-opacity: 0.8; stroke: #029e73; stroke-opacity: 0.8"/>
    </g>
   </g>
   <g id="line2d_15">
    <path d="M 101.564994 314.693392 
L 106.305031 308.492917 
L 111.045068 302.386767 
L 115.785105 296.374522 
L 120.525141 290.455763 
L 125.265178 284.630068 
L 130.005215 278.897018 
L 134.745251 273.256192 
L 139.485288 267.707171 
L 144.225325 262.249534 
L 148.965362 256.88286 
L 153.705398 251.60673 
L 158.445435 246.420723 
L 163.185472 241.32442 
L 167.925509 236.317399 
L 172.665545 231.399241 
L 177.405582 226.569525 
L 182.145619 221.827832 
L 186.885655 217.17374 
L 191.625692 212.606831 
L 196.365729 208.126683 
L 201.105766 203.732876 
L 205.845802 199.42499 
L 210.585839 195.202606 
L 215.325876 191.065302 
L 220.065913 187.012658 
L 224.805949 183.044255 
L 229.545986 179.159671 
L 234.286023 175.358488 
L 239.02606 171.640284 
L 243.766096 168.004639 
L 248.506133 164.451134 
L 253.24617 160.979347 
L 257.986206 157.588859 
L 262.726243 154.27925 
L 267.46628 151.050099 
L 272.206317 147.900986 
L 276.946353 144.831491 
L 281.68639 141.841193 
L 286.426427 138.929673 
L 291.166464 136.096509 
L 295.9065 133.341283 
L 300.646537 130.663574 
L 305.386574 128.06296 
L 310.12661 125.539024 
L 314.866647 123.091343 
L 319.606684 120.719498 
L 324.346721 118.423069 
L 329.086757 116.201635 
L 333.826794 114.054776 
L 338.566831 111.982072 
L 343.306868 109.983103 
L 348.046904 108.057448 
L 352.786941 106.204688 
L 357.526978 104.424401 
L 362.267015 102.716169 
L 367.007051 101.07957 
L 371.747088 99.514185 
L 376.487125 98.019592 
L 381.227161 96.595373 
L 385.967198 95.241106 
L 390.707235 93.956372 
L 395.447272 92.74075 
L 400.187308 91.593821 
L 404.927345 90.515163 
L 409.667382 89.504356 
L 414.407419 88.560981 
L 419.147455 87.684618 
L 423.887492 86.874845 
L 428.627529 86.131243 
L 433.367565 85.453392 
L 438.107602 84.84087 
L 442.847639 84.293259 
L 447.587676 83.810138 
L 452.327712 83.391087 
L 457.067749 83.035684 
L 461.807786 82.743511 
L 466.547823 82.514147 
L 471.287859 82.347172 
L 476.027896 82.242165 
L 480.767933 82.198707 
L 485.50797 82.216377 
L 490.248006 82.294754 
L 494.988043 82.43342 
L 499.72808 82.631952 
L 504.468116 82.889932 
L 509.208153 83.206939 
L 513.94819 83.582553 
L 518.688227 84.016353 
L 523.428263 84.507919 
L 528.1683 85.056832 
L 532.908337 85.66267 
L 537.648374 86.325015 
L 542.38841 87.043444 
L 547.128447 87.817539 
L 551.868484 88.646879 
L 556.60852 89.531044 
L 561.348557 90.469613 
L 566.088594 91.462166 
L 570.828631 92.508284 
" clip-path="url(#ped05ce57e3)" style="fill: none; stroke: #0173b2; stroke-width: 1.8; stroke-linecap: round"/>
   </g>
   <g id="line2d_16">
    <path d="M 101.564994 171.929996 
L 106.305031 172.736328 
L 111.045068 173.473351 
L 115.785105 174.142497 
L 120.525141 174.745197 
L 125.265178 175.282883 
L 130.005215 175.756988 
L 134.745251 176.168941 
L 139.485288 176.520177 
L 144.225325 176.812125 
L 148.965362 177.046217 
L 153.705398 177.223886 
L 158.445435 177.346563 
L 163.185472 177.41568 
L 167.925509 177.432668 
L 172.665545 177.39896 
L 177.405582 177.315986 
L 182.145619 177.185179 
L 186.885655 177.00797 
L 191.625692 176.78579 
L 196.365729 176.520073 
L 201.105766 176.212249 
L 205.845802 175.86375 
L 210.585839 175.476007 
L 215.325876 175.050453 
L 220.065913 174.588519 
L 224.805949 174.091637 
L 229.545986 173.561239 
L 234.286023 172.998755 
L 239.02606 172.405619 
L 243.766096 171.783261 
L 248.506133 171.133114 
L 253.24617 170.456608 
L 257.986206 169.755177 
L 262.726243 169.03025 
L 267.46628 168.283261 
L 272.206317 167.515641 
L 276.946353 166.728821 
L 281.68639 165.924233 
L 286.426427 165.103309 
L 291.166464 164.267481 
L 295.9065 163.41818 
L 300.646537 162.556838 
L 305.386574 161.684887 
L 310.12661 160.803758 
L 314.866647 159.914883 
L 319.606684 159.019694 
L 324.346721 158.119622 
L 329.086757 157.2161 
L 333.826794 156.310559 
L 338.566831 155.40443 
L 343.306868 154.499145 
L 348.046904 153.596137 
L 352.786941 152.696836 
L 357.526978 151.802674 
L 362.267015 150.915084 
L 367.007051 150.035496 
L 371.747088 149.165343 
L 376.487125 148.306056 
L 381.227161 147.459067 
L 385.967198 146.625807 
L 390.707235 145.807709 
L 395.447272 145.006203 
L 400.187308 144.222723 
L 404.927345 143.458698 
L 409.667382 142.715562 
L 414.407419 141.994745 
L 419.147455 141.29768 
L 423.887492 140.625798 
L 428.627529 139.980531 
L 433.367565 139.363311 
L 438.107602 138.775568 
L 442.847639 138.218736 
L 447.587676 137.694245 
L 452.327712 137.203528 
L 457.067749 136.748016 
L 461.807786 136.32914 
L 466.547823 135.948333 
L 471.287859 135.607026 
L 476.027896 135.306651 
L 480.767933 135.04864 
L 485.50797 134.834423 
L 490.248006 134.665434 
L 494.988043 134.543103 
L 499.72808 134.468863 
L 504.468116 134.444144 
L 509.208153 134.47038 
L 513.94819 134.549 
L 518.688227 134.681438 
L 523.428263 134.869125 
L 528.1683 135.113492 
L 532.908337 135.415972 
L 537.648374 135.777995 
L 542.38841 136.200994 
L 547.128447 136.6864 
L 551.868484 137.235645 
L 556.60852 137.850162 
L 561.348557 138.53138 
L 566.088594 139.280733 
L 570.828631 140.099651 
" clip-path="url(#ped05ce57e3)" style="fill: none; stroke: #de8f05; stroke-width: 1.8; stroke-linecap: round"/>
   </g>
   <g id="line2d_17">
    <path d="M 101.564994 160.689276 
L 106.305031 160.682992 
L 111.045068 160.67685 
L 115.785105 160.67085 
L 120.525141 160.664988 
L 125.265178 160.659263 
L 130.005215 160.653675 
L 134.745251 160.64822 
L 139.485288 160.642898 
L 144.225325 160.637707 
L 148.965362 160.632644 
L 153.705398 160.627709 
L 158.445435 160.6229 
L 163.185472 160.618215 
L 167.925509 160.613652 
L 172.665545 160.60921 
L 177.405582 160.604887 
L 182.145619 160.600681 
L 186.885655 160.596591 
L 191.625692 160.592616 
L 196.365729 160.588752 
L 201.105766 160.585 
L 205.845802 160.581356 
L 210.585839 160.57782 
L 215.325876 160.57439 
L 220.065913 160.571064 
L 224.805949 160.56784 
L 229.545986 160.564717 
L 234.286023 160.561693 
L 239.02606 160.558766 
L 243.766096 160.555935 
L 248.506133 160.553199 
L 253.24617 160.550554 
L 257.986206 160.548001 
L 262.726243 160.545537 
L 267.46628 160.54316 
L 272.206317 160.540869 
L 276.946353 160.538662 
L 281.68639 160.536537 
L 286.426427 160.534493 
L 291.166464 160.532528 
L 295.9065 160.530641 
L 300.646537 160.52883 
L 305.386574 160.527092 
L 310.12661 160.525427 
L 314.866647 160.523833 
L 319.606684 160.522308 
L 324.346721 160.520851 
L 329.086757 160.519459 
L 333.826794 160.518132 
L 338.566831 160.516867 
L 343.306868 160.515662 
L 348.046904 160.514517 
L 352.786941 160.513429 
L 357.526978 160.512398 
L 362.267015 160.51142 
L 367.007051 160.510495 
L 371.747088 160.50962 
L 376.487125 160.508795 
L 381.227161 160.508017 
L 385.967198 160.507285 
L 390.707235 160.506597 
L 395.447272 160.505952 
L 400.187308 160.505347 
L 404.927345 160.504782 
L 409.667382 160.504254 
L 414.407419 160.503762 
L 419.147455 160.503304 
L 423.887492 160.502879 
L 428.627529 160.502484 
L 433.367565 160.502119 
L 438.107602 160.501781 
L 442.847639 160.501469 
L 447.587676 160.501181 
L 452.327712 160.500916 
L 457.067749 160.500671 
L 461.807786 160.500446 
L 466.547823 160.500238 
L 471.287859 160.500046 
L 476.027896 160.499868 
L 480.767933 160.499703 
L 485.50797 160.499549 
L 490.248006 160.499403 
L 494.988043 160.499266 
L 499.72808 160.499134 
L 504.468116 160.499006 
L 509.208153 160.498881 
L 513.94819 160.498757 
L 518.688227 160.498632 
L 523.428263 160.498504 
L 528.1683 160.498373 
L 532.908337 160.498235 
L 537.648374 160.49809 
L 542.38841 160.497937 
L 547.128447 160.497772 
L 551.868484 160.497595 
L 556.60852 160.497403 
L 561.348557 160.497196 
L 566.088594 160.496971 
L 570.828631 160.496728 
" clip-path="url(#ped05ce57e3)" style="fill: none; stroke: #029e73; stroke-width: 1.8; stroke-linecap: round"/>
   </g>
   <g id="patch_3">
    <path d="M 78.101813 368.436 
L 78.101813 67.344 
" style="fill: none; stroke: #ffffff; stroke-linejoin: miter; stroke-linecap: square"/>
   </g>
   <g id="patch_4">
    <path d="M 78.101812 368.436 
L 594.291812 368.436 
" style="fill: none; stroke: #ffffff; stroke-linejoin: miter; stroke-linecap: square"/>
   </g>
   <g id="text_17">
    <!-- kr-vs-kp -->
    <g style="fill: #262626" transform="translate(302.962062 61.344) scale(0.144 -0.144)">
     <defs>
      <path id="DejaVuSans-Bold-6b" d="M 538 4863 
L 1656 4863 
L 1656 2216 
L 2944 3500 
L 4244 3500 
L 2534 1894 
L 4378 0 
L 3022 0 
L 1656 1459 
L 1656 0 
L 538 0 
L 538 4863 
z
" transform="scale(0.015625)"/>
      <path id="DejaVuSans-Bold-72" d="M 3138 2547 
Q 2991 2616 2845 2648 
Q 2700 2681 2553 2681 
Q 2122 2681 1889 2404 
Q 1656 2128 1656 1613 
L 1656 0 
L 538 0 
L 538 3500 
L 1656 3500 
L 1656 2925 
Q 1872 3269 2151 3426 
Q 2431 3584 2822 3584 
Q 2878 3584 2943 3579 
Q 3009 3575 3134 3559 
L 3138 2547 
z
" transform="scale(0.015625)"/>
      <path id="DejaVuSans-Bold-2d" d="M 347 2297 
L 2309 2297 
L 2309 1388 
L 347 1388 
L 347 2297 
z
" transform="scale(0.015625)"/>
      <path id="DejaVuSans-Bold-76" d="M 97 3500 
L 1216 3500 
L 2088 1081 
L 2956 3500 
L 4078 3500 
L 2700 0 
L 1472 0 
L 97 3500 
z
" transform="scale(0.015625)"/>
      <path id="DejaVuSans-Bold-73" d="M 3272 3391 
L 3272 2541 
Q 2913 2691 2578 2766 
Q 2244 2841 1947 2841 
Q 1628 2841 1473 2761 
Q 1319 2681 1319 2516 
Q 1319 2381 1436 2309 
Q 1553 2238 1856 2203 
L 2053 2175 
Q 2913 2066 3209 1816 
Q 3506 1566 3506 1031 
Q 3506 472 3093 190 
Q 2681 -91 1863 -91 
Q 1516 -91 1145 -36 
Q 775 19 384 128 
L 384 978 
Q 719 816 1070 734 
Q 1422 653 1784 653 
Q 2113 653 2278 743 
Q 2444 834 2444 1013 
Q 2444 1163 2330 1236 
Q 2216 1309 1875 1350 
L 1678 1375 
Q 931 1469 631 1722 
Q 331 1975 331 2491 
Q 331 3047 712 3315 
Q 1094 3584 1881 3584 
Q 2191 3584 2531 3537 
Q 2872 3491 3272 3391 
z
" transform="scale(0.015625)"/>
      <path id="DejaVuSans-Bold-70" d="M 1656 506 
L 1656 -1331 
L 538 -1331 
L 538 3500 
L 1656 3500 
L 1656 2988 
Q 1888 3294 2169 3439 
Q 2450 3584 2816 3584 
Q 3463 3584 3878 3070 
Q 4294 2556 4294 1747 
Q 4294 938 3878 423 
Q 3463 -91 2816 -91 
Q 2450 -91 2169 54 
Q 1888 200 1656 506 
z
M 2400 2772 
Q 2041 2772 1848 2508 
Q 1656 2244 1656 1747 
Q 1656 1250 1848 986 
Q 2041 722 2400 722 
Q 2759 722 2948 984 
Q 3138 1247 3138 1747 
Q 3138 2247 2948 2509 
Q 2759 2772 2400 2772 
z
" transform="scale(0.015625)"/>
     </defs>
     <use xlink:href="#DejaVuSans-Bold-6b"/>
     <use xlink:href="#DejaVuSans-Bold-72" x="66.503906"/>
     <use xlink:href="#DejaVuSans-Bold-2d" x="115.820312"/>
     <use xlink:href="#DejaVuSans-Bold-76" x="157.324219"/>
     <use xlink:href="#DejaVuSans-Bold-73" x="222.509766"/>
     <use xlink:href="#DejaVuSans-Bold-2d" x="282.03125"/>
     <use xlink:href="#DejaVuSans-Bold-6b" x="323.535156"/>
     <use xlink:href="#DejaVuSans-Bold-70" x="390.039062"/>
    </g>
   </g>
  </g>
  <g id="axes_2">
   <g id="patch_5">
    <path d="M 609.843812 368.436 
L 1126.033812 368.436 
L 1126.033812 67.344 
L 609.843812 67.344 
z
" style="fill: #eaeaf2"/>
   </g>
   <g id="matplotlib.axis_3">
    <g id="xtick_7">
     <g id="line2d_18">
      <path d="M 633.245865 368.436 
L 633.245865 67.344 
" clip-path="url(#pf48a6e421e)" style="fill: none; stroke: #ffffff; stroke-width: 0.8; stroke-linecap: round"/>
     </g>
     <g id="text_18">
      <!-- 0.4 -->
      <g style="fill: #262626" transform="translate(622.749802 386.765937) scale(0.132 -0.132)">
       <use xlink:href="#DejaVuSans-30"/>
       <use xlink:href="#DejaVuSans-2e" x="63.623047"/>
       <use xlink:href="#DejaVuSans-34" x="95.410156"/>
      </g>
     </g>
    </g>
    <g id="xtick_8">
     <g id="line2d_19">
      <path d="M 722.323693 368.436 
L 722.323693 67.344 
" clip-path="url(#pf48a6e421e)" style="fill: none; stroke: #ffffff; stroke-width: 0.8; stroke-linecap: round"/>
     </g>
     <g id="text_19">
      <!-- 0.5 -->
      <g style="fill: #262626" transform="translate(711.827631 386.765937) scale(0.132 -0.132)">
       <use xlink:href="#DejaVuSans-30"/>
       <use xlink:href="#DejaVuSans-2e" x="63.623047"/>
       <use xlink:href="#DejaVuSans-35" x="95.410156"/>
      </g>
     </g>
    </g>
    <g id="xtick_9">
     <g id="line2d_20">
      <path d="M 811.401522 368.436 
L 811.401522 67.344 
" clip-path="url(#pf48a6e421e)" style="fill: none; stroke: #ffffff; stroke-width: 0.8; stroke-linecap: round"/>
     </g>
     <g id="text_20">
      <!-- 0.6 -->
      <g style="fill: #262626" transform="translate(800.905459 386.765937) scale(0.132 -0.132)">
       <use xlink:href="#DejaVuSans-30"/>
       <use xlink:href="#DejaVuSans-2e" x="63.623047"/>
       <use xlink:href="#DejaVuSans-36" x="95.410156"/>
      </g>
     </g>
    </g>
    <g id="xtick_10">
     <g id="line2d_21">
      <path d="M 900.47935 368.436 
L 900.47935 67.344 
" clip-path="url(#pf48a6e421e)" style="fill: none; stroke: #ffffff; stroke-width: 0.8; stroke-linecap: round"/>
     </g>
     <g id="text_21">
      <!-- 0.7 -->
      <g style="fill: #262626" transform="translate(889.983287 386.765937) scale(0.132 -0.132)">
       <use xlink:href="#DejaVuSans-30"/>
       <use xlink:href="#DejaVuSans-2e" x="63.623047"/>
       <use xlink:href="#DejaVuSans-37" x="95.410156"/>
      </g>
     </g>
    </g>
    <g id="xtick_11">
     <g id="line2d_22">
      <path d="M 989.557178 368.436 
L 989.557178 67.344 
" clip-path="url(#pf48a6e421e)" style="fill: none; stroke: #ffffff; stroke-width: 0.8; stroke-linecap: round"/>
     </g>
     <g id="text_22">
      <!-- 0.8 -->
      <g style="fill: #262626" transform="translate(979.061116 386.765937) scale(0.132 -0.132)">
       <use xlink:href="#DejaVuSans-30"/>
       <use xlink:href="#DejaVuSans-2e" x="63.623047"/>
       <use xlink:href="#DejaVuSans-38" x="95.410156"/>
      </g>
     </g>
    </g>
    <g id="xtick_12">
     <g id="line2d_23">
      <path d="M 1078.635007 368.436 
L 1078.635007 67.344 
" clip-path="url(#pf48a6e421e)" style="fill: none; stroke: #ffffff; stroke-width: 0.8; stroke-linecap: round"/>
     </g>
     <g id="text_23">
      <!-- 0.9 -->
      <g style="fill: #262626" transform="translate(1068.138944 386.765937) scale(0.132 -0.132)">
       <use xlink:href="#DejaVuSans-30"/>
       <use xlink:href="#DejaVuSans-2e" x="63.623047"/>
       <use xlink:href="#DejaVuSans-39" x="95.410156"/>
      </g>
     </g>
    </g>
    <g id="text_24">
     <!-- Probability Threshold ($\pi_\alpha^{(k)}$) -->
     <g style="fill: #262626" transform="translate(768.038812 407.311125) scale(0.15 -0.15)">
      <use xlink:href="#DejaVuSans-50" transform="translate(0 0.529687)"/>
      <use xlink:href="#DejaVuSans-72" transform="translate(60.302734 0.529687)"/>
      <use xlink:href="#DejaVuSans-6f" transform="translate(101.416016 0.529687)"/>
      <use xlink:href="#DejaVuSans-62" transform="translate(162.597656 0.529687)"/>
      <use xlink:href="#DejaVuSans-61" transform="translate(226.074219 0.529687)"/>
      <use xlink:href="#DejaVuSans-62" transform="translate(287.353516 0.529687)"/>
      <use xlink:href="#DejaVuSans-69" transform="translate(350.830078 0.529687)"/>
      <use xlink:href="#DejaVuSans-6c" transform="translate(378.613281 0.529687)"/>
      <use xlink:href="#DejaVuSans-69" transform="translate(406.396484 0.529687)"/>
      <use xlink:href="#DejaVuSans-74" transform="translate(434.179688 0.529687)"/>
      <use xlink:href="#DejaVuSans-79" transform="translate(473.388672 0.529687)"/>
      <use xlink:href="#DejaVuSans-20" transform="translate(532.568359 0.529687)"/>
      <use xlink:href="#DejaVuSans-54" transform="translate(564.355469 0.529687)"/>
      <use xlink:href="#DejaVuSans-68" transform="translate(625.439453 0.529687)"/>
      <use xlink:href="#DejaVuSans-72" transform="translate(688.818359 0.529687)"/>
      <use xlink:href="#DejaVuSans-65" transform="translate(729.931641 0.529687)"/>
      <use xlink:href="#DejaVuSans-73" transform="translate(791.455078 0.529687)"/>
      <use xlink:href="#DejaVuSans-68" transform="translate(843.554688 0.529687)"/>
      <use xlink:href="#DejaVuSans-6f" transform="translate(906.933594 0.529687)"/>
      <use xlink:href="#DejaVuSans-6c" transform="translate(968.115234 0.529687)"/>
      <use xlink:href="#DejaVuSans-64" transform="translate(995.898438 0.529687)"/>
      <use xlink:href="#DejaVuSans-20" transform="translate(1059.375 0.529687)"/>
      <use xlink:href="#DejaVuSans-28" transform="translate(1091.162109 0.529687)"/>
      <use xlink:href="#DejaVuSans-Oblique-3c0" transform="translate(1130.175781 0.529687)"/>
      <use xlink:href="#DejaVuSans-28" transform="translate(1194.847005 38.810938) scale(0.7)"/>
      <use xlink:href="#DejaVuSans-Oblique-6b" transform="translate(1222.156576 38.810938) scale(0.7)"/>
      <use xlink:href="#DejaVuSans-29" transform="translate(1262.693685 38.810938) scale(0.7)"/>
      <use xlink:href="#DejaVuSans-Oblique-3b1" transform="translate(1190.380859 -26.814063) scale(0.7)"/>
      <use xlink:href="#DejaVuSans-29" transform="translate(1292.73763 0.529687)"/>
     </g>
    </g>
   </g>
   <g id="matplotlib.axis_4">
    <g id="ytick_9">
     <g id="line2d_24">
      <path d="M 609.843812 360.217415 
L 1126.033812 360.217415 
" clip-path="url(#pf48a6e421e)" style="fill: none; stroke: #ffffff; stroke-width: 0.8; stroke-linecap: round"/>
     </g>
    </g>
    <g id="ytick_10">
     <g id="line2d_25">
      <path d="M 609.843812 320.285101 
L 1126.033812 320.285101 
" clip-path="url(#pf48a6e421e)" style="fill: none; stroke: #ffffff; stroke-width: 0.8; stroke-linecap: round"/>
     </g>
    </g>
    <g id="ytick_11">
     <g id="line2d_26">
      <path d="M 609.843812 280.352788 
L 1126.033812 280.352788 
" clip-path="url(#pf48a6e421e)" style="fill: none; stroke: #ffffff; stroke-width: 0.8; stroke-linecap: round"/>
     </g>
    </g>
    <g id="ytick_12">
     <g id="line2d_27">
      <path d="M 609.843812 240.420475 
L 1126.033812 240.420475 
" clip-path="url(#pf48a6e421e)" style="fill: none; stroke: #ffffff; stroke-width: 0.8; stroke-linecap: round"/>
     </g>
    </g>
    <g id="ytick_13">
     <g id="line2d_28">
      <path d="M 609.843812 200.488162 
L 1126.033812 200.488162 
" clip-path="url(#pf48a6e421e)" style="fill: none; stroke: #ffffff; stroke-width: 0.8; stroke-linecap: round"/>
     </g>
    </g>
    <g id="ytick_14">
     <g id="line2d_29">
      <path d="M 609.843812 160.555849 
L 1126.033812 160.555849 
" clip-path="url(#pf48a6e421e)" style="fill: none; stroke: #ffffff; stroke-width: 0.8; stroke-linecap: round"/>
     </g>
    </g>
    <g id="ytick_15">
     <g id="line2d_30">
      <path d="M 609.843812 120.623536 
L 1126.033812 120.623536 
" clip-path="url(#pf48a6e421e)" style="fill: none; stroke: #ffffff; stroke-width: 0.8; stroke-linecap: round"/>
     </g>
    </g>
    <g id="ytick_16">
     <g id="line2d_31">
      <path d="M 609.843812 80.691223 
L 1126.033812 80.691223 
" clip-path="url(#pf48a6e421e)" style="fill: none; stroke: #ffffff; stroke-width: 0.8; stroke-linecap: round"/>
     </g>
    </g>
   </g>
   <g id="PathCollection_4">
    <g clip-path="url(#pf48a6e421e)">
     <use xlink:href="#mf4420ede70" x="633.306994" y="319.500581" style="fill: #0173b2; fill-opacity: 0.8; stroke: #0173b2; stroke-opacity: 0.8"/>
     <use xlink:href="#mf4420ede70" x="647.883629" y="312.835837" style="fill: #0173b2; fill-opacity: 0.8; stroke: #0173b2; stroke-opacity: 0.8"/>
     <use xlink:href="#mf4420ede70" x="682.597794" y="303.185802" style="fill: #0173b2; fill-opacity: 0.8; stroke: #0173b2; stroke-opacity: 0.8"/>
     <use xlink:href="#mf4420ede70" x="708.278047" y="276.054809" style="fill: #0173b2; fill-opacity: 0.8; stroke: #0173b2; stroke-opacity: 0.8"/>
     <use xlink:href="#mf4420ede70" x="711.682041" y="283.858186" style="fill: #0173b2; fill-opacity: 0.8; stroke: #0173b2; stroke-opacity: 0.8"/>
     <use xlink:href="#mf4420ede70" x="732.795796" y="201.386536" style="fill: #0173b2; fill-opacity: 0.8; stroke: #0173b2; stroke-opacity: 0.8"/>
     <use xlink:href="#mf4420ede70" x="739.124567" y="167.088692" style="fill: #0173b2; fill-opacity: 0.8; stroke: #0173b2; stroke-opacity: 0.8"/>
     <use xlink:href="#mf4420ede70" x="742.518839" y="167.147641" style="fill: #0173b2; fill-opacity: 0.8; stroke: #0173b2; stroke-opacity: 0.8"/>
     <use xlink:href="#mf4420ede70" x="794.832639" y="111.764736" style="fill: #0173b2; fill-opacity: 0.8; stroke: #0173b2; stroke-opacity: 0.8"/>
     <use xlink:href="#mf4420ede70" x="817.93666" y="101.810118" style="fill: #0173b2; fill-opacity: 0.8; stroke: #0173b2; stroke-opacity: 0.8"/>
     <use xlink:href="#mf4420ede70" x="845.304975" y="97.390651" style="fill: #0173b2; fill-opacity: 0.8; stroke: #0173b2; stroke-opacity: 0.8"/>
     <use xlink:href="#mf4420ede70" x="856.130352" y="102.352467" style="fill: #0173b2; fill-opacity: 0.8; stroke: #0173b2; stroke-opacity: 0.8"/>
     <use xlink:href="#mf4420ede70" x="856.281498" y="99.015633" style="fill: #0173b2; fill-opacity: 0.8; stroke: #0173b2; stroke-opacity: 0.8"/>
     <use xlink:href="#mf4420ede70" x="857.291487" y="98.74547" style="fill: #0173b2; fill-opacity: 0.8; stroke: #0173b2; stroke-opacity: 0.8"/>
     <use xlink:href="#mf4420ede70" x="921.225612" y="95.740955" style="fill: #0173b2; fill-opacity: 0.8; stroke: #0173b2; stroke-opacity: 0.8"/>
     <use xlink:href="#mf4420ede70" x="931.847125" y="96.137996" style="fill: #0173b2; fill-opacity: 0.8; stroke: #0173b2; stroke-opacity: 0.8"/>
     <use xlink:href="#mf4420ede70" x="991.588604" y="94.257162" style="fill: #0173b2; fill-opacity: 0.8; stroke: #0173b2; stroke-opacity: 0.8"/>
     <use xlink:href="#mf4420ede70" x="999.473055" y="95.164757" style="fill: #0173b2; fill-opacity: 0.8; stroke: #0173b2; stroke-opacity: 0.8"/>
     <use xlink:href="#mf4420ede70" x="1018.235515" y="93.252387" style="fill: #0173b2; fill-opacity: 0.8; stroke: #0173b2; stroke-opacity: 0.8"/>
     <use xlink:href="#mf4420ede70" x="1102.570631" y="94.426565" style="fill: #0173b2; fill-opacity: 0.8; stroke: #0173b2; stroke-opacity: 0.8"/>
    </g>
   </g>
   <g id="PathCollection_5">
    <g clip-path="url(#pf48a6e421e)">
     <use xlink:href="#mc0d015bea0" x="633.306994" y="149.62447" style="fill: #de8f05; fill-opacity: 0.8; stroke: #de8f05; stroke-opacity: 0.8"/>
     <use xlink:href="#mc0d015bea0" x="647.883629" y="153.993812" style="fill: #de8f05; fill-opacity: 0.8; stroke: #de8f05; stroke-opacity: 0.8"/>
     <use xlink:href="#mc0d015bea0" x="682.597794" y="180.884066" style="fill: #de8f05; fill-opacity: 0.8; stroke: #de8f05; stroke-opacity: 0.8"/>
     <use xlink:href="#mc0d015bea0" x="708.278047" y="204.864217" style="fill: #de8f05; fill-opacity: 0.8; stroke: #de8f05; stroke-opacity: 0.8"/>
     <use xlink:href="#mc0d015bea0" x="711.682041" y="192.199668" style="fill: #de8f05; fill-opacity: 0.8; stroke: #de8f05; stroke-opacity: 0.8"/>
     <use xlink:href="#mc0d015bea0" x="732.795796" y="200.568567" style="fill: #de8f05; fill-opacity: 0.8; stroke: #de8f05; stroke-opacity: 0.8"/>
     <use xlink:href="#mc0d015bea0" x="739.124567" y="186.10626" style="fill: #de8f05; fill-opacity: 0.8; stroke: #de8f05; stroke-opacity: 0.8"/>
     <use xlink:href="#mc0d015bea0" x="742.518839" y="180.044612" style="fill: #de8f05; fill-opacity: 0.8; stroke: #de8f05; stroke-opacity: 0.8"/>
     <use xlink:href="#mc0d015bea0" x="794.832639" y="153.11457" style="fill: #de8f05; fill-opacity: 0.8; stroke: #de8f05; stroke-opacity: 0.8"/>
     <use xlink:href="#mc0d015bea0" x="817.93666" y="149.291867" style="fill: #de8f05; fill-opacity: 0.8; stroke: #de8f05; stroke-opacity: 0.8"/>
     <use xlink:href="#mc0d015bea0" x="845.304975" y="146.84831" style="fill: #de8f05; fill-opacity: 0.8; stroke: #de8f05; stroke-opacity: 0.8"/>
     <use xlink:href="#mc0d015bea0" x="856.130352" y="150.270501" style="fill: #de8f05; fill-opacity: 0.8; stroke: #de8f05; stroke-opacity: 0.8"/>
     <use xlink:href="#mc0d015bea0" x="856.281498" y="147.312772" style="fill: #de8f05; fill-opacity: 0.8; stroke: #de8f05; stroke-opacity: 0.8"/>
     <use xlink:href="#mc0d015bea0" x="857.291487" y="147.322211" style="fill: #de8f05; fill-opacity: 0.8; stroke: #de8f05; stroke-opacity: 0.8"/>
     <use xlink:href="#mc0d015bea0" x="921.225612" y="144.985312" style="fill: #de8f05; fill-opacity: 0.8; stroke: #de8f05; stroke-opacity: 0.8"/>
     <use xlink:href="#mc0d015bea0" x="931.847125" y="145.823499" style="fill: #de8f05; fill-opacity: 0.8; stroke: #de8f05; stroke-opacity: 0.8"/>
     <use xlink:href="#mc0d015bea0" x="991.588604" y="144.457567" style="fill: #de8f05; fill-opacity: 0.8; stroke: #de8f05; stroke-opacity: 0.8"/>
     <use xlink:href="#mc0d015bea0" x="999.473055" y="145.113386" style="fill: #de8f05; fill-opacity: 0.8; stroke: #de8f05; stroke-opacity: 0.8"/>
     <use xlink:href="#mc0d015bea0" x="1018.235515" y="143.729102" style="fill: #de8f05; fill-opacity: 0.8; stroke: #de8f05; stroke-opacity: 0.8"/>
     <use xlink:href="#mc0d015bea0" x="1102.570631" y="144.562215" style="fill: #de8f05; fill-opacity: 0.8; stroke: #de8f05; stroke-opacity: 0.8"/>
    </g>
   </g>
   <g id="PathCollection_6">
    <g clip-path="url(#pf48a6e421e)">
     <use xlink:href="#m223fca8129" x="633.306994" y="160.633624" style="fill: #029e73; fill-opacity: 0.8; stroke: #029e73; stroke-opacity: 0.8"/>
     <use xlink:href="#m223fca8129" x="647.883629" y="160.569346" style="fill: #029e73; fill-opacity: 0.8; stroke: #029e73; stroke-opacity: 0.8"/>
     <use xlink:href="#m223fca8129" x="682.597794" y="160.591442" style="fill: #029e73; fill-opacity: 0.8; stroke: #029e73; stroke-opacity: 0.8"/>
     <use xlink:href="#m223fca8129" x="708.278047" y="160.581505" style="fill: #029e73; fill-opacity: 0.8; stroke: #029e73; stroke-opacity: 0.8"/>
     <use xlink:href="#m223fca8129" x="711.682041" y="160.589871" style="fill: #029e73; fill-opacity: 0.8; stroke: #029e73; stroke-opacity: 0.8"/>
     <use xlink:href="#m223fca8129" x="732.795796" y="160.549931" style="fill: #029e73; fill-opacity: 0.8; stroke: #029e73; stroke-opacity: 0.8"/>
     <use xlink:href="#m223fca8129" x="739.124567" y="160.611321" style="fill: #029e73; fill-opacity: 0.8; stroke: #029e73; stroke-opacity: 0.8"/>
     <use xlink:href="#m223fca8129" x="742.518839" y="160.53964" style="fill: #029e73; fill-opacity: 0.8; stroke: #029e73; stroke-opacity: 0.8"/>
     <use xlink:href="#m223fca8129" x="794.832639" y="160.594594" style="fill: #029e73; fill-opacity: 0.8; stroke: #029e73; stroke-opacity: 0.8"/>
     <use xlink:href="#m223fca8129" x="817.93666" y="160.539299" style="fill: #029e73; fill-opacity: 0.8; stroke: #029e73; stroke-opacity: 0.8"/>
     <use xlink:href="#m223fca8129" x="845.304975" y="160.5263" style="fill: #029e73; fill-opacity: 0.8; stroke: #029e73; stroke-opacity: 0.8"/>
     <use xlink:href="#m223fca8129" x="856.130352" y="160.52679" style="fill: #029e73; fill-opacity: 0.8; stroke: #029e73; stroke-opacity: 0.8"/>
     <use xlink:href="#m223fca8129" x="856.281498" y="160.557996" style="fill: #029e73; fill-opacity: 0.8; stroke: #029e73; stroke-opacity: 0.8"/>
     <use xlink:href="#m223fca8129" x="857.291487" y="160.533293" style="fill: #029e73; fill-opacity: 0.8; stroke: #029e73; stroke-opacity: 0.8"/>
     <use xlink:href="#m223fca8129" x="921.225612" y="160.52706" style="fill: #029e73; fill-opacity: 0.8; stroke: #029e73; stroke-opacity: 0.8"/>
     <use xlink:href="#m223fca8129" x="931.847125" y="160.557389" style="fill: #029e73; fill-opacity: 0.8; stroke: #029e73; stroke-opacity: 0.8"/>
     <use xlink:href="#m223fca8129" x="991.588604" y="160.522002" style="fill: #029e73; fill-opacity: 0.8; stroke: #029e73; stroke-opacity: 0.8"/>
     <use xlink:href="#m223fca8129" x="999.473055" y="160.523805" style="fill: #029e73; fill-opacity: 0.8; stroke: #029e73; stroke-opacity: 0.8"/>
     <use xlink:href="#m223fca8129" x="1018.235515" y="160.521784" style="fill: #029e73; fill-opacity: 0.8; stroke: #029e73; stroke-opacity: 0.8"/>
     <use xlink:href="#m223fca8129" x="1102.570631" y="160.519991" style="fill: #029e73; fill-opacity: 0.8; stroke: #029e73; stroke-opacity: 0.8"/>
    </g>
   </g>
   <g id="line2d_32">
    <path d="M 633.306994 354.75 
L 638.047031 345.536289 
L 642.787068 336.519138 
L 647.527105 327.6967 
L 652.267141 319.067128 
L 657.007178 310.628575 
L 661.747215 302.379195 
L 666.487251 294.317141 
L 671.227288 286.440565 
L 675.967325 278.747621 
L 680.707362 271.236461 
L 685.447398 263.905239 
L 690.187435 256.752109 
L 694.927472 249.775222 
L 699.667509 242.972732 
L 704.407545 236.342793 
L 709.147582 229.883557 
L 713.887619 223.593177 
L 718.627655 217.469807 
L 723.367692 211.511599 
L 728.107729 205.716707 
L 732.847766 200.083284 
L 737.587802 194.609483 
L 742.327839 189.293456 
L 747.067876 184.133358 
L 751.807913 179.127341 
L 756.547949 174.273558 
L 761.287986 169.570162 
L 766.028023 165.015307 
L 770.76806 160.607145 
L 775.508096 156.34383 
L 780.248133 152.223514 
L 784.98817 148.244352 
L 789.728206 144.404495 
L 794.468243 140.702097 
L 799.20828 137.135311 
L 803.948317 133.70229 
L 808.688353 130.401187 
L 813.42839 127.230156 
L 818.168427 124.187349 
L 822.908464 121.270919 
L 827.6485 118.479021 
L 832.388537 115.809805 
L 837.128574 113.261427 
L 841.86861 110.832038 
L 846.608647 108.519793 
L 851.348684 106.322843 
L 856.088721 104.239343 
L 860.828757 102.267444 
L 865.568794 100.405301 
L 870.308831 98.651067 
L 875.048868 97.002894 
L 879.788904 95.458935 
L 884.528941 94.017344 
L 889.268978 92.676274 
L 894.009015 91.433878 
L 898.749051 90.288309 
L 903.489088 89.237719 
L 908.229125 88.280263 
L 912.969161 87.414093 
L 917.709198 86.637362 
L 922.449235 85.948224 
L 927.189272 85.344831 
L 931.929308 84.825337 
L 936.669345 84.387895 
L 941.409382 84.030657 
L 946.149419 83.751777 
L 950.889455 83.549408 
L 955.629492 83.421703 
L 960.369529 83.366815 
L 965.109565 83.382898 
L 969.849602 83.468103 
L 974.589639 83.620585 
L 979.329676 83.838497 
L 984.069712 84.119991 
L 988.809749 84.463221 
L 993.549786 84.866339 
L 998.289823 85.3275 
L 1003.029859 85.844855 
L 1007.769896 86.416558 
L 1012.509933 87.040763 
L 1017.24997 87.715622 
L 1021.990006 88.439287 
L 1026.730043 89.209914 
L 1031.47008 90.025654 
L 1036.210116 90.88466 
L 1040.950153 91.785086 
L 1045.69019 92.725085 
L 1050.430227 93.70281 
L 1055.170263 94.716413 
L 1059.9103 95.764049 
L 1064.650337 96.84387 
L 1069.390374 97.954029 
L 1074.13041 99.092679 
L 1078.870447 100.257974 
L 1083.610484 101.448066 
L 1088.35052 102.661108 
L 1093.090557 103.895255 
L 1097.830594 105.148658 
L 1102.570631 106.419471 
" clip-path="url(#pf48a6e421e)" style="fill: none; stroke: #0173b2; stroke-width: 1.8; stroke-linecap: round"/>
   </g>
   <g id="line2d_33">
    <path d="M 633.306994 163.044503 
L 638.047031 164.908618 
L 642.787068 166.645343 
L 647.527105 168.257404 
L 652.267141 169.747528 
L 657.007178 171.118441 
L 661.747215 172.372872 
L 666.487251 173.513546 
L 671.227288 174.543191 
L 675.967325 175.464533 
L 680.707362 176.2803 
L 685.447398 176.993217 
L 690.187435 177.606013 
L 694.927472 178.121413 
L 699.667509 178.542145 
L 704.407545 178.870935 
L 709.147582 179.110511 
L 713.887619 179.263599 
L 718.627655 179.332925 
L 723.367692 179.321218 
L 728.107729 179.231204 
L 732.847766 179.065609 
L 737.587802 178.827161 
L 742.327839 178.518585 
L 747.067876 178.142611 
L 751.807913 177.701963 
L 756.547949 177.199369 
L 761.287986 176.637555 
L 766.028023 176.01925 
L 770.76806 175.347178 
L 775.508096 174.624069 
L 780.248133 173.852647 
L 784.98817 173.03564 
L 789.728206 172.175775 
L 794.468243 171.275779 
L 799.20828 170.338378 
L 803.948317 169.3663 
L 808.688353 168.362271 
L 813.42839 167.329018 
L 818.168427 166.269268 
L 822.908464 165.185748 
L 827.6485 164.081185 
L 832.388537 162.958305 
L 837.128574 161.819836 
L 841.86861 160.668504 
L 846.608647 159.507036 
L 851.348684 158.338159 
L 856.088721 157.164599 
L 860.828757 155.989085 
L 865.568794 154.814342 
L 870.308831 153.643097 
L 875.048868 152.478078 
L 879.788904 151.32201 
L 884.528941 150.177622 
L 889.268978 149.047639 
L 894.009015 147.934789 
L 898.749051 146.841799 
L 903.489088 145.771395 
L 908.229125 144.726304 
L 912.969161 143.709253 
L 917.709198 142.722969 
L 922.449235 141.770179 
L 927.189272 140.853609 
L 931.929308 139.975987 
L 936.669345 139.140039 
L 941.409382 138.348493 
L 946.149419 137.604074 
L 950.889455 136.909511 
L 955.629492 136.267529 
L 960.369529 135.680856 
L 965.109565 135.152218 
L 969.849602 134.684342 
L 974.589639 134.279956 
L 979.329676 133.941786 
L 984.069712 133.672558 
L 988.809749 133.475 
L 993.549786 133.351839 
L 998.289823 133.305802 
L 1003.029859 133.339614 
L 1007.769896 133.456004 
L 1012.509933 133.657698 
L 1017.24997 133.947422 
L 1021.990006 134.327905 
L 1026.730043 134.801871 
L 1031.47008 135.37205 
L 1036.210116 136.041166 
L 1040.950153 136.811948 
L 1045.69019 137.687121 
L 1050.430227 138.669414 
L 1055.170263 139.761552 
L 1059.9103 140.966263 
L 1064.650337 142.286273 
L 1069.390374 143.724309 
L 1074.13041 145.283098 
L 1078.870447 146.965368 
L 1083.610484 148.773844 
L 1088.35052 150.711254 
L 1093.090557 152.780324 
L 1097.830594 154.983782 
L 1102.570631 157.324354 
" clip-path="url(#pf48a6e421e)" style="fill: none; stroke: #de8f05; stroke-width: 1.8; stroke-linecap: round"/>
   </g>
   <g id="line2d_34">
    <path d="M 633.306994 160.60911 
L 638.047031 160.607087 
L 642.787068 160.605095 
L 647.527105 160.603133 
L 652.267141 160.601202 
L 657.007178 160.599301 
L 661.747215 160.59743 
L 666.487251 160.595588 
L 671.227288 160.593776 
L 675.967325 160.591993 
L 680.707362 160.590239 
L 685.447398 160.588513 
L 690.187435 160.586816 
L 694.927472 160.585147 
L 699.667509 160.583506 
L 704.407545 160.581893 
L 709.147582 160.580307 
L 713.887619 160.578748 
L 718.627655 160.577216 
L 723.367692 160.57571 
L 728.107729 160.574231 
L 732.847766 160.572778 
L 737.587802 160.571351 
L 742.327839 160.56995 
L 747.067876 160.568574 
L 751.807913 160.567223 
L 756.547949 160.565897 
L 761.287986 160.564595 
L 766.028023 160.563318 
L 770.76806 160.562065 
L 775.508096 160.560836 
L 780.248133 160.559631 
L 784.98817 160.558448 
L 789.728206 160.557289 
L 794.468243 160.556153 
L 799.20828 160.55504 
L 803.948317 160.553948 
L 808.688353 160.552879 
L 813.42839 160.551832 
L 818.168427 160.550806 
L 822.908464 160.549802 
L 827.6485 160.548819 
L 832.388537 160.547856 
L 837.128574 160.546914 
L 841.86861 160.545993 
L 846.608647 160.545092 
L 851.348684 160.54421 
L 856.088721 160.543348 
L 860.828757 160.542505 
L 865.568794 160.541682 
L 870.308831 160.540877 
L 875.048868 160.540091 
L 879.788904 160.539323 
L 884.528941 160.538574 
L 889.268978 160.537842 
L 894.009015 160.537127 
L 898.749051 160.53643 
L 903.489088 160.53575 
L 908.229125 160.535087 
L 912.969161 160.534441 
L 917.709198 160.533811 
L 922.449235 160.533196 
L 927.189272 160.532598 
L 931.929308 160.532015 
L 936.669345 160.531448 
L 941.409382 160.530895 
L 946.149419 160.530358 
L 950.889455 160.529835 
L 955.629492 160.529326 
L 960.369529 160.528831 
L 965.109565 160.52835 
L 969.849602 160.527883 
L 974.589639 160.527429 
L 979.329676 160.526988 
L 984.069712 160.52656 
L 988.809749 160.526144 
L 993.549786 160.525741 
L 998.289823 160.525349 
L 1003.029859 160.52497 
L 1007.769896 160.524602 
L 1012.509933 160.524245 
L 1017.24997 160.523899 
L 1021.990006 160.523564 
L 1026.730043 160.52324 
L 1031.47008 160.522926 
L 1036.210116 160.522622 
L 1040.950153 160.522328 
L 1045.69019 160.522043 
L 1050.430227 160.521767 
L 1055.170263 160.521501 
L 1059.9103 160.521243 
L 1064.650337 160.520994 
L 1069.390374 160.520753 
L 1074.13041 160.52052 
L 1078.870447 160.520295 
L 1083.610484 160.520077 
L 1088.35052 160.519867 
L 1093.090557 160.519664 
L 1097.830594 160.519467 
L 1102.570631 160.519277 
" clip-path="url(#pf48a6e421e)" style="fill: none; stroke: #029e73; stroke-width: 1.8; stroke-linecap: round"/>
   </g>
   <g id="patch_6">
    <path d="M 609.843812 368.436 
L 609.843812 67.344 
" style="fill: none; stroke: #ffffff; stroke-linejoin: miter; stroke-linecap: square"/>
   </g>
   <g id="patch_7">
    <path d="M 609.843812 368.436 
L 1126.033812 368.436 
" style="fill: none; stroke: #ffffff; stroke-linejoin: miter; stroke-linecap: square"/>
   </g>
   <g id="text_25">
    <!-- mushroom -->
    <g style="fill: #262626" transform="translate(824.953687 61.344) scale(0.144 -0.144)">
     <defs>
      <path id="DejaVuSans-Bold-6d" d="M 3781 2919 
Q 3994 3244 4286 3414 
Q 4578 3584 4928 3584 
Q 5531 3584 5847 3212 
Q 6163 2841 6163 2131 
L 6163 0 
L 5038 0 
L 5038 1825 
Q 5041 1866 5042 1909 
Q 5044 1953 5044 2034 
Q 5044 2406 4934 2573 
Q 4825 2741 4581 2741 
Q 4263 2741 4089 2478 
Q 3916 2216 3909 1719 
L 3909 0 
L 2784 0 
L 2784 1825 
Q 2784 2406 2684 2573 
Q 2584 2741 2328 2741 
Q 2006 2741 1831 2477 
Q 1656 2213 1656 1722 
L 1656 0 
L 531 0 
L 531 3500 
L 1656 3500 
L 1656 2988 
Q 1863 3284 2130 3434 
Q 2397 3584 2719 3584 
Q 3081 3584 3359 3409 
Q 3638 3234 3781 2919 
z
" transform="scale(0.015625)"/>
      <path id="DejaVuSans-Bold-75" d="M 500 1363 
L 500 3500 
L 1625 3500 
L 1625 3150 
Q 1625 2866 1622 2436 
Q 1619 2006 1619 1863 
Q 1619 1441 1641 1255 
Q 1663 1069 1716 984 
Q 1784 875 1895 815 
Q 2006 756 2150 756 
Q 2500 756 2700 1025 
Q 2900 1294 2900 1772 
L 2900 3500 
L 4019 3500 
L 4019 0 
L 2900 0 
L 2900 506 
Q 2647 200 2364 54 
Q 2081 -91 1741 -91 
Q 1134 -91 817 281 
Q 500 653 500 1363 
z
" transform="scale(0.015625)"/>
      <path id="DejaVuSans-Bold-68" d="M 4056 2131 
L 4056 0 
L 2931 0 
L 2931 347 
L 2931 1625 
Q 2931 2084 2911 2256 
Q 2891 2428 2841 2509 
Q 2775 2619 2662 2680 
Q 2550 2741 2406 2741 
Q 2056 2741 1856 2470 
Q 1656 2200 1656 1722 
L 1656 0 
L 538 0 
L 538 4863 
L 1656 4863 
L 1656 2988 
Q 1909 3294 2193 3439 
Q 2478 3584 2822 3584 
Q 3428 3584 3742 3212 
Q 4056 2841 4056 2131 
z
" transform="scale(0.015625)"/>
      <path id="DejaVuSans-Bold-6f" d="M 2203 2784 
Q 1831 2784 1636 2517 
Q 1441 2250 1441 1747 
Q 1441 1244 1636 976 
Q 1831 709 2203 709 
Q 2569 709 2762 976 
Q 2956 1244 2956 1747 
Q 2956 2250 2762 2517 
Q 2569 2784 2203 2784 
z
M 2203 3584 
Q 3106 3584 3614 3096 
Q 4122 2609 4122 1747 
Q 4122 884 3614 396 
Q 3106 -91 2203 -91 
Q 1297 -91 786 396 
Q 275 884 275 1747 
Q 275 2609 786 3096 
Q 1297 3584 2203 3584 
z
" transform="scale(0.015625)"/>
     </defs>
     <use xlink:href="#DejaVuSans-Bold-6d"/>
     <use xlink:href="#DejaVuSans-Bold-75" x="104.199219"/>
     <use xlink:href="#DejaVuSans-Bold-73" x="175.390625"/>
     <use xlink:href="#DejaVuSans-Bold-68" x="234.912109"/>
     <use xlink:href="#DejaVuSans-Bold-72" x="306.103516"/>
     <use xlink:href="#DejaVuSans-Bold-6f" x="355.419922"/>
     <use xlink:href="#DejaVuSans-Bold-6f" x="424.121094"/>
     <use xlink:href="#DejaVuSans-Bold-6d" x="492.822266"/>
    </g>
   </g>
  </g>
  <g id="text_26">
   <!-- Estimated Weight vs. Probability Threshold -->
   <g style="fill: #262626" transform="translate(561.463906 23.916562) scale(0.22 -0.22)">
    <defs>
     <path id="DejaVuSans-Bold-45" d="M 588 4666 
L 3834 4666 
L 3834 3756 
L 1791 3756 
L 1791 2888 
L 3713 2888 
L 3713 1978 
L 1791 1978 
L 1791 909 
L 3903 909 
L 3903 0 
L 588 0 
L 588 4666 
z
" transform="scale(0.015625)"/>
     <path id="DejaVuSans-Bold-74" d="M 1759 4494 
L 1759 3500 
L 2913 3500 
L 2913 2700 
L 1759 2700 
L 1759 1216 
Q 1759 972 1856 886 
Q 1953 800 2241 800 
L 2816 800 
L 2816 0 
L 1856 0 
Q 1194 0 917 276 
Q 641 553 641 1216 
L 641 2700 
L 84 2700 
L 84 3500 
L 641 3500 
L 641 4494 
L 1759 4494 
z
" transform="scale(0.015625)"/>
     <path id="DejaVuSans-Bold-69" d="M 538 3500 
L 1656 3500 
L 1656 0 
L 538 0 
L 538 3500 
z
M 538 4863 
L 1656 4863 
L 1656 3950 
L 538 3950 
L 538 4863 
z
" transform="scale(0.015625)"/>
     <path id="DejaVuSans-Bold-61" d="M 2106 1575 
Q 1756 1575 1579 1456 
Q 1403 1338 1403 1106 
Q 1403 894 1545 773 
Q 1688 653 1941 653 
Q 2256 653 2472 879 
Q 2688 1106 2688 1447 
L 2688 1575 
L 2106 1575 
z
M 3816 1997 
L 3816 0 
L 2688 0 
L 2688 519 
Q 2463 200 2181 54 
Q 1900 -91 1497 -91 
Q 953 -91 614 226 
Q 275 544 275 1050 
Q 275 1666 698 1953 
Q 1122 2241 2028 2241 
L 2688 2241 
L 2688 2328 
Q 2688 2594 2478 2717 
Q 2269 2841 1825 2841 
Q 1466 2841 1156 2769 
Q 847 2697 581 2553 
L 581 3406 
Q 941 3494 1303 3539 
Q 1666 3584 2028 3584 
Q 2975 3584 3395 3211 
Q 3816 2838 3816 1997 
z
" transform="scale(0.015625)"/>
     <path id="DejaVuSans-Bold-65" d="M 4031 1759 
L 4031 1441 
L 1416 1441 
Q 1456 1047 1700 850 
Q 1944 653 2381 653 
Q 2734 653 3104 758 
Q 3475 863 3866 1075 
L 3866 213 
Q 3469 63 3072 -14 
Q 2675 -91 2278 -91 
Q 1328 -91 801 392 
Q 275 875 275 1747 
Q 275 2603 792 3093 
Q 1309 3584 2216 3584 
Q 3041 3584 3536 3087 
Q 4031 2591 4031 1759 
z
M 2881 2131 
Q 2881 2450 2695 2645 
Q 2509 2841 2209 2841 
Q 1884 2841 1681 2658 
Q 1478 2475 1428 2131 
L 2881 2131 
z
" transform="scale(0.015625)"/>
     <path id="DejaVuSans-Bold-64" d="M 2919 2988 
L 2919 4863 
L 4044 4863 
L 4044 0 
L 2919 0 
L 2919 506 
Q 2688 197 2409 53 
Q 2131 -91 1766 -91 
Q 1119 -91 703 423 
Q 288 938 288 1747 
Q 288 2556 703 3070 
Q 1119 3584 1766 3584 
Q 2128 3584 2408 3439 
Q 2688 3294 2919 2988 
z
M 2181 722 
Q 2541 722 2730 984 
Q 2919 1247 2919 1747 
Q 2919 2247 2730 2509 
Q 2541 2772 2181 2772 
Q 1825 2772 1636 2509 
Q 1447 2247 1447 1747 
Q 1447 1247 1636 984 
Q 1825 722 2181 722 
z
" transform="scale(0.015625)"/>
     <path id="DejaVuSans-Bold-20" transform="scale(0.015625)"/>
     <path id="DejaVuSans-Bold-57" d="M 191 4666 
L 1344 4666 
L 2150 1275 
L 2950 4666 
L 4109 4666 
L 4909 1275 
L 5716 4666 
L 6859 4666 
L 5759 0 
L 4372 0 
L 3525 3547 
L 2688 0 
L 1300 0 
L 191 4666 
z
" transform="scale(0.015625)"/>
     <path id="DejaVuSans-Bold-67" d="M 2919 594 
Q 2688 288 2409 144 
Q 2131 0 1766 0 
Q 1125 0 706 504 
Q 288 1009 288 1791 
Q 288 2575 706 3076 
Q 1125 3578 1766 3578 
Q 2131 3578 2409 3434 
Q 2688 3291 2919 2981 
L 2919 3500 
L 4044 3500 
L 4044 353 
Q 4044 -491 3511 -936 
Q 2978 -1381 1966 -1381 
Q 1638 -1381 1331 -1331 
Q 1025 -1281 716 -1178 
L 716 -306 
Q 1009 -475 1290 -558 
Q 1572 -641 1856 -641 
Q 2406 -641 2662 -400 
Q 2919 -159 2919 353 
L 2919 594 
z
M 2181 2772 
Q 1834 2772 1640 2515 
Q 1447 2259 1447 1791 
Q 1447 1309 1634 1061 
Q 1822 813 2181 813 
Q 2531 813 2725 1069 
Q 2919 1325 2919 1791 
Q 2919 2259 2725 2515 
Q 2531 2772 2181 2772 
z
" transform="scale(0.015625)"/>
     <path id="DejaVuSans-Bold-2e" d="M 653 1209 
L 1778 1209 
L 1778 0 
L 653 0 
L 653 1209 
z
" transform="scale(0.015625)"/>
     <path id="DejaVuSans-Bold-50" d="M 588 4666 
L 2584 4666 
Q 3475 4666 3951 4270 
Q 4428 3875 4428 3144 
Q 4428 2409 3951 2014 
Q 3475 1619 2584 1619 
L 1791 1619 
L 1791 0 
L 588 0 
L 588 4666 
z
M 1791 3794 
L 1791 2491 
L 2456 2491 
Q 2806 2491 2997 2661 
Q 3188 2831 3188 3144 
Q 3188 3456 2997 3625 
Q 2806 3794 2456 3794 
L 1791 3794 
z
" transform="scale(0.015625)"/>
     <path id="DejaVuSans-Bold-62" d="M 2400 722 
Q 2759 722 2948 984 
Q 3138 1247 3138 1747 
Q 3138 2247 2948 2509 
Q 2759 2772 2400 2772 
Q 2041 2772 1848 2508 
Q 1656 2244 1656 1747 
Q 1656 1250 1848 986 
Q 2041 722 2400 722 
z
M 1656 2988 
Q 1888 3294 2169 3439 
Q 2450 3584 2816 3584 
Q 3463 3584 3878 3070 
Q 4294 2556 4294 1747 
Q 4294 938 3878 423 
Q 3463 -91 2816 -91 
Q 2450 -91 2169 54 
Q 1888 200 1656 506 
L 1656 0 
L 538 0 
L 538 4863 
L 1656 4863 
L 1656 2988 
z
" transform="scale(0.015625)"/>
     <path id="DejaVuSans-Bold-6c" d="M 538 4863 
L 1656 4863 
L 1656 0 
L 538 0 
L 538 4863 
z
" transform="scale(0.015625)"/>
     <path id="DejaVuSans-Bold-79" d="M 78 3500 
L 1197 3500 
L 2138 1125 
L 2938 3500 
L 4056 3500 
L 2584 -331 
Q 2363 -916 2067 -1148 
Q 1772 -1381 1288 -1381 
L 641 -1381 
L 641 -647 
L 991 -647 
Q 1275 -647 1404 -556 
Q 1534 -466 1606 -231 
L 1638 -134 
L 78 3500 
z
" transform="scale(0.015625)"/>
     <path id="DejaVuSans-Bold-54" d="M 31 4666 
L 4331 4666 
L 4331 3756 
L 2784 3756 
L 2784 0 
L 1581 0 
L 1581 3756 
L 31 3756 
L 31 4666 
z
" transform="scale(0.015625)"/>
    </defs>
    <use xlink:href="#DejaVuSans-Bold-45"/>
    <use xlink:href="#DejaVuSans-Bold-73" x="68.310547"/>
    <use xlink:href="#DejaVuSans-Bold-74" x="127.832031"/>
    <use xlink:href="#DejaVuSans-Bold-69" x="175.634766"/>
    <use xlink:href="#DejaVuSans-Bold-6d" x="209.912109"/>
    <use xlink:href="#DejaVuSans-Bold-61" x="314.111328"/>
    <use xlink:href="#DejaVuSans-Bold-74" x="381.591797"/>
    <use xlink:href="#DejaVuSans-Bold-65" x="429.394531"/>
    <use xlink:href="#DejaVuSans-Bold-64" x="497.216797"/>
    <use xlink:href="#DejaVuSans-Bold-20" x="568.798828"/>
    <use xlink:href="#DejaVuSans-Bold-57" x="603.613281"/>
    <use xlink:href="#DejaVuSans-Bold-65" x="710.291016"/>
    <use xlink:href="#DejaVuSans-Bold-69" x="778.113281"/>
    <use xlink:href="#DejaVuSans-Bold-67" x="812.390625"/>
    <use xlink:href="#DejaVuSans-Bold-68" x="883.972656"/>
    <use xlink:href="#DejaVuSans-Bold-74" x="955.164062"/>
    <use xlink:href="#DejaVuSans-Bold-20" x="1002.966797"/>
    <use xlink:href="#DejaVuSans-Bold-76" x="1037.78125"/>
    <use xlink:href="#DejaVuSans-Bold-73" x="1102.966797"/>
    <use xlink:href="#DejaVuSans-Bold-2e" x="1162.488281"/>
    <use xlink:href="#DejaVuSans-Bold-20" x="1200.476562"/>
    <use xlink:href="#DejaVuSans-Bold-50" x="1235.291016"/>
    <use xlink:href="#DejaVuSans-Bold-72" x="1308.582031"/>
    <use xlink:href="#DejaVuSans-Bold-6f" x="1357.898438"/>
    <use xlink:href="#DejaVuSans-Bold-62" x="1426.599609"/>
    <use xlink:href="#DejaVuSans-Bold-61" x="1498.181641"/>
    <use xlink:href="#DejaVuSans-Bold-62" x="1565.662109"/>
    <use xlink:href="#DejaVuSans-Bold-69" x="1637.244141"/>
    <use xlink:href="#DejaVuSans-Bold-6c" x="1671.521484"/>
    <use xlink:href="#DejaVuSans-Bold-69" x="1705.798828"/>
    <use xlink:href="#DejaVuSans-Bold-74" x="1740.076172"/>
    <use xlink:href="#DejaVuSans-Bold-79" x="1787.878906"/>
    <use xlink:href="#DejaVuSans-Bold-20" x="1853.064453"/>
    <use xlink:href="#DejaVuSans-Bold-54" x="1887.878906"/>
    <use xlink:href="#DejaVuSans-Bold-68" x="1956.091797"/>
    <use xlink:href="#DejaVuSans-Bold-72" x="2027.283203"/>
    <use xlink:href="#DejaVuSans-Bold-65" x="2076.599609"/>
    <use xlink:href="#DejaVuSans-Bold-73" x="2144.421875"/>
    <use xlink:href="#DejaVuSans-Bold-68" x="2203.943359"/>
    <use xlink:href="#DejaVuSans-Bold-6f" x="2275.134766"/>
    <use xlink:href="#DejaVuSans-Bold-6c" x="2343.835938"/>
    <use xlink:href="#DejaVuSans-Bold-64" x="2378.113281"/>
   </g>
  </g>
  <g id="legend_1">
   <g id="patch_8">
    <path d="M 966.562313 380.76 
L 1242.887813 380.76 
Q 1245.527813 380.76 1245.527813 378.12 
L 1245.527813 300.778125 
Q 1245.527813 298.138125 1242.887813 298.138125 
L 966.562313 298.138125 
Q 963.922313 298.138125 963.922313 300.778125 
L 963.922313 378.12 
Q 963.922313 380.76 966.562313 380.76 
z
" style="fill: #eaeaf2; opacity: 0.8; stroke: #cccccc; stroke-width: 0.8; stroke-linejoin: miter"/>
   </g>
   <g id="text_27">
    <!-- Method -->
    <g style="fill: #262626" transform="translate(1077.720563 314.359875) scale(0.144 -0.144)">
     <defs>
      <path id="DejaVuSans-4d" d="M 628 4666 
L 1569 4666 
L 2759 1491 
L 3956 4666 
L 4897 4666 
L 4897 0 
L 4281 0 
L 4281 4097 
L 3078 897 
L 2444 897 
L 1241 4097 
L 1241 0 
L 628 0 
L 628 4666 
z
" transform="scale(0.015625)"/>
     </defs>
     <use xlink:href="#DejaVuSans-4d"/>
     <use xlink:href="#DejaVuSans-65" x="86.279297"/>
     <use xlink:href="#DejaVuSans-74" x="147.802734"/>
     <use xlink:href="#DejaVuSans-68" x="187.011719"/>
     <use xlink:href="#DejaVuSans-6f" x="250.390625"/>
     <use xlink:href="#DejaVuSans-64" x="311.572266"/>
    </g>
   </g>
   <g id="PathCollection_7">
    <g>
     <use xlink:href="#mf4420ede70" x="982.402313" y="330.519562" style="fill: #0173b2; fill-opacity: 0.8; stroke: #0173b2; stroke-opacity: 0.8"/>
    </g>
   </g>
   <g id="text_28">
    <!-- Crowd-Certain -->
    <g style="fill: #262626" transform="translate(1006.162313 333.984562) scale(0.132 -0.132)">
     <defs>
      <path id="DejaVuSans-43" d="M 4122 4306 
L 4122 3641 
Q 3803 3938 3442 4084 
Q 3081 4231 2675 4231 
Q 1875 4231 1450 3742 
Q 1025 3253 1025 2328 
Q 1025 1406 1450 917 
Q 1875 428 2675 428 
Q 3081 428 3442 575 
Q 3803 722 4122 1019 
L 4122 359 
Q 3791 134 3420 21 
Q 3050 -91 2638 -91 
Q 1578 -91 968 557 
Q 359 1206 359 2328 
Q 359 3453 968 4101 
Q 1578 4750 2638 4750 
Q 3056 4750 3426 4639 
Q 3797 4528 4122 4306 
z
" transform="scale(0.015625)"/>
      <path id="DejaVuSans-77" d="M 269 3500 
L 844 3500 
L 1563 769 
L 2278 3500 
L 2956 3500 
L 3675 769 
L 4391 3500 
L 4966 3500 
L 4050 0 
L 3372 0 
L 2619 2869 
L 1863 0 
L 1184 0 
L 269 3500 
z
" transform="scale(0.015625)"/>
      <path id="DejaVuSans-2d" d="M 313 2009 
L 1997 2009 
L 1997 1497 
L 313 1497 
L 313 2009 
z
" transform="scale(0.015625)"/>
      <path id="DejaVuSans-6e" d="M 3513 2113 
L 3513 0 
L 2938 0 
L 2938 2094 
Q 2938 2591 2744 2837 
Q 2550 3084 2163 3084 
Q 1697 3084 1428 2787 
Q 1159 2491 1159 1978 
L 1159 0 
L 581 0 
L 581 3500 
L 1159 3500 
L 1159 2956 
Q 1366 3272 1645 3428 
Q 1925 3584 2291 3584 
Q 2894 3584 3203 3211 
Q 3513 2838 3513 2113 
z
" transform="scale(0.015625)"/>
     </defs>
     <use xlink:href="#DejaVuSans-43"/>
     <use xlink:href="#DejaVuSans-72" x="69.824219"/>
     <use xlink:href="#DejaVuSans-6f" x="108.6875"/>
     <use xlink:href="#DejaVuSans-77" x="169.869141"/>
     <use xlink:href="#DejaVuSans-64" x="251.65625"/>
     <use xlink:href="#DejaVuSans-2d" x="315.132812"/>
     <use xlink:href="#DejaVuSans-43" x="351.216797"/>
     <use xlink:href="#DejaVuSans-65" x="421.041016"/>
     <use xlink:href="#DejaVuSans-72" x="482.564453"/>
     <use xlink:href="#DejaVuSans-74" x="523.677734"/>
     <use xlink:href="#DejaVuSans-61" x="562.886719"/>
     <use xlink:href="#DejaVuSans-69" x="624.166016"/>
     <use xlink:href="#DejaVuSans-6e" x="651.949219"/>
    </g>
   </g>
   <g id="PathCollection_8">
    <g>
     <use xlink:href="#mc0d015bea0" x="982.402313" y="349.894687" style="fill: #de8f05; fill-opacity: 0.8; stroke: #de8f05; stroke-opacity: 0.8"/>
    </g>
   </g>
   <g id="text_29">
    <!-- Crowd-Certain Without Penalization -->
    <g style="fill: #262626" transform="translate(1006.162313 353.359687) scale(0.132 -0.132)">
     <defs>
      <path id="DejaVuSans-75" d="M 544 1381 
L 544 3500 
L 1119 3500 
L 1119 1403 
Q 1119 906 1312 657 
Q 1506 409 1894 409 
Q 2359 409 2629 706 
Q 2900 1003 2900 1516 
L 2900 3500 
L 3475 3500 
L 3475 0 
L 2900 0 
L 2900 538 
Q 2691 219 2414 64 
Q 2138 -91 1772 -91 
Q 1169 -91 856 284 
Q 544 659 544 1381 
z
M 1991 3584 
L 1991 3584 
z
" transform="scale(0.015625)"/>
      <path id="DejaVuSans-7a" d="M 353 3500 
L 3084 3500 
L 3084 2975 
L 922 459 
L 3084 459 
L 3084 0 
L 275 0 
L 275 525 
L 2438 3041 
L 353 3041 
L 353 3500 
z
" transform="scale(0.015625)"/>
     </defs>
     <use xlink:href="#DejaVuSans-43"/>
     <use xlink:href="#DejaVuSans-72" x="69.824219"/>
     <use xlink:href="#DejaVuSans-6f" x="108.6875"/>
     <use xlink:href="#DejaVuSans-77" x="169.869141"/>
     <use xlink:href="#DejaVuSans-64" x="251.65625"/>
     <use xlink:href="#DejaVuSans-2d" x="315.132812"/>
     <use xlink:href="#DejaVuSans-43" x="351.216797"/>
     <use xlink:href="#DejaVuSans-65" x="421.041016"/>
     <use xlink:href="#DejaVuSans-72" x="482.564453"/>
     <use xlink:href="#DejaVuSans-74" x="523.677734"/>
     <use xlink:href="#DejaVuSans-61" x="562.886719"/>
     <use xlink:href="#DejaVuSans-69" x="624.166016"/>
     <use xlink:href="#DejaVuSans-6e" x="651.949219"/>
     <use xlink:href="#DejaVuSans-20" x="715.328125"/>
     <use xlink:href="#DejaVuSans-57" x="747.115234"/>
     <use xlink:href="#DejaVuSans-69" x="843.742188"/>
     <use xlink:href="#DejaVuSans-74" x="871.525391"/>
     <use xlink:href="#DejaVuSans-68" x="910.734375"/>
     <use xlink:href="#DejaVuSans-6f" x="974.113281"/>
     <use xlink:href="#DejaVuSans-75" x="1035.294922"/>
     <use xlink:href="#DejaVuSans-74" x="1098.673828"/>
     <use xlink:href="#DejaVuSans-20" x="1137.882812"/>
     <use xlink:href="#DejaVuSans-50" x="1169.669922"/>
     <use xlink:href="#DejaVuSans-65" x="1226.347656"/>
     <use xlink:href="#DejaVuSans-6e" x="1287.871094"/>
     <use xlink:href="#DejaVuSans-61" x="1351.25"/>
     <use xlink:href="#DejaVuSans-6c" x="1412.529297"/>
     <use xlink:href="#DejaVuSans-69" x="1440.3125"/>
     <use xlink:href="#DejaVuSans-7a" x="1468.095703"/>
     <use xlink:href="#DejaVuSans-61" x="1520.585938"/>
     <use xlink:href="#DejaVuSans-74" x="1581.865234"/>
     <use xlink:href="#DejaVuSans-69" x="1621.074219"/>
     <use xlink:href="#DejaVuSans-6f" x="1648.857422"/>
     <use xlink:href="#DejaVuSans-6e" x="1710.039062"/>
    </g>
   </g>
   <g id="PathCollection_9">
    <g>
     <use xlink:href="#m223fca8129" x="982.402313" y="369.269812" style="fill: #029e73; fill-opacity: 0.8; stroke: #029e73; stroke-opacity: 0.8"/>
    </g>
   </g>
   <g id="text_30">
    <!-- Tao -->
    <g style="fill: #262626" transform="translate(1006.162313 372.734812) scale(0.132 -0.132)">
     <use xlink:href="#DejaVuSans-54"/>
     <use xlink:href="#DejaVuSans-61" x="44.583984"/>
     <use xlink:href="#DejaVuSans-6f" x="105.863281"/>
    </g>
   </g>
  </g>
 </g>
 <defs>
  <clipPath id="ped05ce57e3">
   <rect x="78.101813" y="67.344" width="516.19" height="301.092"/>
  </clipPath>
  <clipPath id="pf48a6e421e">
   <rect x="609.843812" y="67.344" width="516.19" height="301.092"/>
  </clipPath>
 </defs>
</svg>
