<?xml version="1.0" encoding="utf-8" standalone="no"?>
<!DOCTYPE svg PUBLIC "-//W3C//DTD SVG 1.1//EN"
  "http://www.w3.org/Graphics/SVG/1.1/DTD/svg11.dtd">
<svg xmlns:xlink="http://www.w3.org/1999/xlink" width="918.717812pt" height="1056.259375pt" viewBox="0 0 918.717812 1056.259375" xmlns="http://www.w3.org/2000/svg" version="1.1">
 <metadata>
  <rdf:RDF xmlns:dc="http://purl.org/dc/elements/1.1/" xmlns:cc="http://creativecommons.org/ns#" xmlns:rdf="http://www.w3.org/1999/02/22-rdf-syntax-ns#">
   <cc:Work>
    <dc:type rdf:resource="http://purl.org/dc/dcmitype/StillImage"/>
    <dc:date>2023-12-14T16:50:01.967030</dc:date>
    <dc:format>image/svg+xml</dc:format>
    <dc:creator>
     <cc:Agent>
      <dc:title>Matplotlib v3.8.1, https://matplotlib.org/</dc:title>
     </cc:Agent>
    </dc:creator>
   </cc:Work>
  </rdf:RDF>
 </metadata>
 <defs>
  <style type="text/css">*{stroke-linejoin: round; stroke-linecap: butt}</style>
 </defs>
 <g id="figure_1">
  <g id="patch_1">
   <path d="M 0 1056.259375 
L 918.717812 1056.259375 
L 918.717812 0 
L 0 0 
z
" style="fill: #ffffff"/>
  </g>
  <g id="axes_1">
   <g id="patch_2">
    <path d="M 125.461813 988.628 
L 377.112479 988.628 
L 377.112479 45.504 
L 125.461813 45.504 
z
" style="fill: #eaeaf2"/>
   </g>
   <g id="matplotlib.axis_1">
    <g id="xtick_1">
     <g id="line2d_1">
      <path d="M 173.976487 988.628 
L 173.976487 45.504 
" clip-path="url(#p925783b44a)" style="fill: none; stroke: #ffffff; stroke-width: 0.8; stroke-linecap: round"/>
     </g>
     <g id="text_1">
      <!-- 0.7 -->
      <g style="fill: #262626" transform="translate(163.480425 1006.957938) scale(0.132 -0.132)">
       <defs>
        <path id="DejaVuSans-30" d="M 2034 4250 
Q 1547 4250 1301 3770 
Q 1056 3291 1056 2328 
Q 1056 1369 1301 889 
Q 1547 409 2034 409 
Q 2525 409 2770 889 
Q 3016 1369 3016 2328 
Q 3016 3291 2770 3770 
Q 2525 4250 2034 4250 
z
M 2034 4750 
Q 2819 4750 3233 4129 
Q 3647 3509 3647 2328 
Q 3647 1150 3233 529 
Q 2819 -91 2034 -91 
Q 1250 -91 836 529 
Q 422 1150 422 2328 
Q 422 3509 836 4129 
Q 1250 4750 2034 4750 
z
" transform="scale(0.015625)"/>
        <path id="DejaVuSans-2e" d="M 684 794 
L 1344 794 
L 1344 0 
L 684 0 
L 684 794 
z
" transform="scale(0.015625)"/>
        <path id="DejaVuSans-37" d="M 525 4666 
L 3525 4666 
L 3525 4397 
L 1831 0 
L 1172 0 
L 2766 4134 
L 525 4134 
L 525 4666 
z
" transform="scale(0.015625)"/>
       </defs>
       <use xlink:href="#DejaVuSans-30"/>
       <use xlink:href="#DejaVuSans-2e" x="63.623047"/>
       <use xlink:href="#DejaVuSans-37" x="95.410156"/>
      </g>
     </g>
    </g>
    <g id="xtick_2">
     <g id="line2d_2">
      <path d="M 243.123691 988.628 
L 243.123691 45.504 
" clip-path="url(#p925783b44a)" style="fill: none; stroke: #ffffff; stroke-width: 0.8; stroke-linecap: round"/>
     </g>
     <g id="text_2">
      <!-- 0.8 -->
      <g style="fill: #262626" transform="translate(232.627629 1006.957938) scale(0.132 -0.132)">
       <defs>
        <path id="DejaVuSans-38" d="M 2034 2216 
Q 1584 2216 1326 1975 
Q 1069 1734 1069 1313 
Q 1069 891 1326 650 
Q 1584 409 2034 409 
Q 2484 409 2743 651 
Q 3003 894 3003 1313 
Q 3003 1734 2745 1975 
Q 2488 2216 2034 2216 
z
M 1403 2484 
Q 997 2584 770 2862 
Q 544 3141 544 3541 
Q 544 4100 942 4425 
Q 1341 4750 2034 4750 
Q 2731 4750 3128 4425 
Q 3525 4100 3525 3541 
Q 3525 3141 3298 2862 
Q 3072 2584 2669 2484 
Q 3125 2378 3379 2068 
Q 3634 1759 3634 1313 
Q 3634 634 3220 271 
Q 2806 -91 2034 -91 
Q 1263 -91 848 271 
Q 434 634 434 1313 
Q 434 1759 690 2068 
Q 947 2378 1403 2484 
z
M 1172 3481 
Q 1172 3119 1398 2916 
Q 1625 2713 2034 2713 
Q 2441 2713 2670 2916 
Q 2900 3119 2900 3481 
Q 2900 3844 2670 4047 
Q 2441 4250 2034 4250 
Q 1625 4250 1398 4047 
Q 1172 3844 1172 3481 
z
" transform="scale(0.015625)"/>
       </defs>
       <use xlink:href="#DejaVuSans-30"/>
       <use xlink:href="#DejaVuSans-2e" x="63.623047"/>
       <use xlink:href="#DejaVuSans-38" x="95.410156"/>
      </g>
     </g>
    </g>
    <g id="xtick_3">
     <g id="line2d_3">
      <path d="M 312.270895 988.628 
L 312.270895 45.504 
" clip-path="url(#p925783b44a)" style="fill: none; stroke: #ffffff; stroke-width: 0.8; stroke-linecap: round"/>
     </g>
     <g id="text_3">
      <!-- 0.9 -->
      <g style="fill: #262626" transform="translate(301.774833 1006.957938) scale(0.132 -0.132)">
       <defs>
        <path id="DejaVuSans-39" d="M 703 97 
L 703 672 
Q 941 559 1184 500 
Q 1428 441 1663 441 
Q 2288 441 2617 861 
Q 2947 1281 2994 2138 
Q 2813 1869 2534 1725 
Q 2256 1581 1919 1581 
Q 1219 1581 811 2004 
Q 403 2428 403 3163 
Q 403 3881 828 4315 
Q 1253 4750 1959 4750 
Q 2769 4750 3195 4129 
Q 3622 3509 3622 2328 
Q 3622 1225 3098 567 
Q 2575 -91 1691 -91 
Q 1453 -91 1209 -44 
Q 966 3 703 97 
z
M 1959 2075 
Q 2384 2075 2632 2365 
Q 2881 2656 2881 3163 
Q 2881 3666 2632 3958 
Q 2384 4250 1959 4250 
Q 1534 4250 1286 3958 
Q 1038 3666 1038 3163 
Q 1038 2656 1286 2365 
Q 1534 2075 1959 2075 
z
" transform="scale(0.015625)"/>
       </defs>
       <use xlink:href="#DejaVuSans-30"/>
       <use xlink:href="#DejaVuSans-2e" x="63.623047"/>
       <use xlink:href="#DejaVuSans-39" x="95.410156"/>
      </g>
     </g>
    </g>
    <g id="text_4">
     <!-- ACC -->
     <g style="fill: #262626" transform="translate(228.869958 1044.9) scale(0.2 -0.2)">
      <defs>
       <path id="DejaVuSans-Bold-41" d="M 3419 850 
L 1538 850 
L 1241 0 
L 31 0 
L 1759 4666 
L 3194 4666 
L 4922 0 
L 3713 0 
L 3419 850 
z
M 1838 1716 
L 3116 1716 
L 2478 3572 
L 1838 1716 
z
" transform="scale(0.015625)"/>
       <path id="DejaVuSans-Bold-43" d="M 4288 256 
Q 3956 84 3597 -3 
Q 3238 -91 2847 -91 
Q 1681 -91 1000 561 
Q 319 1213 319 2328 
Q 319 3447 1000 4098 
Q 1681 4750 2847 4750 
Q 3238 4750 3597 4662 
Q 3956 4575 4288 4403 
L 4288 3438 
Q 3953 3666 3628 3772 
Q 3303 3878 2944 3878 
Q 2300 3878 1931 3465 
Q 1563 3053 1563 2328 
Q 1563 1606 1931 1193 
Q 2300 781 2944 781 
Q 3303 781 3628 887 
Q 3953 994 4288 1222 
L 4288 256 
z
" transform="scale(0.015625)"/>
      </defs>
      <use xlink:href="#DejaVuSans-Bold-41"/>
      <use xlink:href="#DejaVuSans-Bold-43" x="77.392578"/>
      <use xlink:href="#DejaVuSans-Bold-43" x="150.78125"/>
     </g>
    </g>
   </g>
   <g id="matplotlib.axis_2">
    <g id="ytick_1">
     <g id="text_5">
      <!-- kr-vs-kp -->
      <g style="fill: #262626" transform="translate(65.042438 286.299969) scale(0.132 -0.132)">
       <defs>
        <path id="DejaVuSans-6b" d="M 581 4863 
L 1159 4863 
L 1159 1991 
L 2875 3500 
L 3609 3500 
L 1753 1863 
L 3688 0 
L 2938 0 
L 1159 1709 
L 1159 0 
L 581 0 
L 581 4863 
z
" transform="scale(0.015625)"/>
        <path id="DejaVuSans-72" d="M 2631 2963 
Q 2534 3019 2420 3045 
Q 2306 3072 2169 3072 
Q 1681 3072 1420 2755 
Q 1159 2438 1159 1844 
L 1159 0 
L 581 0 
L 581 3500 
L 1159 3500 
L 1159 2956 
Q 1341 3275 1631 3429 
Q 1922 3584 2338 3584 
Q 2397 3584 2469 3576 
Q 2541 3569 2628 3553 
L 2631 2963 
z
" transform="scale(0.015625)"/>
        <path id="DejaVuSans-2d" d="M 313 2009 
L 1997 2009 
L 1997 1497 
L 313 1497 
L 313 2009 
z
" transform="scale(0.015625)"/>
        <path id="DejaVuSans-76" d="M 191 3500 
L 800 3500 
L 1894 563 
L 2988 3500 
L 3597 3500 
L 2284 0 
L 1503 0 
L 191 3500 
z
" transform="scale(0.015625)"/>
        <path id="DejaVuSans-73" d="M 2834 3397 
L 2834 2853 
Q 2591 2978 2328 3040 
Q 2066 3103 1784 3103 
Q 1356 3103 1142 2972 
Q 928 2841 928 2578 
Q 928 2378 1081 2264 
Q 1234 2150 1697 2047 
L 1894 2003 
Q 2506 1872 2764 1633 
Q 3022 1394 3022 966 
Q 3022 478 2636 193 
Q 2250 -91 1575 -91 
Q 1294 -91 989 -36 
Q 684 19 347 128 
L 347 722 
Q 666 556 975 473 
Q 1284 391 1588 391 
Q 1994 391 2212 530 
Q 2431 669 2431 922 
Q 2431 1156 2273 1281 
Q 2116 1406 1581 1522 
L 1381 1569 
Q 847 1681 609 1914 
Q 372 2147 372 2553 
Q 372 3047 722 3315 
Q 1072 3584 1716 3584 
Q 2034 3584 2315 3537 
Q 2597 3491 2834 3397 
z
" transform="scale(0.015625)"/>
        <path id="DejaVuSans-70" d="M 1159 525 
L 1159 -1331 
L 581 -1331 
L 581 3500 
L 1159 3500 
L 1159 2969 
Q 1341 3281 1617 3432 
Q 1894 3584 2278 3584 
Q 2916 3584 3314 3078 
Q 3713 2572 3713 1747 
Q 3713 922 3314 415 
Q 2916 -91 2278 -91 
Q 1894 -91 1617 61 
Q 1341 213 1159 525 
z
M 3116 1747 
Q 3116 2381 2855 2742 
Q 2594 3103 2138 3103 
Q 1681 3103 1420 2742 
Q 1159 2381 1159 1747 
Q 1159 1113 1420 752 
Q 1681 391 2138 391 
Q 2594 391 2855 752 
Q 3116 1113 3116 1747 
z
" transform="scale(0.015625)"/>
       </defs>
       <use xlink:href="#DejaVuSans-6b"/>
       <use xlink:href="#DejaVuSans-72" x="57.910156"/>
       <use xlink:href="#DejaVuSans-2d" x="92.648438"/>
       <use xlink:href="#DejaVuSans-76" x="126.107422"/>
       <use xlink:href="#DejaVuSans-73" x="185.287109"/>
       <use xlink:href="#DejaVuSans-2d" x="237.386719"/>
       <use xlink:href="#DejaVuSans-6b" x="273.470703"/>
       <use xlink:href="#DejaVuSans-70" x="331.380859"/>
      </g>
     </g>
    </g>
    <g id="ytick_2">
     <g id="text_6">
      <!-- mushroom -->
      <g style="fill: #262626" transform="translate(46.55625 757.861969) scale(0.132 -0.132)">
       <defs>
        <path id="DejaVuSans-6d" d="M 3328 2828 
Q 3544 3216 3844 3400 
Q 4144 3584 4550 3584 
Q 5097 3584 5394 3201 
Q 5691 2819 5691 2113 
L 5691 0 
L 5113 0 
L 5113 2094 
Q 5113 2597 4934 2840 
Q 4756 3084 4391 3084 
Q 3944 3084 3684 2787 
Q 3425 2491 3425 1978 
L 3425 0 
L 2847 0 
L 2847 2094 
Q 2847 2600 2669 2842 
Q 2491 3084 2119 3084 
Q 1678 3084 1418 2786 
Q 1159 2488 1159 1978 
L 1159 0 
L 581 0 
L 581 3500 
L 1159 3500 
L 1159 2956 
Q 1356 3278 1631 3431 
Q 1906 3584 2284 3584 
Q 2666 3584 2933 3390 
Q 3200 3197 3328 2828 
z
" transform="scale(0.015625)"/>
        <path id="DejaVuSans-75" d="M 544 1381 
L 544 3500 
L 1119 3500 
L 1119 1403 
Q 1119 906 1312 657 
Q 1506 409 1894 409 
Q 2359 409 2629 706 
Q 2900 1003 2900 1516 
L 2900 3500 
L 3475 3500 
L 3475 0 
L 2900 0 
L 2900 538 
Q 2691 219 2414 64 
Q 2138 -91 1772 -91 
Q 1169 -91 856 284 
Q 544 659 544 1381 
z
M 1991 3584 
L 1991 3584 
z
" transform="scale(0.015625)"/>
        <path id="DejaVuSans-68" d="M 3513 2113 
L 3513 0 
L 2938 0 
L 2938 2094 
Q 2938 2591 2744 2837 
Q 2550 3084 2163 3084 
Q 1697 3084 1428 2787 
Q 1159 2491 1159 1978 
L 1159 0 
L 581 0 
L 581 4863 
L 1159 4863 
L 1159 2956 
Q 1366 3272 1645 3428 
Q 1925 3584 2291 3584 
Q 2894 3584 3203 3211 
Q 3513 2838 3513 2113 
z
" transform="scale(0.015625)"/>
        <path id="DejaVuSans-6f" d="M 1959 3097 
Q 1497 3097 1228 2736 
Q 959 2375 959 1747 
Q 959 1119 1226 758 
Q 1494 397 1959 397 
Q 2419 397 2687 759 
Q 2956 1122 2956 1747 
Q 2956 2369 2687 2733 
Q 2419 3097 1959 3097 
z
M 1959 3584 
Q 2709 3584 3137 3096 
Q 3566 2609 3566 1747 
Q 3566 888 3137 398 
Q 2709 -91 1959 -91 
Q 1206 -91 779 398 
Q 353 888 353 1747 
Q 353 2609 779 3096 
Q 1206 3584 1959 3584 
z
" transform="scale(0.015625)"/>
       </defs>
       <use xlink:href="#DejaVuSans-6d"/>
       <use xlink:href="#DejaVuSans-75" x="97.412109"/>
       <use xlink:href="#DejaVuSans-73" x="160.791016"/>
       <use xlink:href="#DejaVuSans-68" x="212.890625"/>
       <use xlink:href="#DejaVuSans-72" x="276.269531"/>
       <use xlink:href="#DejaVuSans-6f" x="315.132812"/>
       <use xlink:href="#DejaVuSans-6f" x="376.314453"/>
       <use xlink:href="#DejaVuSans-6d" x="437.496094"/>
      </g>
     </g>
    </g>
    <g id="text_7">
     <!-- NL3 -->
     <g style="fill: #262626" transform="translate(22.396875 538.764438) rotate(-90) scale(0.2 -0.2)">
      <defs>
       <path id="DejaVuSans-Bold-4e" d="M 588 4666 
L 1931 4666 
L 3628 1466 
L 3628 4666 
L 4769 4666 
L 4769 0 
L 3425 0 
L 1728 3200 
L 1728 0 
L 588 0 
L 588 4666 
z
" transform="scale(0.015625)"/>
       <path id="DejaVuSans-Bold-4c" d="M 588 4666 
L 1791 4666 
L 1791 909 
L 3903 909 
L 3903 0 
L 588 0 
L 588 4666 
z
" transform="scale(0.015625)"/>
       <path id="DejaVuSans-Bold-33" d="M 2981 2516 
Q 3453 2394 3698 2092 
Q 3944 1791 3944 1325 
Q 3944 631 3412 270 
Q 2881 -91 1863 -91 
Q 1503 -91 1142 -33 
Q 781 25 428 141 
L 428 1069 
Q 766 900 1098 814 
Q 1431 728 1753 728 
Q 2231 728 2486 893 
Q 2741 1059 2741 1369 
Q 2741 1688 2480 1852 
Q 2219 2016 1709 2016 
L 1228 2016 
L 1228 2791 
L 1734 2791 
Q 2188 2791 2409 2933 
Q 2631 3075 2631 3366 
Q 2631 3634 2415 3781 
Q 2200 3928 1806 3928 
Q 1516 3928 1219 3862 
Q 922 3797 628 3669 
L 628 4550 
Q 984 4650 1334 4700 
Q 1684 4750 2022 4750 
Q 2931 4750 3382 4451 
Q 3834 4153 3834 3553 
Q 3834 3144 3618 2883 
Q 3403 2622 2981 2516 
z
" transform="scale(0.015625)"/>
      </defs>
      <use xlink:href="#DejaVuSans-Bold-4e"/>
      <use xlink:href="#DejaVuSans-Bold-4c" x="83.691406"/>
      <use xlink:href="#DejaVuSans-Bold-33" x="147.412109"/>
     </g>
    </g>
   </g>
   <g id="patch_3">
    <path d="M 141.188376 92.6602 
L 141.188376 469.9098 
L 213.013817 469.9098 
L 213.013817 92.6602 
L 141.188376 92.6602 
z
" clip-path="url(#p925783b44a)" style="fill: #176d9c; stroke: #363636; stroke-linejoin: miter"/>
   </g>
   <g id="line2d_4">
    <path d="M 141.188376 281.285 
L 141.188376 281.285 
" clip-path="url(#p925783b44a)" style="fill: none; stroke: #363636"/>
   </g>
   <g id="line2d_5">
    <path d="M 213.013817 281.285 
L 219.641777 281.285 
" clip-path="url(#p925783b44a)" style="fill: none; stroke: #363636"/>
   </g>
   <g id="line2d_6">
    <path d="M 141.188376 186.9726 
L 141.188376 375.5974 
" clip-path="url(#p925783b44a)" style="fill: none; stroke: #363636; stroke-linecap: round"/>
   </g>
   <g id="line2d_7">
    <path d="M 219.641777 186.9726 
L 219.641777 375.5974 
" clip-path="url(#p925783b44a)" style="fill: none; stroke: #363636; stroke-linecap: round"/>
   </g>
   <g id="line2d_8">
    <defs>
     <path id="m216847060a" d="M 0 2.4 
C 0.636487 2.4 1.246992 2.147121 1.697056 1.697056 
C 2.147121 1.246992 2.4 0.636487 2.4 0 
C 2.4 -0.636487 2.147121 -1.246992 1.697056 -1.697056 
C 1.246992 -2.147121 0.636487 -2.4 0 -2.4 
C -0.636487 -2.4 -1.246992 -2.147121 -1.697056 -1.697056 
C -2.147121 -1.246992 -2.4 -0.636487 -2.4 0 
C -2.4 0.636487 -2.147121 1.246992 -1.697056 1.697056 
C -1.246992 2.147121 -0.636487 2.4 0 2.4 
z
" style="stroke: #363636"/>
    </defs>
    <g clip-path="url(#p925783b44a)">
     <use xlink:href="#m216847060a" x="320.81961" y="281.285" style="fill-opacity: 0; stroke: #363636"/>
    </g>
   </g>
   <g id="patch_4">
    <path d="M 147.80693 564.2222 
L 147.80693 941.4718 
L 203.975736 941.4718 
L 203.975736 564.2222 
L 147.80693 564.2222 
z
" clip-path="url(#p925783b44a)" style="fill: #c38820; stroke: #363636; stroke-linejoin: miter"/>
   </g>
   <g id="line2d_9">
    <path d="M 147.80693 752.847 
L 147.80693 752.847 
" clip-path="url(#p925783b44a)" style="fill: none; stroke: #363636"/>
   </g>
   <g id="line2d_10">
    <path d="M 203.975736 752.847 
L 207.805427 752.847 
" clip-path="url(#p925783b44a)" style="fill: none; stroke: #363636"/>
   </g>
   <g id="line2d_11">
    <path d="M 147.80693 658.5346 
L 147.80693 847.1594 
" clip-path="url(#p925783b44a)" style="fill: none; stroke: #363636; stroke-linecap: round"/>
   </g>
   <g id="line2d_12">
    <path d="M 207.805427 658.5346 
L 207.805427 847.1594 
" clip-path="url(#p925783b44a)" style="fill: none; stroke: #363636; stroke-linecap: round"/>
   </g>
   <g id="line2d_13">
    <g clip-path="url(#p925783b44a)">
     <use xlink:href="#m216847060a" x="365.673812" y="752.847" style="fill-opacity: 0; stroke: #363636"/>
    </g>
   </g>
   <g id="line2d_14">
    <path d="M 141.188376 92.6602 
L 141.188376 469.9098 
" clip-path="url(#p925783b44a)" style="fill: none; stroke: #363636"/>
   </g>
   <g id="line2d_15">
    <path d="M 147.80693 564.2222 
L 147.80693 941.4718 
" clip-path="url(#p925783b44a)" style="fill: none; stroke: #363636"/>
   </g>
   <g id="patch_5">
    <path d="M 125.461813 988.628 
L 125.461813 45.504 
" style="fill: none; stroke: #ffffff; stroke-linejoin: miter; stroke-linecap: square"/>
   </g>
   <g id="patch_6">
    <path d="M 377.112479 988.628 
L 377.112479 45.504 
" style="fill: none; stroke: #ffffff; stroke-linejoin: miter; stroke-linecap: square"/>
   </g>
   <g id="patch_7">
    <path d="M 125.461813 988.628 
L 377.112479 988.628 
" style="fill: none; stroke: #ffffff; stroke-linejoin: miter; stroke-linecap: square"/>
   </g>
   <g id="patch_8">
    <path d="M 125.461813 45.504 
L 377.112479 45.504 
" style="fill: none; stroke: #ffffff; stroke-linejoin: miter; stroke-linecap: square"/>
   </g>
  </g>
  <g id="axes_2">
   <g id="patch_9">
    <path d="M 392.664479 988.628 
L 644.315146 988.628 
L 644.315146 45.504 
L 392.664479 45.504 
z
" style="fill: #eaeaf2"/>
   </g>
   <g id="matplotlib.axis_3">
    <g id="xtick_4">
     <g id="line2d_16">
      <path d="M 441.179154 988.628 
L 441.179154 45.504 
" clip-path="url(#pb1657b5853)" style="fill: none; stroke: #ffffff; stroke-width: 0.8; stroke-linecap: round"/>
     </g>
     <g id="text_8">
      <!-- 0.7 -->
      <g style="fill: #262626" transform="translate(430.683091 1006.957938) scale(0.132 -0.132)">
       <use xlink:href="#DejaVuSans-30"/>
       <use xlink:href="#DejaVuSans-2e" x="63.623047"/>
       <use xlink:href="#DejaVuSans-37" x="95.410156"/>
      </g>
     </g>
    </g>
    <g id="xtick_5">
     <g id="line2d_17">
      <path d="M 510.326358 988.628 
L 510.326358 45.504 
" clip-path="url(#pb1657b5853)" style="fill: none; stroke: #ffffff; stroke-width: 0.8; stroke-linecap: round"/>
     </g>
     <g id="text_9">
      <!-- 0.8 -->
      <g style="fill: #262626" transform="translate(499.830295 1006.957938) scale(0.132 -0.132)">
       <use xlink:href="#DejaVuSans-30"/>
       <use xlink:href="#DejaVuSans-2e" x="63.623047"/>
       <use xlink:href="#DejaVuSans-38" x="95.410156"/>
      </g>
     </g>
    </g>
    <g id="xtick_6">
     <g id="line2d_18">
      <path d="M 579.473562 988.628 
L 579.473562 45.504 
" clip-path="url(#pb1657b5853)" style="fill: none; stroke: #ffffff; stroke-width: 0.8; stroke-linecap: round"/>
     </g>
     <g id="text_10">
      <!-- 0.9 -->
      <g style="fill: #262626" transform="translate(568.977499 1006.957938) scale(0.132 -0.132)">
       <use xlink:href="#DejaVuSans-30"/>
       <use xlink:href="#DejaVuSans-2e" x="63.623047"/>
       <use xlink:href="#DejaVuSans-39" x="95.410156"/>
      </g>
     </g>
    </g>
    <g id="text_11">
     <!-- AUC -->
     <g style="fill: #262626" transform="translate(495.603875 1044.9) scale(0.2 -0.2)">
      <defs>
       <path id="DejaVuSans-Bold-55" d="M 588 4666 
L 1791 4666 
L 1791 1869 
Q 1791 1291 1980 1042 
Q 2169 794 2597 794 
Q 3028 794 3217 1042 
Q 3406 1291 3406 1869 
L 3406 4666 
L 4609 4666 
L 4609 1869 
Q 4609 878 4112 393 
Q 3616 -91 2597 -91 
Q 1581 -91 1084 393 
Q 588 878 588 1869 
L 588 4666 
z
" transform="scale(0.015625)"/>
      </defs>
      <use xlink:href="#DejaVuSans-Bold-41"/>
      <use xlink:href="#DejaVuSans-Bold-55" x="74.267578"/>
      <use xlink:href="#DejaVuSans-Bold-43" x="155.46875"/>
     </g>
    </g>
   </g>
   <g id="matplotlib.axis_4">
    <g id="ytick_3"/>
    <g id="ytick_4"/>
   </g>
   <g id="patch_10">
    <path d="M 408.436099 92.6602 
L 408.436099 469.9098 
L 479.966827 469.9098 
L 479.966827 92.6602 
L 408.436099 92.6602 
z
" clip-path="url(#pb1657b5853)" style="fill: #176d9c; stroke: #363636; stroke-linejoin: miter"/>
   </g>
   <g id="line2d_19">
    <path d="M 408.436099 281.285 
L 408.436099 281.285 
" clip-path="url(#pb1657b5853)" style="fill: none; stroke: #363636"/>
   </g>
   <g id="line2d_20">
    <path d="M 479.966827 281.285 
L 586.358451 281.285 
" clip-path="url(#pb1657b5853)" style="fill: none; stroke: #363636"/>
   </g>
   <g id="line2d_21">
    <path d="M 408.436099 186.9726 
L 408.436099 375.5974 
" clip-path="url(#pb1657b5853)" style="fill: none; stroke: #363636; stroke-linecap: round"/>
   </g>
   <g id="line2d_22">
    <path d="M 586.358451 186.9726 
L 586.358451 375.5974 
" clip-path="url(#pb1657b5853)" style="fill: none; stroke: #363636; stroke-linecap: round"/>
   </g>
   <g id="line2d_23"/>
   <g id="patch_11">
    <path d="M 414.72793 564.2222 
L 414.72793 941.4718 
L 470.952003 941.4718 
L 470.952003 564.2222 
L 414.72793 564.2222 
z
" clip-path="url(#pb1657b5853)" style="fill: #c38820; stroke: #363636; stroke-linejoin: miter"/>
   </g>
   <g id="line2d_24">
    <path d="M 414.72793 752.847 
L 414.72793 752.847 
" clip-path="url(#pb1657b5853)" style="fill: none; stroke: #363636"/>
   </g>
   <g id="line2d_25">
    <path d="M 470.952003 752.847 
L 474.85908 752.847 
" clip-path="url(#pb1657b5853)" style="fill: none; stroke: #363636"/>
   </g>
   <g id="line2d_26">
    <path d="M 414.72793 658.5346 
L 414.72793 847.1594 
" clip-path="url(#pb1657b5853)" style="fill: none; stroke: #363636; stroke-linecap: round"/>
   </g>
   <g id="line2d_27">
    <path d="M 474.85908 658.5346 
L 474.85908 847.1594 
" clip-path="url(#pb1657b5853)" style="fill: none; stroke: #363636; stroke-linecap: round"/>
   </g>
   <g id="line2d_28">
    <g clip-path="url(#pb1657b5853)">
     <use xlink:href="#m216847060a" x="632.262412" y="752.847" style="fill-opacity: 0; stroke: #363636"/>
    </g>
   </g>
   <g id="line2d_29">
    <path d="M 408.436099 92.6602 
L 408.436099 469.9098 
" clip-path="url(#pb1657b5853)" style="fill: none; stroke: #363636"/>
   </g>
   <g id="line2d_30">
    <path d="M 414.72793 564.2222 
L 414.72793 941.4718 
" clip-path="url(#pb1657b5853)" style="fill: none; stroke: #363636"/>
   </g>
   <g id="patch_12">
    <path d="M 392.664479 988.628 
L 392.664479 45.504 
" style="fill: none; stroke: #ffffff; stroke-linejoin: miter; stroke-linecap: square"/>
   </g>
   <g id="patch_13">
    <path d="M 644.315146 988.628 
L 644.315146 45.504 
" style="fill: none; stroke: #ffffff; stroke-linejoin: miter; stroke-linecap: square"/>
   </g>
   <g id="patch_14">
    <path d="M 392.664479 988.628 
L 644.315146 988.628 
" style="fill: none; stroke: #ffffff; stroke-linejoin: miter; stroke-linecap: square"/>
   </g>
   <g id="patch_15">
    <path d="M 392.664479 45.504 
L 644.315146 45.504 
" style="fill: none; stroke: #ffffff; stroke-linejoin: miter; stroke-linecap: square"/>
   </g>
  </g>
  <g id="axes_3">
   <g id="patch_16">
    <path d="M 659.867146 988.628 
L 911.517812 988.628 
L 911.517812 45.504 
L 659.867146 45.504 
z
" style="fill: #eaeaf2"/>
   </g>
   <g id="matplotlib.axis_5">
    <g id="xtick_7">
     <g id="line2d_31">
      <path d="M 708.381821 988.628 
L 708.381821 45.504 
" clip-path="url(#pd8c6110438)" style="fill: none; stroke: #ffffff; stroke-width: 0.8; stroke-linecap: round"/>
     </g>
     <g id="text_12">
      <!-- 0.7 -->
      <g style="fill: #262626" transform="translate(697.885758 1006.957938) scale(0.132 -0.132)">
       <use xlink:href="#DejaVuSans-30"/>
       <use xlink:href="#DejaVuSans-2e" x="63.623047"/>
       <use xlink:href="#DejaVuSans-37" x="95.410156"/>
      </g>
     </g>
    </g>
    <g id="xtick_8">
     <g id="line2d_32">
      <path d="M 777.529024 988.628 
L 777.529024 45.504 
" clip-path="url(#pd8c6110438)" style="fill: none; stroke: #ffffff; stroke-width: 0.8; stroke-linecap: round"/>
     </g>
     <g id="text_13">
      <!-- 0.8 -->
      <g style="fill: #262626" transform="translate(767.032962 1006.957938) scale(0.132 -0.132)">
       <use xlink:href="#DejaVuSans-30"/>
       <use xlink:href="#DejaVuSans-2e" x="63.623047"/>
       <use xlink:href="#DejaVuSans-38" x="95.410156"/>
      </g>
     </g>
    </g>
    <g id="xtick_9">
     <g id="line2d_33">
      <path d="M 846.676228 988.628 
L 846.676228 45.504 
" clip-path="url(#pd8c6110438)" style="fill: none; stroke: #ffffff; stroke-width: 0.8; stroke-linecap: round"/>
     </g>
     <g id="text_14">
      <!-- 0.9 -->
      <g style="fill: #262626" transform="translate(836.180166 1006.957938) scale(0.132 -0.132)">
       <use xlink:href="#DejaVuSans-30"/>
       <use xlink:href="#DejaVuSans-2e" x="63.623047"/>
       <use xlink:href="#DejaVuSans-39" x="95.410156"/>
      </g>
     </g>
    </g>
    <g id="text_15">
     <!-- F1 -->
     <g style="fill: #262626" transform="translate(771.903417 1044.9) scale(0.2 -0.2)">
      <defs>
       <path id="DejaVuSans-Bold-46" d="M 588 4666 
L 3834 4666 
L 3834 3756 
L 1791 3756 
L 1791 2888 
L 3713 2888 
L 3713 1978 
L 1791 1978 
L 1791 0 
L 588 0 
L 588 4666 
z
" transform="scale(0.015625)"/>
       <path id="DejaVuSans-Bold-31" d="M 750 831 
L 1813 831 
L 1813 3847 
L 722 3622 
L 722 4441 
L 1806 4666 
L 2950 4666 
L 2950 831 
L 4013 831 
L 4013 0 
L 750 0 
L 750 831 
z
" transform="scale(0.015625)"/>
      </defs>
      <use xlink:href="#DejaVuSans-Bold-46"/>
      <use xlink:href="#DejaVuSans-Bold-31" x="68.310547"/>
     </g>
    </g>
   </g>
   <g id="matplotlib.axis_6">
    <g id="ytick_5"/>
    <g id="ytick_6"/>
   </g>
   <g id="patch_17">
    <path d="M 671.305813 92.6602 
L 671.305813 469.9098 
L 738.315757 469.9098 
L 738.315757 92.6602 
L 671.305813 92.6602 
z
" clip-path="url(#pd8c6110438)" style="fill: #176d9c; stroke: #363636; stroke-linejoin: miter"/>
   </g>
   <g id="line2d_34">
    <path d="M 671.305813 281.285 
L 671.305813 281.285 
" clip-path="url(#pd8c6110438)" style="fill: none; stroke: #363636"/>
   </g>
   <g id="line2d_35">
    <path d="M 738.315757 281.285 
L 742.861578 281.285 
" clip-path="url(#pd8c6110438)" style="fill: none; stroke: #363636"/>
   </g>
   <g id="line2d_36">
    <path d="M 671.305813 186.9726 
L 671.305813 375.5974 
" clip-path="url(#pd8c6110438)" style="fill: none; stroke: #363636; stroke-linecap: round"/>
   </g>
   <g id="line2d_37">
    <path d="M 742.861578 186.9726 
L 742.861578 375.5974 
" clip-path="url(#pd8c6110438)" style="fill: none; stroke: #363636; stroke-linecap: round"/>
   </g>
   <g id="line2d_38">
    <g clip-path="url(#pd8c6110438)">
     <use xlink:href="#m216847060a" x="847.123714" y="281.285" style="fill-opacity: 0; stroke: #363636"/>
    </g>
   </g>
   <g id="patch_18">
    <path d="M 673.611976 564.2222 
L 673.611976 941.4718 
L 731.568154 941.4718 
L 731.568154 564.2222 
L 673.611976 564.2222 
z
" clip-path="url(#pd8c6110438)" style="fill: #c38820; stroke: #363636; stroke-linejoin: miter"/>
   </g>
   <g id="line2d_39">
    <path d="M 673.611976 752.847 
L 673.611976 752.847 
" clip-path="url(#pd8c6110438)" style="fill: none; stroke: #363636"/>
   </g>
   <g id="line2d_40">
    <path d="M 731.568154 752.847 
L 736.172736 752.847 
" clip-path="url(#pd8c6110438)" style="fill: none; stroke: #363636"/>
   </g>
   <g id="line2d_41">
    <path d="M 673.611976 658.5346 
L 673.611976 847.1594 
" clip-path="url(#pd8c6110438)" style="fill: none; stroke: #363636; stroke-linecap: round"/>
   </g>
   <g id="line2d_42">
    <path d="M 736.172736 658.5346 
L 736.172736 847.1594 
" clip-path="url(#pd8c6110438)" style="fill: none; stroke: #363636; stroke-linecap: round"/>
   </g>
   <g id="line2d_43">
    <g clip-path="url(#pd8c6110438)">
     <use xlink:href="#m216847060a" x="898.980917" y="752.847" style="fill-opacity: 0; stroke: #363636"/>
    </g>
   </g>
   <g id="line2d_44">
    <path d="M 671.305813 92.6602 
L 671.305813 469.9098 
" clip-path="url(#pd8c6110438)" style="fill: none; stroke: #363636"/>
   </g>
   <g id="line2d_45">
    <path d="M 673.611976 564.2222 
L 673.611976 941.4718 
" clip-path="url(#pd8c6110438)" style="fill: none; stroke: #363636"/>
   </g>
   <g id="patch_19">
    <path d="M 659.867146 988.628 
L 659.867146 45.504 
" style="fill: none; stroke: #ffffff; stroke-linejoin: miter; stroke-linecap: square"/>
   </g>
   <g id="patch_20">
    <path d="M 911.517812 988.628 
L 911.517812 45.504 
" style="fill: none; stroke: #ffffff; stroke-linejoin: miter; stroke-linecap: square"/>
   </g>
   <g id="patch_21">
    <path d="M 659.867146 988.628 
L 911.517812 988.628 
" style="fill: none; stroke: #ffffff; stroke-linejoin: miter; stroke-linecap: square"/>
   </g>
   <g id="patch_22">
    <path d="M 659.867146 45.504 
L 911.517812 45.504 
" style="fill: none; stroke: #ffffff; stroke-linejoin: miter; stroke-linecap: square"/>
   </g>
  </g>
  <g id="text_16">
   <!-- Metrics Over All Datasets -->
   <g style="fill: #262626" transform="translate(243.714344 29.995312) scale(0.3 -0.3)">
    <defs>
     <path id="DejaVuSans-Bold-4d" d="M 588 4666 
L 2119 4666 
L 3181 2169 
L 4250 4666 
L 5778 4666 
L 5778 0 
L 4641 0 
L 4641 3413 
L 3566 897 
L 2803 897 
L 1728 3413 
L 1728 0 
L 588 0 
L 588 4666 
z
" transform="scale(0.015625)"/>
     <path id="DejaVuSans-Bold-65" d="M 4031 1759 
L 4031 1441 
L 1416 1441 
Q 1456 1047 1700 850 
Q 1944 653 2381 653 
Q 2734 653 3104 758 
Q 3475 863 3866 1075 
L 3866 213 
Q 3469 63 3072 -14 
Q 2675 -91 2278 -91 
Q 1328 -91 801 392 
Q 275 875 275 1747 
Q 275 2603 792 3093 
Q 1309 3584 2216 3584 
Q 3041 3584 3536 3087 
Q 4031 2591 4031 1759 
z
M 2881 2131 
Q 2881 2450 2695 2645 
Q 2509 2841 2209 2841 
Q 1884 2841 1681 2658 
Q 1478 2475 1428 2131 
L 2881 2131 
z
" transform="scale(0.015625)"/>
     <path id="DejaVuSans-Bold-74" d="M 1759 4494 
L 1759 3500 
L 2913 3500 
L 2913 2700 
L 1759 2700 
L 1759 1216 
Q 1759 972 1856 886 
Q 1953 800 2241 800 
L 2816 800 
L 2816 0 
L 1856 0 
Q 1194 0 917 276 
Q 641 553 641 1216 
L 641 2700 
L 84 2700 
L 84 3500 
L 641 3500 
L 641 4494 
L 1759 4494 
z
" transform="scale(0.015625)"/>
     <path id="DejaVuSans-Bold-72" d="M 3138 2547 
Q 2991 2616 2845 2648 
Q 2700 2681 2553 2681 
Q 2122 2681 1889 2404 
Q 1656 2128 1656 1613 
L 1656 0 
L 538 0 
L 538 3500 
L 1656 3500 
L 1656 2925 
Q 1872 3269 2151 3426 
Q 2431 3584 2822 3584 
Q 2878 3584 2943 3579 
Q 3009 3575 3134 3559 
L 3138 2547 
z
" transform="scale(0.015625)"/>
     <path id="DejaVuSans-Bold-69" d="M 538 3500 
L 1656 3500 
L 1656 0 
L 538 0 
L 538 3500 
z
M 538 4863 
L 1656 4863 
L 1656 3950 
L 538 3950 
L 538 4863 
z
" transform="scale(0.015625)"/>
     <path id="DejaVuSans-Bold-63" d="M 3366 3391 
L 3366 2478 
Q 3138 2634 2908 2709 
Q 2678 2784 2431 2784 
Q 1963 2784 1702 2511 
Q 1441 2238 1441 1747 
Q 1441 1256 1702 982 
Q 1963 709 2431 709 
Q 2694 709 2930 787 
Q 3166 866 3366 1019 
L 3366 103 
Q 3103 6 2833 -42 
Q 2563 -91 2291 -91 
Q 1344 -91 809 395 
Q 275 881 275 1747 
Q 275 2613 809 3098 
Q 1344 3584 2291 3584 
Q 2566 3584 2833 3536 
Q 3100 3488 3366 3391 
z
" transform="scale(0.015625)"/>
     <path id="DejaVuSans-Bold-73" d="M 3272 3391 
L 3272 2541 
Q 2913 2691 2578 2766 
Q 2244 2841 1947 2841 
Q 1628 2841 1473 2761 
Q 1319 2681 1319 2516 
Q 1319 2381 1436 2309 
Q 1553 2238 1856 2203 
L 2053 2175 
Q 2913 2066 3209 1816 
Q 3506 1566 3506 1031 
Q 3506 472 3093 190 
Q 2681 -91 1863 -91 
Q 1516 -91 1145 -36 
Q 775 19 384 128 
L 384 978 
Q 719 816 1070 734 
Q 1422 653 1784 653 
Q 2113 653 2278 743 
Q 2444 834 2444 1013 
Q 2444 1163 2330 1236 
Q 2216 1309 1875 1350 
L 1678 1375 
Q 931 1469 631 1722 
Q 331 1975 331 2491 
Q 331 3047 712 3315 
Q 1094 3584 1881 3584 
Q 2191 3584 2531 3537 
Q 2872 3491 3272 3391 
z
" transform="scale(0.015625)"/>
     <path id="DejaVuSans-Bold-20" transform="scale(0.015625)"/>
     <path id="DejaVuSans-Bold-4f" d="M 2719 3878 
Q 2169 3878 1866 3472 
Q 1563 3066 1563 2328 
Q 1563 1594 1866 1187 
Q 2169 781 2719 781 
Q 3272 781 3575 1187 
Q 3878 1594 3878 2328 
Q 3878 3066 3575 3472 
Q 3272 3878 2719 3878 
z
M 2719 4750 
Q 3844 4750 4481 4106 
Q 5119 3463 5119 2328 
Q 5119 1197 4481 553 
Q 3844 -91 2719 -91 
Q 1597 -91 958 553 
Q 319 1197 319 2328 
Q 319 3463 958 4106 
Q 1597 4750 2719 4750 
z
" transform="scale(0.015625)"/>
     <path id="DejaVuSans-Bold-76" d="M 97 3500 
L 1216 3500 
L 2088 1081 
L 2956 3500 
L 4078 3500 
L 2700 0 
L 1472 0 
L 97 3500 
z
" transform="scale(0.015625)"/>
     <path id="DejaVuSans-Bold-6c" d="M 538 4863 
L 1656 4863 
L 1656 0 
L 538 0 
L 538 4863 
z
" transform="scale(0.015625)"/>
     <path id="DejaVuSans-Bold-44" d="M 1791 3756 
L 1791 909 
L 2222 909 
Q 2959 909 3348 1275 
Q 3738 1641 3738 2338 
Q 3738 3031 3350 3393 
Q 2963 3756 2222 3756 
L 1791 3756 
z
M 588 4666 
L 1856 4666 
Q 2919 4666 3439 4514 
Q 3959 4363 4331 4000 
Q 4659 3684 4818 3271 
Q 4978 2859 4978 2338 
Q 4978 1809 4818 1395 
Q 4659 981 4331 666 
Q 3956 303 3431 151 
Q 2906 0 1856 0 
L 588 0 
L 588 4666 
z
" transform="scale(0.015625)"/>
     <path id="DejaVuSans-Bold-61" d="M 2106 1575 
Q 1756 1575 1579 1456 
Q 1403 1338 1403 1106 
Q 1403 894 1545 773 
Q 1688 653 1941 653 
Q 2256 653 2472 879 
Q 2688 1106 2688 1447 
L 2688 1575 
L 2106 1575 
z
M 3816 1997 
L 3816 0 
L 2688 0 
L 2688 519 
Q 2463 200 2181 54 
Q 1900 -91 1497 -91 
Q 953 -91 614 226 
Q 275 544 275 1050 
Q 275 1666 698 1953 
Q 1122 2241 2028 2241 
L 2688 2241 
L 2688 2328 
Q 2688 2594 2478 2717 
Q 2269 2841 1825 2841 
Q 1466 2841 1156 2769 
Q 847 2697 581 2553 
L 581 3406 
Q 941 3494 1303 3539 
Q 1666 3584 2028 3584 
Q 2975 3584 3395 3211 
Q 3816 2838 3816 1997 
z
" transform="scale(0.015625)"/>
    </defs>
    <use xlink:href="#DejaVuSans-Bold-4d"/>
    <use xlink:href="#DejaVuSans-Bold-65" x="99.511719"/>
    <use xlink:href="#DejaVuSans-Bold-74" x="167.333984"/>
    <use xlink:href="#DejaVuSans-Bold-72" x="215.136719"/>
    <use xlink:href="#DejaVuSans-Bold-69" x="264.453125"/>
    <use xlink:href="#DejaVuSans-Bold-63" x="298.730469"/>
    <use xlink:href="#DejaVuSans-Bold-73" x="358.007812"/>
    <use xlink:href="#DejaVuSans-Bold-20" x="417.529297"/>
    <use xlink:href="#DejaVuSans-Bold-4f" x="452.34375"/>
    <use xlink:href="#DejaVuSans-Bold-76" x="537.353516"/>
    <use xlink:href="#DejaVuSans-Bold-65" x="602.539062"/>
    <use xlink:href="#DejaVuSans-Bold-72" x="670.361328"/>
    <use xlink:href="#DejaVuSans-Bold-20" x="719.677734"/>
    <use xlink:href="#DejaVuSans-Bold-41" x="754.492188"/>
    <use xlink:href="#DejaVuSans-Bold-6c" x="831.884766"/>
    <use xlink:href="#DejaVuSans-Bold-6c" x="866.162109"/>
    <use xlink:href="#DejaVuSans-Bold-20" x="900.439453"/>
    <use xlink:href="#DejaVuSans-Bold-44" x="935.253906"/>
    <use xlink:href="#DejaVuSans-Bold-61" x="1018.261719"/>
    <use xlink:href="#DejaVuSans-Bold-74" x="1085.742188"/>
    <use xlink:href="#DejaVuSans-Bold-61" x="1133.544922"/>
    <use xlink:href="#DejaVuSans-Bold-73" x="1201.025391"/>
    <use xlink:href="#DejaVuSans-Bold-65" x="1260.546875"/>
    <use xlink:href="#DejaVuSans-Bold-74" x="1328.369141"/>
    <use xlink:href="#DejaVuSans-Bold-73" x="1376.171875"/>
   </g>
  </g>
 </g>
 <defs>
  <clipPath id="p925783b44a">
   <rect x="125.461813" y="45.504" width="251.650667" height="943.124"/>
  </clipPath>
  <clipPath id="pb1657b5853">
   <rect x="392.664479" y="45.504" width="251.650667" height="943.124"/>
  </clipPath>
  <clipPath id="pd8c6110438">
   <rect x="659.867146" y="45.504" width="251.650667" height="943.124"/>
  </clipPath>
 </defs>
</svg>
